<svg width="14" height="14" viewBox="0 0 14 14" fill="none" xmlns="http://www.w3.org/2000/svg">
<path d="M0.250098 12.6761C0.250098 13.0998 0.593514 13.4432 1.01714 13.4432C1.44076 13.4432 1.78418 13.0998 1.78418 12.6761L1.78418 11.1421C1.78418 10.7184 1.44076 10.375 1.01714 10.375C0.593514 10.375 0.250098 10.7184 0.250098 11.1421L0.250098 12.6761Z" fill="#9D9D9D"/>
<path d="M6.367 8.8655C6.66655 9.16505 7.15221 9.16505 7.45176 8.8655C7.75131 8.56595 7.75131 8.08029 7.45176 7.78074L5.06529 5.39427C4.76574 5.09472 4.28008 5.09472 3.98053 5.39427C3.68098 5.69382 3.68098 6.17948 3.98053 6.47903L6.367 8.8655Z" fill="#9D9D9D"/>
<path d="M6.55528 7.77948C6.25573 8.07902 6.25573 8.56469 6.55528 8.86424C6.85482 9.16378 7.34049 9.16378 7.64004 8.86424L10.0265 6.47777C10.3261 6.17822 10.3261 5.69256 10.0265 5.39301C9.72696 5.09346 9.24129 5.09346 8.94175 5.39301L6.55528 7.77948Z" fill="#9D9D9D"/>
<path d="M12.2159 12.6761C12.2159 13.0998 12.5593 13.4432 12.983 13.4432C13.4066 13.4432 13.75 13.0998 13.75 12.6761V11.1421C13.75 10.7184 13.4066 10.375 12.983 10.375C12.5593 10.375 12.2159 10.7184 12.2159 11.1421V12.6761Z" fill="#9D9D9D"/>
<path d="M6.25205 8.38073C6.25205 8.80435 6.59547 9.14777 7.01909 9.14777C7.44272 9.14777 7.78613 8.80435 7.78613 8.38073L7.78613 1.01714C7.78613 0.593512 7.44272 0.250095 7.01909 0.250095C6.59547 0.250095 6.25205 0.593512 6.25205 1.01714L6.25205 8.38073Z" fill="#9D9D9D"/>
<path d="M12.9829 12.2159H1.01704C0.593416 12.2159 0.25 12.5594 0.25 12.983C0.25 13.4066 0.593416 13.75 1.01704 13.75H12.9829C13.4065 13.75 13.7499 13.4066 13.7499 12.983C13.7499 12.5594 13.4065 12.2159 12.9829 12.2159Z" fill="#9D9D9D"/>
</svg>
