<svg width="14" height="14" viewBox="0 0 14 14" fill="none" xmlns="http://www.w3.org/2000/svg">
<path d="M13.4618 0.538452H11.308C11.0106 0.538452 10.7695 0.77953 10.7695 1.07691V12.9231C10.7695 13.2205 11.0106 13.4615 11.308 13.4615H13.4618C13.7592 13.4615 14.0003 13.2205 14.0003 12.9231V1.07691C14.0003 0.77953 13.7592 0.538452 13.4618 0.538452Z" fill="#9D9D9D"/>
<path d="M8.07707 4.84619H5.92323C5.62584 4.84619 5.38477 5.08727 5.38477 5.38465V12.9231C5.38477 13.2205 5.62584 13.4616 5.92323 13.4616H8.07707C8.37446 13.4616 8.61553 13.2205 8.61553 12.9231V5.38465C8.61553 5.08727 8.37446 4.84619 8.07707 4.84619Z" fill="#9D9D9D"/>
<path d="M2.69231 7H0.538462C0.241077 7 0 7.24108 0 7.53846V12.9231C0 13.2205 0.241077 13.4615 0.538462 13.4615H2.69231C2.98969 13.4615 3.23077 13.2205 3.23077 12.9231V7.53846C3.23077 7.24108 2.98969 7 2.69231 7Z" fill="#9D9D9D"/>
</svg>
