<svg width="16" height="18" viewBox="0 0 16 18" fill="none" xmlns="http://www.w3.org/2000/svg">
<path fill-rule="evenodd" clip-rule="evenodd" d="M13.4286 1.5H2C1.72386 1.5 1.5 1.72386 1.5 2V16C1.5 16.2761 1.72386 16.5 2 16.5H13.4286C13.7047 16.5 13.9286 16.2761 13.9286 16V2C13.9286 1.72386 13.7047 1.5 13.4286 1.5ZM2 0C0.895431 0 0 0.89543 0 2V16C0 17.1046 0.895432 18 2 18H13.4286C14.5331 18 15.4286 17.1046 15.4286 16V2C15.4286 0.895431 14.5331 0 13.4286 0H2Z" fill="black"/>
<path fill-rule="evenodd" clip-rule="evenodd" d="M4.28571 2.57141C3.57563 2.57141 3 3.07998 3 3.70734C3 4.3347 3.57564 4.84327 4.28572 4.84327H11.1429C11.8529 4.84327 12.4286 4.3347 12.4286 3.70734C12.4286 3.07998 11.8529 2.57141 11.1429 2.57141H4.28571Z" fill="black"/>
<rect x="6.42871" y="6" width="2.57143" height="2.57143" rx="1.28571" fill="#282627"/>
<rect x="6.42871" y="9.42859" width="2.57143" height="2.57143" rx="1.28571" fill="#282627"/>
<rect x="6.42871" y="12.8572" width="2.57143" height="2.57143" rx="1.28571" fill="#282627"/>
<rect x="9.85742" y="6" width="2.57143" height="2.57143" rx="1.28571" fill="#282627"/>
<rect x="9.85742" y="9.42859" width="2.57143" height="2.57143" rx="1.28571" fill="#282627"/>
<rect x="9.85742" y="12.8572" width="2.57143" height="2.57143" rx="1.28571" fill="#282627"/>
<rect x="3" y="6" width="2.57143" height="2.57143" rx="1.28571" fill="#282627"/>
<rect x="3" y="9.42859" width="2.57143" height="2.57143" rx="1.28571" fill="#282627"/>
<rect x="3" y="12.8572" width="2.57143" height="2.57143" rx="1.28571" fill="#282627"/>
</svg>
