<svg width="12" height="8" viewBox="0 0 12 8" fill="none" xmlns="http://www.w3.org/2000/svg">
<path d="M2.75631 6.52983L6.99895 2.28719C7.38947 1.89666 7.38947 1.2635 6.99895 0.872971C6.60842 0.482447 5.97526 0.482447 5.58473 0.872971L1.34209 5.11561C0.951569 5.50614 0.951569 6.1393 1.34209 6.52982C1.73262 6.92035 2.36578 6.92035 2.75631 6.52983Z" fill="black"/>
<path d="M5.60103 2.28719L9.84367 6.52983C10.2342 6.92036 10.8674 6.92036 11.2579 6.52983C11.6484 6.13931 11.6484 5.50614 11.2579 5.11562L7.01525 0.872977C6.62472 0.482452 5.99156 0.482452 5.60104 0.872976C5.21051 1.2635 5.21051 1.89667 5.60103 2.28719Z" fill="black"/>
</svg>
