<svg width="8" height="12" viewBox="0 0 8 12" fill="none" xmlns="http://www.w3.org/2000/svg">
<g clip-path="url(#clip0_2600_36)">
<path d="M0.883278 4.77297L4.77237 0.883884C5.26052 0.395728 6.05198 0.395728 6.54013 0.883884C7.02829 1.37204 7.02829 2.1635 6.54013 2.65165L2.65105 6.54074C2.16289 7.0289 1.37143 7.0289 0.883278 6.54074C0.395122 6.05258 0.395122 5.26113 0.883278 4.77297Z" fill="white"/>
<path d="M4.77297 10.5386L0.883884 6.64951C0.395728 6.16135 0.395728 5.3699 0.883884 4.88174C1.37204 4.39359 2.1635 4.39359 2.65165 4.88174L6.54074 8.77083C7.0289 9.25899 7.0289 10.0504 6.54074 10.5386C6.05258 11.0268 5.26113 11.0268 4.77297 10.5386Z" fill="white"/>
</g>
<defs>
<clipPath id="clip0_2600_36">
<rect width="8" height="12" fill="white"/>
</clipPath>
</defs>
</svg>
