<svg width="19" height="19" viewBox="0 0 19 19" fill="none" xmlns="http://www.w3.org/2000/svg">
<path d="M2.90715 1.94222C2.90715 1.39455 2.46317 0.950562 1.91549 0.950562C1.36781 0.950562 0.923828 1.39455 0.923828 1.94222V17.8089C0.923828 18.3565 1.36781 18.8006 1.91549 18.8006C2.46317 18.8006 2.90715 18.3565 2.90715 17.8089V1.94222Z" fill="black"/>
<path d="M17.7831 1.94222C17.7831 1.39455 17.3392 0.950562 16.7915 0.950562C16.2438 0.950562 15.7998 1.39455 15.7998 1.94222V17.8089C15.7998 18.3565 16.2438 18.8006 16.7915 18.8006C17.3392 18.8006 17.7831 18.3565 17.7831 17.8089V1.94222Z" fill="black"/>
<path d="M16.7904 5.90886C17.3381 5.90886 17.7821 5.46489 17.7821 4.9172C17.7821 4.36952 17.3381 3.92554 16.7904 3.92554H1.91549C1.36781 3.92554 0.923828 4.36952 0.923828 4.9172C0.923828 5.46489 1.36781 5.90886 1.91549 5.90886H16.7904Z" fill="black"/>
<path d="M16.7904 10.8672C17.3381 10.8672 17.7821 10.4231 17.7821 9.87545C17.7821 9.32778 17.3381 8.88379 16.7904 8.88379H1.91549C1.36781 8.88379 0.923828 9.32778 0.923828 9.87545C0.923828 10.4231 1.36781 10.8672 1.91549 10.8672H16.7904Z" fill="black"/>
<path d="M16.7904 15.8255C17.3381 15.8255 17.7821 15.3814 17.7821 14.8338C17.7821 14.2861 17.3381 13.8422 16.7904 13.8422H1.91549C1.36781 13.8422 0.923828 14.2861 0.923828 14.8338C0.923828 15.3814 1.36781 15.8255 1.91549 15.8255H16.7904Z" fill="black"/>
<path d="M6.87493 6.90049C7.97029 6.90049 8.85826 6.01253 8.85826 4.91717C8.85826 3.8218 7.97029 2.93384 6.87493 2.93384C5.77958 2.93384 4.8916 3.8218 4.8916 4.91717C4.8916 6.01253 5.77958 6.90049 6.87493 6.90049Z" fill="black"/>
<path d="M6.87493 16.8172C7.97029 16.8172 8.85826 15.9292 8.85826 14.8339C8.85826 13.7385 7.97029 12.8506 6.87493 12.8506C5.77958 12.8506 4.8916 13.7385 4.8916 14.8339C4.8916 15.9292 5.77958 16.8172 6.87493 16.8172Z" fill="black"/>
<path d="M11.8329 11.8589C12.9283 11.8589 13.8163 10.9709 13.8163 9.87554C13.8163 8.78018 12.9283 7.89221 11.8329 7.89221C10.7375 7.89221 9.84961 8.78018 9.84961 9.87554C9.84961 10.9709 10.7375 11.8589 11.8329 11.8589Z" fill="black"/>
</svg>
