<svg width="19" height="19" viewBox="0 0 19 19" fill="none" xmlns="http://www.w3.org/2000/svg">
<path d="M17.414 1.9071H14.7578C14.3911 1.9071 14.0938 2.20441 14.0938 2.57114V17.1802C14.0938 17.5469 14.3911 17.8441 14.7578 17.8441H17.414C17.7807 17.8441 18.0781 17.5469 18.0781 17.1802V2.57114C18.0781 2.20441 17.7807 1.9071 17.414 1.9071Z" fill="black"/>
<path d="M10.7733 7.21948H8.11717C7.75042 7.21948 7.45312 7.51679 7.45312 7.88352V17.1801C7.45312 17.5469 7.75042 17.8442 8.11717 17.8442H10.7733C11.1401 17.8442 11.4374 17.5469 11.4374 17.1801V7.88352C11.4374 7.51679 11.1401 7.21948 10.7733 7.21948Z" fill="black"/>
<path d="M4.13272 9.87561H1.47654C1.1098 9.87561 0.8125 10.1729 0.8125 10.5397V17.1801C0.8125 17.5469 1.1098 17.8441 1.47654 17.8441H4.13272C4.49946 17.8441 4.79676 17.5469 4.79676 17.1801V10.5397C4.79676 10.1729 4.49946 9.87561 4.13272 9.87561Z" fill="black"/>
</svg>
