<svg width="19" height="18" viewBox="0 0 19 18" fill="none" xmlns="http://www.w3.org/2000/svg">
<path fill-rule="evenodd" clip-rule="evenodd" d="M13.5168 1.85706H2.65633C1.38344 1.85706 0.351562 2.88893 0.351562 4.16182V15.3976C0.351562 16.6704 1.38344 17.7023 2.65633 17.7023H13.8921C15.165 17.7023 16.1968 16.6704 16.1968 15.3976V5.87734L13.8921 8.18209V15.3976H2.65633V4.16182H11.212L13.5168 1.85706Z" fill="black"/>
<path d="M6.7793 11.9933L8.2767 8.34065L10.4359 10.4262L6.7793 11.9933Z" fill="black"/>
<path d="M16.1626 0.424168C16.2196 0.367149 16.3118 0.366328 16.3698 0.422323L18.3378 2.32117C18.3972 2.37856 18.3981 2.47356 18.3397 2.53206L10.496 10.3913C10.4389 10.4485 10.3465 10.4493 10.2884 10.3931L8.31567 8.48262C8.25633 8.42515 8.25557 8.33021 8.31399 8.2718L16.1626 0.424168Z" fill="black"/>
</svg>
