<svg width="293" height="225" viewBox="0 0 293 225" fill="none" xmlns="http://www.w3.org/2000/svg">
<g clip-path="url(#clip0_3466_1380)">
<path opacity="0.1" d="M134.182 198.678C201.39 198.678 255.872 194.447 255.872 189.229C255.872 184.011 201.39 179.78 134.182 179.78C66.975 179.78 12.4927 184.011 12.4927 189.229C12.4927 194.447 66.975 198.678 134.182 198.678Z" fill="#6C63FF"/>
<g opacity="0.1">
<path d="M241.962 135.388C241.235 133.18 238.286 132.164 235.377 133.12C234.958 133.257 234.552 133.432 234.166 133.644C233.979 133.592 233.788 133.547 233.593 133.512C233.752 132.877 233.813 132.222 233.773 131.568C234.777 130.897 235.591 129.979 236.137 128.902C236.684 127.826 236.944 126.627 236.894 125.421C237.895 124.747 238.706 123.829 239.251 122.752C239.795 121.676 240.054 120.478 240.004 119.273C241.012 118.609 241.826 117.688 242.36 116.605C243.763 113.827 243.182 110.706 241.06 109.632C238.939 108.559 236.078 109.942 234.675 112.719C234.119 113.791 233.859 114.992 233.922 116.198C232.921 116.871 232.11 117.79 231.566 118.866C231.021 119.942 230.762 121.14 230.813 122.345C229.812 123.019 229.001 123.937 228.456 125.014C227.912 126.09 227.652 127.288 227.703 128.493C226.7 129.165 225.886 130.084 225.34 131.161C224.793 132.238 224.532 133.437 224.582 134.643C223.574 135.308 222.76 136.229 222.226 137.312C221.962 137.834 221.762 138.386 221.63 138.955C221.278 138.441 220.85 137.985 220.359 137.601C220.303 137.164 220.207 136.732 220.072 136.313C219.116 133.401 216.551 131.625 214.346 132.353C212.141 133.08 211.122 136.026 212.078 138.938C212.47 140.187 213.223 141.291 214.243 142.111C214.299 142.548 214.395 142.979 214.529 143.399C215.085 145.089 216.181 146.394 217.435 147.05C217.324 147.415 217.245 147.788 217.198 148.167C216.015 149.304 215.254 150.809 215.039 152.436C213.855 153.574 213.094 155.08 212.88 156.708C212.294 157.27 211.81 157.93 211.448 158.658C210.042 161.435 210.624 164.559 212.745 165.63C214.867 166.701 217.727 165.323 219.133 162.543C219.504 161.818 219.746 161.034 219.849 160.227C221.032 159.089 221.793 157.584 222.008 155.958C223.191 154.82 223.953 153.313 224.167 151.686C225.341 150.546 226.094 149.04 226.3 147.416C227.488 146.279 228.252 144.77 228.465 143.139C228.829 142.793 229.154 142.409 229.435 141.993C230.605 142.233 231.818 142.157 232.949 141.773C233.368 141.636 233.773 141.461 234.16 141.249C235.426 141.583 236.763 141.535 238.002 141.111C240.903 140.164 242.687 137.598 241.962 135.388Z" fill="#3F3D56"/>
<g opacity="0.1">
<path d="M236.828 126.683C236.528 126.979 236.198 127.243 235.843 127.471C235.888 128.288 235.78 129.107 235.525 129.885C235.751 129.573 235.952 129.245 236.127 128.902C236.482 128.207 236.719 127.457 236.828 126.683Z" fill="black"/>
<path d="M239.938 120.536C239.637 120.831 239.307 121.095 238.953 121.323C238.998 122.141 238.89 122.959 238.635 123.737C238.861 123.425 239.062 123.096 239.236 122.752C239.59 122.057 239.827 121.308 239.938 120.536Z" fill="black"/>
<path d="M232.885 118.248C232.859 117.827 232.875 117.404 232.934 116.985C232.378 117.533 231.915 118.169 231.565 118.867C231.392 119.211 231.247 119.568 231.13 119.935C231.604 119.267 232.199 118.695 232.885 118.248Z" fill="black"/>
<path d="M213.148 155.451C213.399 155.102 213.681 154.778 213.993 154.483C214.042 154.095 214.125 153.711 214.242 153.338C213.993 153.672 213.774 154.027 213.587 154.4C213.413 154.738 213.267 155.09 213.148 155.451Z" fill="black"/>
<path d="M215.308 151.184C215.558 150.836 215.841 150.512 216.152 150.217C216.199 149.838 216.279 149.465 216.39 149.1C216.152 149.425 215.942 149.769 215.76 150.128C215.583 150.468 215.432 150.821 215.308 151.184Z" fill="black"/>
<path d="M233.716 132.831C233.417 133.126 233.088 133.389 232.734 133.615C232.773 134.269 232.712 134.924 232.553 135.56C232.746 135.593 232.938 135.637 233.126 135.691C233.512 135.479 233.918 135.304 234.337 135.167C237.252 134.211 240.198 135.227 240.923 137.435C241.102 137.99 241.134 138.582 241.014 139.153C241.973 138.025 242.371 136.65 241.959 135.391C241.232 133.183 238.283 132.167 235.374 133.123C234.954 133.26 234.549 133.435 234.162 133.647C233.976 133.595 233.784 133.55 233.59 133.515C233.644 133.286 233.684 133.06 233.716 132.831Z" fill="black"/>
<path d="M212.083 157.595C211.834 157.93 211.615 158.285 211.428 158.658C211.254 159.003 211.106 159.361 210.987 159.728C211.242 159.378 211.53 159.052 211.846 158.755C211.89 158.362 211.969 157.974 212.083 157.595Z" fill="black"/>
<path d="M229.762 124.396C229.735 123.974 229.752 123.551 229.81 123.133C229.254 123.681 228.792 124.316 228.442 125.014C228.269 125.358 228.123 125.715 228.006 126.082C228.48 125.415 229.076 124.842 229.762 124.396Z" fill="black"/>
<path d="M225.269 149.466C225.212 149.892 225.116 150.312 224.982 150.721C225.206 150.408 225.406 150.079 225.581 149.736C225.769 149.368 225.925 148.985 226.048 148.59C225.813 148.904 225.553 149.197 225.269 149.466Z" fill="black"/>
<path d="M220.951 158.005C220.895 158.431 220.799 158.851 220.665 159.259C220.891 158.947 221.092 158.618 221.266 158.274C221.452 157.906 221.608 157.523 221.733 157.129C221.498 157.443 221.236 157.736 220.951 158.005Z" fill="black"/>
<path d="M223.11 153.733C223.054 154.159 222.958 154.579 222.824 154.987C223.052 154.68 223.257 154.357 223.436 154.019C223.624 153.651 223.78 153.268 223.903 152.874C223.663 153.182 223.398 153.469 223.11 153.733Z" fill="black"/>
<path d="M227.428 145.197C227.372 145.622 227.276 146.041 227.142 146.449C227.366 146.137 227.566 145.809 227.74 145.467C227.93 145.092 228.087 144.702 228.21 144.301C227.976 144.623 227.715 144.923 227.428 145.197Z" fill="black"/>
<path d="M213.292 134.4C215.502 133.675 218.068 135.448 219.018 138.36C219.152 138.781 219.248 139.213 219.305 139.651C219.795 140.035 220.224 140.491 220.576 141.006C220.708 140.435 220.908 139.882 221.171 139.359C221.272 139.164 221.38 138.978 221.492 138.786C221.167 138.337 220.782 137.934 220.347 137.59C220.291 137.152 220.195 136.721 220.06 136.301C219.104 133.389 216.539 131.614 214.334 132.341C213.074 132.754 212.204 133.89 211.866 135.328C212.253 134.901 212.744 134.581 213.292 134.4Z" fill="black"/>
<path d="M223.542 136.691C223.517 136.27 223.534 135.848 223.594 135.431C223.036 135.978 222.573 136.613 222.222 137.312C222.049 137.655 221.903 138.011 221.787 138.377C222.262 137.711 222.858 137.139 223.542 136.691Z" fill="black"/>
<path d="M226.652 130.54C226.626 130.12 226.644 129.697 226.703 129.28C226.145 129.826 225.681 130.461 225.332 131.159C225.159 131.503 225.013 131.86 224.896 132.227C225.37 131.559 225.966 130.987 226.652 130.54Z" fill="black"/>
<path d="M218.792 162.274C218.736 162.701 218.64 163.122 218.506 163.531C218.976 162.879 219.337 162.155 219.574 161.386C219.34 161.705 219.078 162.002 218.792 162.274Z" fill="black"/>
</g>
<path d="M246.206 106.978C247.215 106.314 248.028 105.393 248.562 104.31C249.968 101.532 249.387 98.4083 247.265 97.3346C245.143 96.2609 242.283 97.6438 240.877 100.424C240.32 101.499 240.061 102.703 240.127 103.912C239.126 104.585 238.315 105.503 237.77 106.58C237.226 107.656 236.967 108.854 237.017 110.059C236.008 110.722 235.194 111.644 234.661 112.728C234.489 113.068 234.344 113.421 234.229 113.784C234.976 112.702 236.06 111.896 237.312 111.494C237.455 111.935 237.683 112.343 237.985 112.695C238.286 113.047 238.655 113.336 239.068 113.545C239.482 113.754 239.933 113.878 240.396 113.911C240.858 113.945 241.322 113.886 241.762 113.738C242.185 114.983 242.185 116.333 241.762 117.578C241.985 117.27 242.185 116.944 242.357 116.605C242.913 115.532 243.172 114.331 243.108 113.126C244.11 112.454 244.922 111.535 245.466 110.459C246.011 109.382 246.269 108.183 246.217 106.978H246.206Z" fill="#3F3D56"/>
<path d="M280.382 67.5679C281.245 67.1651 282.079 66.703 282.878 66.1849L273.621 59.4218L284.502 65.0253C286.703 63.2767 288.524 61.0972 289.853 58.6202C291.183 56.1432 291.992 53.4209 292.233 50.6201L273.742 50.809L292.273 47.711C292.081 44.9073 291.318 42.1725 290.031 39.6744C288.744 37.1763 286.96 34.9677 284.788 33.1843C282.617 31.4009 280.103 30.0804 277.403 29.3038C274.702 28.5271 271.871 28.3109 269.084 28.6682C266.296 29.0256 263.611 29.949 261.194 31.3819C258.776 32.8147 256.677 34.7266 255.026 37.0002C253.374 39.2738 252.205 41.861 251.59 44.603C250.974 47.345 250.926 50.1838 251.448 52.9451C250.104 53.5701 248.831 54.338 247.651 55.2357L257.315 68.6731L245.713 56.9107C243.264 59.315 241.454 62.292 240.446 65.5721C239.437 68.8523 239.263 72.3321 239.938 75.6967C236.433 77.3326 233.459 79.9215 231.356 83.1675C229.253 86.4136 228.105 90.1858 228.044 94.0531C227.983 97.9204 229.011 101.727 231.011 105.038C233.011 108.348 235.902 111.029 239.354 112.775C242.806 114.52 246.679 115.259 250.53 114.908C254.382 114.557 258.057 113.129 261.136 110.787C264.215 108.446 266.573 105.286 267.941 101.668C269.309 98.0503 269.631 94.1206 268.871 90.3281C273.065 88.376 276.481 85.0699 278.569 80.9417C280.656 76.8134 281.295 72.1029 280.382 67.5679Z" fill="#6C63FF"/>
<path opacity="0.1" d="M241.762 62.3224C239.667 66.4486 239.026 71.1611 239.944 75.6968C236.439 77.3327 233.465 79.9216 231.362 83.1676C229.258 86.4136 228.111 90.1858 228.05 94.0531C227.989 97.9205 229.017 101.727 231.017 105.038C233.017 108.348 235.908 111.029 239.36 112.775C242.811 114.52 246.684 115.26 250.536 114.908C254.388 114.557 258.063 113.129 261.142 110.787C264.221 108.446 266.579 105.286 267.947 101.668C269.314 98.0503 269.637 94.1206 268.877 90.3282C272.923 88.4499 242.798 60.2579 241.762 62.3224Z" fill="black"/>
<path d="M264.994 32.4725C266.685 32.4725 268.055 31.1021 268.055 29.4117C268.055 27.7212 266.685 26.3508 264.994 26.3508C263.304 26.3508 261.934 27.7212 261.934 29.4117C261.934 31.1021 263.304 32.4725 264.994 32.4725Z" fill="#6C63FF"/>
<path d="M282.873 34.4368C284.563 34.4368 285.934 33.0664 285.934 31.3759C285.934 29.6855 284.563 28.3151 282.873 28.3151C281.182 28.3151 279.812 29.6855 279.812 31.3759C279.812 33.0664 281.182 34.4368 282.873 34.4368Z" fill="#6C63FF"/>
<path d="M289.767 61.9415C291.458 61.9415 292.828 60.5711 292.828 58.8807C292.828 57.1902 291.458 55.8198 289.767 55.8198C288.077 55.8198 286.707 57.1902 286.707 58.8807C286.707 60.5711 288.077 61.9415 289.767 61.9415Z" fill="#6C63FF"/>
<path d="M280.462 75.6766C282.152 75.6766 283.523 74.3063 283.523 72.6158C283.523 70.9253 282.152 69.5549 280.462 69.5549C278.771 69.5549 277.401 70.9253 277.401 72.6158C277.401 74.3063 278.771 75.6766 280.462 75.6766Z" fill="#6C63FF"/>
<path d="M267.749 104.204C269.439 104.204 270.81 102.833 270.81 101.143C270.81 99.4523 269.439 98.0819 267.749 98.0819C266.058 98.0819 264.688 99.4523 264.688 101.143C264.688 102.833 266.058 104.204 267.749 104.204Z" fill="#6C63FF"/>
<path opacity="0.1" d="M267.749 104.204C269.439 104.204 270.81 102.833 270.81 101.143C270.81 99.4523 269.439 98.0819 267.749 98.0819C266.058 98.0819 264.688 99.4523 264.688 101.143C264.688 102.833 266.058 104.204 267.749 104.204Z" fill="black"/>
<path d="M239.482 71.8943C241.173 71.8943 242.543 70.5239 242.543 68.8334C242.543 67.143 241.173 65.7726 239.482 65.7726C237.792 65.7726 236.421 67.143 236.421 68.8334C236.421 70.5239 237.792 71.8943 239.482 71.8943Z" fill="#6C63FF"/>
<path opacity="0.1" d="M239.482 71.8943C241.173 71.8943 242.543 70.5239 242.543 68.8334C242.543 67.143 241.173 65.7726 239.482 65.7726C237.792 65.7726 236.421 67.143 236.421 68.8334C236.421 70.5239 237.792 71.8943 239.482 71.8943Z" fill="black"/>
<path opacity="0.1" d="M236.218 119.179C234.182 118.151 233.567 115.239 234.755 112.553C234.692 112.662 234.632 112.773 234.575 112.891C233.169 115.668 233.75 118.789 235.872 119.863C237.993 120.937 240.854 119.554 242.257 116.776C242.317 116.662 242.369 116.544 242.42 116.43C240.963 118.981 238.251 120.209 236.218 119.179Z" fill="black"/>
<path opacity="0.1" d="M233.195 125.157C231.162 124.129 230.543 121.217 231.734 118.529C231.671 118.64 231.608 118.752 231.551 118.867C230.145 121.644 230.727 124.768 232.848 125.839C234.97 126.91 237.83 125.532 239.236 122.752C239.294 122.638 239.348 122.523 239.399 122.406C237.939 124.957 235.231 126.185 233.195 125.157Z" fill="black"/>
<path opacity="0.1" d="M230.171 131.133C228.138 130.105 227.52 127.193 228.711 124.507C228.648 124.616 228.585 124.728 228.527 124.845C227.122 127.622 227.706 130.743 229.827 131.817C231.949 132.891 234.807 131.508 236.212 128.731C236.27 128.616 236.324 128.499 236.376 128.384C234.918 130.935 232.207 132.164 230.171 131.133Z" fill="black"/>
<path opacity="0.1" d="M227.159 137.126C225.123 136.098 224.507 133.186 225.696 130.5C225.633 130.609 225.573 130.72 225.512 130.835C224.109 133.612 224.691 136.736 226.812 137.81C228.934 138.884 231.795 137.501 233.198 134.72C233.258 134.606 233.309 134.491 233.361 134.374C231.895 136.911 229.183 138.139 227.159 137.126Z" fill="black"/>
<path opacity="0.1" d="M224.126 143.087C222.091 142.059 221.475 139.147 222.663 136.461C222.6 136.57 222.54 136.682 222.483 136.799C221.077 139.577 221.658 142.698 223.78 143.771C225.902 144.845 228.762 143.462 230.168 140.685C230.225 140.57 230.28 140.453 230.331 140.338C228.877 142.89 226.159 144.118 224.126 143.087Z" fill="black"/>
<path opacity="0.1" d="M221.103 149.066C219.07 148.038 218.451 145.126 219.643 142.44C219.58 142.549 219.517 142.66 219.459 142.775C218.053 145.552 218.635 148.676 220.759 149.75C222.884 150.824 225.727 149.438 227.159 146.66C227.216 146.546 227.27 146.431 227.322 146.314C225.847 148.865 223.15 150.094 221.103 149.066Z" fill="black"/>
<path opacity="0.1" d="M218.079 155.041C216.046 154.013 215.428 151.101 216.619 148.416C216.556 148.527 216.496 148.636 216.436 148.754C215.033 151.531 215.614 154.652 217.736 155.726C219.857 156.799 222.718 155.416 224.121 152.639C224.181 152.524 224.233 152.407 224.284 152.293C222.827 154.844 220.115 156.072 218.079 155.041Z" fill="black"/>
<path opacity="0.1" d="M215.059 161.02C213.023 159.992 212.407 157.08 213.595 154.394C213.532 154.503 213.472 154.615 213.415 154.729C212.009 157.507 212.59 160.63 214.712 161.704C216.834 162.778 219.694 161.395 221.1 158.615C221.157 158.5 221.209 158.386 221.26 158.268C219.803 160.819 217.091 162.036 215.059 161.02Z" fill="black"/>
<path opacity="0.1" d="M213.072 164.948C211.039 163.917 210.42 161.008 211.611 158.32C211.548 158.431 211.485 158.543 211.428 158.658C210.022 161.435 210.604 164.559 212.725 165.63C214.847 166.701 217.707 165.323 219.113 162.543C219.171 162.429 219.225 162.314 219.276 162.197C217.816 164.748 215.105 165.976 213.072 164.948Z" fill="black"/>
<path d="M267.7 138.345C268.015 137.441 268.208 136.498 268.273 135.542C268.483 135.542 268.691 135.498 268.884 135.413C269.076 135.329 269.249 135.206 269.392 135.051C269.535 134.897 269.644 134.715 269.713 134.516C269.782 134.317 269.81 134.107 269.794 133.897C269.778 133.687 269.719 133.483 269.62 133.297C269.522 133.111 269.386 132.948 269.222 132.817C269.057 132.686 268.867 132.59 268.664 132.536C268.461 132.482 268.249 132.47 268.041 132.501C267.7 130.952 267.019 129.497 266.046 128.244C265.074 126.99 263.834 125.969 262.417 125.254C262.6 124.892 262.632 124.472 262.505 124.087C262.378 123.701 262.104 123.382 261.742 123.199C261.379 123.016 260.959 122.984 260.574 123.111C260.188 123.237 259.869 123.512 259.686 123.874C259.619 124.003 259.573 124.141 259.548 124.284C257.868 123.971 256.138 124.063 254.501 124.554C252.864 125.045 251.368 125.919 250.137 127.104C249.207 126.954 248.262 126.926 247.325 127.021L246.085 132.665L246.011 127.224C244.588 127.536 243.243 128.135 242.059 128.984C240.876 129.833 239.878 130.915 239.126 132.163C238.375 133.411 237.885 134.799 237.689 136.243C237.492 137.686 237.591 139.154 237.981 140.558C238.371 141.962 239.043 143.271 239.956 144.406C240.869 145.541 242.004 146.478 243.292 147.16C244.579 147.841 245.992 148.253 247.444 148.37C248.897 148.487 250.357 148.307 251.737 147.84C251.885 148.106 252.109 148.322 252.381 148.459C252.662 148.601 252.979 148.653 253.291 148.609C253.602 148.564 253.892 148.425 254.121 148.209C254.35 147.994 254.507 147.713 254.571 147.405C254.635 147.097 254.602 146.777 254.477 146.489C254.966 146.153 255.426 145.778 255.852 145.366C258.087 145.73 260.38 145.376 262.402 144.356C264.424 143.336 266.071 141.702 267.107 139.688L261.338 138.718L267.7 138.345Z" fill="#6C63FF"/>
<g opacity="0.1">
<path d="M258.787 141.086C256.657 138.274 255.351 134.944 253.848 131.748C253.244 130.437 252.568 129.16 251.823 127.923L250.695 126.609C250.506 126.769 250.317 126.935 250.122 127.11C249.193 126.96 248.248 126.932 247.311 127.027L246.071 132.67L245.996 127.23C244.573 127.542 243.229 128.141 242.045 128.99C240.862 129.839 239.863 130.921 239.112 132.169C238.36 133.417 237.871 134.805 237.674 136.248C237.478 137.692 237.577 139.16 237.967 140.564C238.357 141.967 239.029 143.277 239.942 144.412C240.855 145.547 241.99 146.484 243.278 147.166C244.565 147.847 245.978 148.259 247.43 148.376C248.882 148.493 250.343 148.313 251.723 147.846C251.871 148.112 252.095 148.328 252.367 148.464C252.648 148.607 252.965 148.659 253.276 148.615C253.588 148.57 253.878 148.431 254.107 148.215C254.336 148 254.493 147.719 254.557 147.411C254.621 147.103 254.588 146.783 254.463 146.494C254.952 146.159 255.411 145.784 255.838 145.372C258.026 145.726 260.271 145.394 262.263 144.421C260.933 143.503 259.759 142.377 258.787 141.086Z" fill="black"/>
</g>
<path d="M221.063 129.003C221.181 128.769 221.237 128.509 221.226 128.248C221.215 127.987 221.137 127.732 221 127.51C220.863 127.287 220.67 127.103 220.442 126.976C220.213 126.849 219.956 126.783 219.694 126.783C219.26 124.482 218.083 122.387 216.344 120.819C216.624 119.726 216.731 118.595 216.659 117.469L211.033 116.51L216.496 116.166C216.398 115.653 216.263 115.148 216.092 114.655C216.305 114.508 216.478 114.311 216.596 114.082C216.734 113.808 216.787 113.5 216.747 113.196C216.708 112.892 216.578 112.607 216.375 112.377C216.171 112.148 215.904 111.985 215.607 111.909C215.31 111.833 214.998 111.848 214.709 111.952C213.262 109.907 211.145 108.434 208.725 107.789C206.305 107.143 203.735 107.366 201.462 108.418C199.189 109.47 197.357 111.285 196.283 113.548C195.209 115.811 194.963 118.379 195.585 120.805C195.254 120.945 194.984 121.199 194.824 121.521C194.683 121.798 194.631 122.112 194.673 122.419C194.715 122.727 194.85 123.015 195.06 123.244C195.27 123.474 195.545 123.633 195.848 123.702C196.151 123.772 196.468 123.747 196.756 123.631C197.306 124.553 197.99 125.388 198.787 126.108C198.207 128.369 198.382 130.758 199.285 132.911L206.829 130.952L200.101 134.491C201.29 136.382 203.041 137.853 205.108 138.7C207.176 139.546 209.456 139.726 211.63 139.213C213.804 138.7 215.763 137.52 217.234 135.839C218.704 134.158 219.613 132.059 219.832 129.836C220.091 129.813 220.34 129.725 220.556 129.579C220.771 129.433 220.946 129.235 221.063 129.003Z" fill="#6C63FF"/>
<path opacity="0.1" d="M221.063 129.003C221.181 128.769 221.237 128.509 221.226 128.248C221.215 127.987 221.137 127.733 221 127.51C220.862 127.287 220.67 127.104 220.442 126.976C220.213 126.849 219.956 126.783 219.694 126.784C219.26 124.482 218.083 122.387 216.344 120.819C216.39 120.639 216.43 120.461 216.464 120.281C216.265 120.426 216.079 120.59 215.912 120.771C214.895 121.884 214.374 123.382 213.369 124.507C212.184 125.836 210.408 126.529 208.636 126.715C206.864 126.901 205.08 126.629 203.33 126.288C201.882 126.002 200.413 125.67 198.944 125.81C198.801 125.81 198.658 125.842 198.526 125.864C198.612 125.947 198.698 126.03 198.786 126.111C198.206 128.372 198.381 130.761 199.285 132.914L206.829 130.952L200.101 134.491C201.29 136.382 203.041 137.853 205.108 138.7C207.175 139.546 209.455 139.726 211.629 139.213C213.803 138.7 215.763 137.52 217.233 135.839C218.704 134.158 219.612 132.059 219.832 129.836C220.091 129.813 220.34 129.725 220.555 129.579C220.771 129.433 220.946 129.235 221.063 129.003Z" fill="black"/>
</g>
<g opacity="0.1">
<path d="M25.6234 146.383C25.9899 145.269 27.476 144.756 28.942 145.237C29.1528 145.307 29.357 145.395 29.5519 145.501C29.6463 145.475 29.7437 145.452 29.8382 145.435C29.7577 145.115 29.7268 144.785 29.7466 144.456C29.2433 144.115 28.8353 143.652 28.5612 143.11C28.2871 142.568 28.156 141.965 28.1803 141.358C27.6727 141.024 27.2635 140.56 26.9949 140.015C26.7151 139.475 26.5837 138.87 26.6141 138.262C26.1068 137.927 25.6978 137.462 25.4287 136.917C24.7244 135.519 25.0107 133.947 26.0844 133.403C27.1581 132.859 28.5955 133.561 29.3028 134.958C29.5821 135.499 29.7125 136.105 29.6807 136.713C30.1853 137.052 30.5944 137.514 30.8687 138.056C31.143 138.598 31.2732 139.202 31.2469 139.809C31.7513 140.148 32.1603 140.611 32.4345 141.153C32.7087 141.696 32.8391 142.299 32.8131 142.907C33.3177 143.245 33.7268 143.707 34.0011 144.249C34.2754 144.791 34.4057 145.395 34.3794 146.002C34.8877 146.337 35.2978 146.802 35.5676 147.348C35.6964 147.612 35.7925 147.891 35.854 148.178C36.0303 147.918 36.2457 147.688 36.4925 147.494C36.5219 147.273 36.5717 147.055 36.6414 146.844C37.1253 145.378 38.4166 144.484 39.5304 144.839C40.6442 145.194 41.1539 146.692 40.6757 148.158C40.4781 148.787 40.0985 149.344 39.5848 149.758C39.5551 149.978 39.5052 150.195 39.4359 150.406C39.2009 151.183 38.6774 151.84 37.9728 152.244C38.028 152.431 38.0682 152.623 38.093 152.816C38.3887 153.1 38.6337 153.432 38.8175 153.799C39.0048 154.164 39.1269 154.559 39.1782 154.967C39.475 155.25 39.7209 155.582 39.9055 155.949C40.0925 156.315 40.2145 156.71 40.2663 157.117C40.5637 157.401 40.8098 157.734 40.9936 158.102C41.7008 159.499 41.4087 161.074 40.3407 161.613C39.2727 162.151 37.8296 161.458 37.1224 160.058C36.9359 159.692 36.8139 159.297 36.7616 158.89C36.1651 158.317 35.7813 157.559 35.6736 156.739C35.077 156.167 34.6932 155.408 34.5855 154.589C34.289 154.305 34.0431 153.973 33.8582 153.607C33.6731 153.24 33.5511 152.845 33.4975 152.439C33.2019 152.155 32.9569 151.823 32.7731 151.456C32.5857 151.091 32.4636 150.696 32.4123 150.288C32.2279 150.116 32.0637 149.924 31.9227 149.716C31.3336 149.836 30.7231 149.799 30.1532 149.607C29.9415 149.536 29.7365 149.447 29.5404 149.34C28.9036 149.51 28.2309 149.486 27.6077 149.272C26.156 148.788 25.2598 147.497 25.6234 146.383Z" fill="#3F3D56"/>
<g opacity="0.1">
<path d="M28.209 141.993C28.3608 142.143 28.5278 142.276 28.7072 142.391C28.6829 142.803 28.7374 143.215 28.8675 143.605C28.7525 143.449 28.651 143.284 28.564 143.11C28.3849 142.76 28.265 142.383 28.209 141.993Z" fill="black"/>
<path d="M26.6431 138.901C26.7956 139.049 26.9625 139.181 27.1413 139.296C27.1172 139.708 27.1716 140.121 27.3016 140.513C26.9548 140.037 26.7288 139.484 26.6431 138.901Z" fill="black"/>
<path d="M30.2021 137.747C30.2157 137.535 30.2081 137.322 30.1792 137.111C30.4591 137.388 30.6922 137.708 30.8693 138.059C30.9557 138.233 31.0285 138.413 31.0869 138.597C30.8483 138.261 30.5481 137.972 30.2021 137.747Z" fill="black"/>
<path d="M40.1376 156.49C40.0125 156.315 39.8705 156.152 39.7139 156.003C39.6877 155.809 39.6456 155.618 39.5879 155.431C39.7122 155.599 39.8223 155.777 39.9172 155.963C40.004 156.133 40.0778 156.309 40.1376 156.49Z" fill="black"/>
<path d="M39.0411 154.34C38.9159 154.164 38.774 154.001 38.6173 153.853C38.5939 153.659 38.5537 153.467 38.4971 153.28C38.733 153.6 38.9148 153.956 39.0354 154.334L39.0411 154.34Z" fill="black"/>
<path d="M29.7783 145.097C29.9286 145.246 30.0947 145.377 30.2736 145.489C30.2522 145.819 30.2831 146.149 30.3652 146.469C30.2687 146.486 30.1732 146.508 30.0789 146.534C29.8828 146.429 29.6778 146.341 29.4662 146.271C28.0002 145.79 26.5141 146.303 26.1505 147.416C26.0594 147.694 26.0426 147.99 26.1018 148.275C25.8662 148.028 25.6987 147.723 25.6154 147.392C25.5321 147.06 25.536 146.712 25.6265 146.383C25.993 145.269 27.4791 144.756 28.9451 145.237C29.1559 145.307 29.3601 145.395 29.5549 145.501C29.6494 145.475 29.7468 145.452 29.8413 145.435C29.8137 145.324 29.7927 145.211 29.7783 145.097Z" fill="black"/>
<path d="M40.6758 157.57C40.8007 157.738 40.9108 157.917 41.0051 158.105C41.0925 158.278 41.1662 158.458 41.2255 158.643C41.1004 158.467 40.9584 158.303 40.8018 158.154C40.7763 157.956 40.7341 157.76 40.6758 157.57Z" fill="black"/>
<path d="M31.768 140.848C31.7817 140.636 31.774 140.423 31.7451 140.212C32.0257 140.488 32.2588 140.808 32.4352 141.16C32.5216 141.333 32.5944 141.512 32.6528 141.696C32.4141 141.36 32.1139 141.072 31.768 140.848Z" fill="black"/>
<path d="M34.0333 153.475C34.0601 153.689 34.107 153.9 34.1736 154.105C33.935 153.778 33.753 153.413 33.6353 153.026C33.7542 153.187 33.8874 153.338 34.0333 153.475Z" fill="black"/>
<path d="M36.2062 157.776C36.235 157.99 36.283 158.2 36.3493 158.406C36.2343 158.25 36.1327 158.084 36.0458 157.91C35.9517 157.726 35.8731 157.535 35.811 157.338C35.9309 157.494 36.0631 157.64 36.2062 157.776Z" fill="black"/>
<path d="M35.1211 155.625C35.1479 155.839 35.1949 156.05 35.2614 156.255C35.1474 156.098 35.0459 155.933 34.9579 155.76C34.8634 155.576 34.7849 155.385 34.7231 155.187C34.8426 155.345 34.9758 155.491 35.1211 155.625Z" fill="black"/>
<path d="M32.9452 151.322C32.9717 151.537 33.0187 151.749 33.0855 151.955C32.9769 151.798 32.8812 151.632 32.7992 151.459C32.7032 151.276 32.6237 151.084 32.5615 150.887C32.6759 151.043 32.8043 151.189 32.9452 151.322Z" fill="black"/>
<path d="M40.0662 145.885C38.9523 145.518 37.661 146.411 37.18 147.889C37.1103 148.1 37.0605 148.318 37.0311 148.539C36.7834 148.732 36.5671 148.961 36.3897 149.22C36.3232 148.932 36.2223 148.654 36.0891 148.39C36.0404 148.293 35.986 148.198 35.9287 148.104C36.0912 147.878 36.2839 147.676 36.5014 147.502C36.5308 147.282 36.5806 147.064 36.6503 146.852C37.1342 145.386 38.4255 144.493 39.5393 144.848C39.8587 144.971 40.141 145.174 40.3587 145.438C40.5765 145.702 40.7223 146.017 40.782 146.354C40.5874 146.139 40.341 145.977 40.0662 145.885Z" fill="black"/>
<path d="M34.9008 147.038C34.9145 146.826 34.9068 146.613 34.8779 146.403C35.1585 146.679 35.3917 146.999 35.568 147.351C35.6544 147.524 35.7272 147.704 35.7856 147.889C35.5477 147.551 35.2474 147.263 34.9008 147.038Z" fill="black"/>
<path d="M33.3344 143.94C33.348 143.728 33.3403 143.515 33.3115 143.305C33.5908 143.582 33.8238 143.902 34.0016 144.252C34.088 144.426 34.1608 144.606 34.2192 144.791C33.9806 144.454 33.6804 144.165 33.3344 143.94Z" fill="black"/>
<path d="M37.2945 159.926C37.322 160.141 37.37 160.353 37.4377 160.559C37.3233 160.401 37.2218 160.235 37.1342 160.061C37.04 159.877 36.9615 159.685 36.8994 159.488C37.0193 159.644 37.1515 159.791 37.2945 159.926Z" fill="black"/>
</g>
<path d="M23.4849 132.069C22.9773 131.735 22.568 131.271 22.2995 130.726C21.5923 129.326 21.8843 127.754 22.9523 127.213C24.0203 126.672 25.4634 127.368 26.1707 128.768C26.4504 129.308 26.5809 129.913 26.5486 130.52C27.0531 130.859 27.462 131.322 27.7362 131.865C28.0104 132.407 28.1408 133.011 28.1148 133.618C28.6228 133.953 29.0329 134.416 29.3031 134.961C29.389 135.133 29.4618 135.311 29.5207 135.494C29.1414 134.952 28.5954 134.55 27.966 134.348C27.8958 134.572 27.7819 134.779 27.6307 134.959C27.4794 135.138 27.2941 135.285 27.0853 135.391C26.8766 135.498 26.6487 135.562 26.4149 135.58C26.1812 135.597 25.9463 135.568 25.724 135.494C25.5117 136.12 25.5117 136.8 25.724 137.426C25.6164 137.271 25.5207 137.107 25.4377 136.937C25.1579 136.397 25.0264 135.792 25.0569 135.184C24.553 134.845 24.1446 134.382 23.8704 133.839C23.5962 133.297 23.4655 132.693 23.4906 132.086L23.4849 132.069Z" fill="#3F3D56"/>
<path d="M6.27083 112.215C5.83649 112.012 5.41652 111.78 5.01384 111.519L9.67528 108.112L4.19494 110.932C3.08689 110.051 2.17027 108.953 1.50119 107.706C0.832117 106.458 0.424651 105.087 0.303734 103.677L9.62087 103.774L0.283691 102.211C0.364088 100.786 0.736954 99.3938 1.37906 98.1198C2.02117 96.8458 2.91875 95.7176 4.0159 94.8057C5.11304 93.8937 6.38624 93.2174 7.75616 92.819C9.12608 92.4205 10.5634 92.3085 11.9785 92.4898C13.3936 92.6711 14.7562 93.1418 15.9815 93.8727C17.2067 94.6037 18.2683 95.5791 19.1001 96.7382C19.9319 97.8973 20.5161 99.2153 20.8163 100.61C21.1165 102.005 21.1262 103.446 20.845 104.845C21.5213 105.158 22.1625 105.542 22.7576 105.99L17.89 112.759L23.734 106.838C24.9672 108.049 25.879 109.549 26.3869 111.201C26.8948 112.853 26.9829 114.606 26.6431 116.301C28.4109 117.125 29.9114 118.429 30.9728 120.065C32.0342 121.701 32.6138 123.603 32.6453 125.553C32.6768 127.502 32.1589 129.422 31.1509 131.091C30.1428 132.761 28.6853 134.113 26.945 134.993C25.2046 135.873 23.2518 136.246 21.3097 136.068C19.3676 135.89 17.5147 135.17 15.9628 133.989C14.411 132.808 13.2228 131.214 12.5342 129.389C11.8456 127.565 11.6844 125.583 12.069 123.671C9.95901 122.688 8.24046 121.024 7.18904 118.947C6.13761 116.871 5.81425 114.501 6.27083 112.218V112.215Z" fill="#6C63FF"/>
<path opacity="0.1" d="M25.7267 109.575C26.7827 111.653 27.1056 114.028 26.6429 116.312C28.4108 117.136 29.9112 118.44 30.9726 120.076C32.034 121.712 32.6136 123.614 32.6451 125.564C32.6766 127.514 32.1587 129.433 31.1507 131.103C30.1426 132.772 28.6851 134.124 26.9448 135.004C25.2045 135.884 23.2516 136.257 21.3095 136.079C19.3674 135.902 17.5145 135.181 15.9626 134C14.4108 132.819 13.2226 131.225 12.534 129.401C11.8454 127.576 11.6842 125.594 12.0688 123.683C10.0273 122.735 25.2027 108.536 25.7267 109.575Z" fill="black"/>
<path d="M14.0213 94.5372C14.8737 94.5372 15.5647 93.8462 15.5647 92.9939C15.5647 92.1415 14.8737 91.4506 14.0213 91.4506C13.169 91.4506 12.478 92.1415 12.478 92.9939C12.478 93.8462 13.169 94.5372 14.0213 94.5372Z" fill="#6C63FF"/>
<path d="M5.01353 95.5279C5.86587 95.5279 6.55684 94.8369 6.55684 93.9846C6.55684 93.1322 5.86587 92.4413 5.01353 92.4413C4.16118 92.4413 3.47021 93.1322 3.47021 93.9846C3.47021 94.8369 4.16118 95.5279 5.01353 95.5279Z" fill="#6C63FF"/>
<path d="M1.54331 109.383C2.39566 109.383 3.08662 108.692 3.08662 107.84C3.08662 106.988 2.39566 106.297 1.54331 106.297C0.690964 106.297 0 106.988 0 107.84C0 108.692 0.690964 109.383 1.54331 109.383Z" fill="#6C63FF"/>
<path d="M6.23032 116.304C7.08267 116.304 7.77364 115.613 7.77364 114.761C7.77364 113.908 7.08267 113.217 6.23032 113.217C5.37798 113.217 4.68701 113.908 4.68701 114.761C4.68701 115.613 5.37798 116.304 6.23032 116.304Z" fill="#6C63FF"/>
<path d="M12.6327 130.675C13.485 130.675 14.176 129.984 14.176 129.131C14.176 128.279 13.485 127.588 12.6327 127.588C11.7803 127.588 11.0894 128.279 11.0894 129.131C11.0894 129.984 11.7803 130.675 12.6327 130.675Z" fill="#6C63FF"/>
<path opacity="0.1" d="M12.6327 130.675C13.485 130.675 14.176 129.984 14.176 129.131C14.176 128.279 13.485 127.588 12.6327 127.588C11.7803 127.588 11.0894 128.279 11.0894 129.131C11.0894 129.984 11.7803 130.675 12.6327 130.675Z" fill="black"/>
<path d="M26.8719 114.397C27.7243 114.397 28.4152 113.706 28.4152 112.854C28.4152 112.001 27.7243 111.31 26.8719 111.31C26.0196 111.31 25.3286 112.001 25.3286 112.854C25.3286 113.706 26.0196 114.397 26.8719 114.397Z" fill="#6C63FF"/>
<path opacity="0.1" d="M26.8719 114.397C27.7243 114.397 28.4152 113.706 28.4152 112.854C28.4152 112.001 27.7243 111.31 26.8719 111.31C26.0196 111.31 25.3286 112.001 25.3286 112.854C25.3286 113.706 26.0196 114.397 26.8719 114.397Z" fill="black"/>
<path opacity="0.1" d="M28.5183 138.217C29.5434 137.698 29.8526 136.232 29.2542 134.878C29.2857 134.935 29.3172 134.99 29.3458 135.047C30.053 136.447 29.761 138.019 28.6901 138.56C27.6192 139.101 26.1819 138.406 25.4746 137.005C25.446 136.948 25.4174 136.891 25.3916 136.831C26.1275 138.116 27.4933 138.735 28.5183 138.217Z" fill="black"/>
<path opacity="0.1" d="M30.0389 141.229C31.0639 140.711 31.376 139.242 30.7776 137.89C30.8091 137.945 30.8406 138.002 30.8692 138.059C31.5765 139.459 31.2844 141.031 30.2135 141.572C29.1427 142.114 27.7053 141.418 26.9981 140.018C26.9666 139.96 26.9408 139.9 26.915 139.843C27.6509 141.134 29.0196 141.747 30.0389 141.229Z" fill="black"/>
<path opacity="0.1" d="M31.5618 144.238C32.5869 143.72 32.899 142.254 32.2977 140.9C32.3321 140.957 32.3607 141.011 32.3922 141.071C33.0994 142.469 32.8045 144.043 31.7365 144.582C30.6685 145.12 29.2283 144.427 28.521 143.027C28.4895 142.97 28.4638 142.912 28.438 142.852C29.171 144.138 30.5368 144.756 31.5618 144.238Z" fill="black"/>
<path opacity="0.1" d="M33.0853 147.25C34.1103 146.732 34.4224 145.266 33.8211 143.912C33.8526 143.966 33.8841 144.023 33.9128 144.081C34.6229 145.481 34.3279 147.053 33.2599 147.594C32.1919 148.135 30.7488 147.439 30.0416 146.039C30.013 145.982 29.9872 145.922 29.9614 145.865C30.6944 147.147 32.0602 147.769 33.0853 147.25Z" fill="black"/>
<path opacity="0.1" d="M34.6086 150.26C35.6337 149.741 35.9429 148.275 35.3445 146.924C35.376 146.978 35.4075 147.036 35.4361 147.093C36.1434 148.493 35.8513 150.065 34.7833 150.606C33.7153 151.147 32.2722 150.449 31.565 149.051C31.5363 148.991 31.5106 148.934 31.4819 148.877C32.2178 150.159 33.5836 150.778 34.6086 150.26Z" fill="black"/>
<path opacity="0.1" d="M36.1316 153.272C37.1566 152.754 37.4659 151.288 36.8675 149.933C36.899 149.99 36.9304 150.045 36.9591 150.102C37.6663 151.502 37.3743 153.074 36.3063 153.615C35.2382 154.157 33.7952 153.461 33.0879 152.061C33.0593 152.003 33.0307 151.946 33.0049 151.886C33.7407 153.16 35.1065 153.79 36.1316 153.272Z" fill="black"/>
<path opacity="0.1" d="M37.655 156.284C38.6772 155.766 38.9893 154.297 38.3909 152.945C38.4224 153 38.4539 153.057 38.4825 153.114C39.1898 154.515 38.8977 156.086 37.8268 156.628C36.756 157.169 35.3186 156.47 34.6114 155.073C34.5827 155.013 34.5541 154.955 34.5283 154.898C35.2642 156.181 36.63 156.802 37.655 156.284Z" fill="black"/>
<path opacity="0.1" d="M39.1756 159.293C40.2007 158.775 40.5128 157.309 39.9115 155.955C39.9458 156.012 39.9745 156.066 40.006 156.127C40.7132 157.524 40.4183 159.099 39.3503 159.637C38.2823 160.175 36.842 159.482 36.1348 158.082C36.1033 158.025 36.0775 157.968 36.0518 157.907C36.7876 159.193 38.1505 159.812 39.1756 159.293Z" fill="black"/>
<path opacity="0.1" d="M40.1863 161.272C41.2113 160.754 41.5206 159.288 40.9221 157.933C40.9536 157.99 40.9851 158.045 41.0138 158.105C41.721 159.502 41.4289 161.077 40.3609 161.615C39.2929 162.154 37.8498 161.461 37.1426 160.061C37.114 160.003 37.0853 159.946 37.0596 159.886C37.7868 161.177 39.1526 161.79 40.1863 161.272Z" fill="black"/>
<path d="M12.6588 147.872C12.4998 147.416 12.4035 146.941 12.3725 146.46C12.2666 146.46 12.162 146.437 12.065 146.395C11.9681 146.352 11.881 146.29 11.8092 146.212C11.7374 146.134 11.6824 146.043 11.6477 145.943C11.6129 145.843 11.5991 145.737 11.6072 145.631C11.6153 145.525 11.6451 145.423 11.6947 145.329C11.7443 145.236 11.8126 145.153 11.8954 145.087C11.9783 145.021 12.0738 144.973 12.1761 144.946C12.2784 144.918 12.3852 144.912 12.4899 144.928C12.6617 144.148 13.0049 143.415 13.4947 142.784C13.9844 142.153 14.6085 141.638 15.3217 141.277C15.2294 141.095 15.2135 140.883 15.2774 140.689C15.3413 140.494 15.4798 140.333 15.6624 140.241C15.845 140.149 16.0568 140.133 16.2512 140.197C16.4456 140.261 16.6067 140.399 16.6989 140.582C16.7324 140.646 16.7556 140.716 16.7676 140.788C17.6149 140.632 18.487 140.681 19.3116 140.93C20.1363 141.179 20.8896 141.621 21.5092 142.219C21.9825 142.142 22.464 142.129 22.9409 142.179L23.5651 145.02L23.5794 142.28C24.2893 142.444 24.9587 142.75 25.5471 143.18C26.1355 143.609 26.6309 144.154 27.0032 144.78C27.3755 145.407 27.6172 146.102 27.7136 146.824C27.81 147.546 27.7592 148.281 27.5642 148.983C27.3692 149.685 27.034 150.34 26.5789 150.909C26.1238 151.478 25.5582 151.949 24.9162 152.294C24.2742 152.638 23.569 152.849 22.8432 152.914C22.1175 152.979 21.3861 152.896 20.6932 152.67C20.6178 152.804 20.5054 152.912 20.3696 152.983C20.2281 153.054 20.0681 153.08 19.9112 153.058C19.7543 153.035 19.6081 152.965 19.4924 152.856C19.3768 152.748 19.2973 152.607 19.2647 152.451C19.2321 152.296 19.248 152.135 19.3102 151.989C19.0647 151.818 18.8339 151.626 18.6202 151.416C17.4939 151.599 16.3388 151.42 15.3204 150.906C14.302 150.391 13.4725 149.568 12.9509 148.553L15.8571 148.063L12.6588 147.872Z" fill="#6C63FF"/>
<g opacity="0.1">
<path d="M17.148 149.252C18.2217 147.82 18.8803 146.159 19.6362 144.55C19.9389 143.888 20.2792 143.244 20.6555 142.62L21.2282 141.959C21.3255 142.042 21.42 142.125 21.5145 142.211C21.9878 142.133 22.4693 142.12 22.9462 142.171L23.5704 145.011L23.5789 142.28C24.2889 142.444 24.9582 142.75 25.5467 143.18C26.1351 143.609 26.6304 144.154 27.0027 144.78C27.3751 145.407 27.6168 146.102 27.7132 146.824C27.8096 147.546 27.7587 148.281 27.5637 148.983C27.3687 149.685 27.0336 150.34 26.5785 150.909C26.1234 151.478 25.5578 151.949 24.9157 152.294C24.2737 152.638 23.5686 152.85 22.8428 152.914C22.117 152.979 21.3856 152.896 20.6927 152.671C20.6174 152.804 20.505 152.912 20.3692 152.983C20.2277 153.054 20.0676 153.08 19.9107 153.058C19.7538 153.035 19.6076 152.965 19.492 152.856C19.3764 152.748 19.2969 152.607 19.2643 152.451C19.2317 152.296 19.2476 152.135 19.3098 151.989C19.0643 151.818 18.8335 151.626 18.6197 151.416C17.5168 151.593 16.3861 151.426 15.3813 150.938C16.0572 150.475 16.6537 149.905 17.148 149.252Z" fill="black"/>
</g>
<path d="M36.152 143.164C36.1062 143.074 36.0787 142.976 36.071 142.875C36.0634 142.774 36.0758 142.673 36.1074 142.577C36.1391 142.481 36.1894 142.392 36.2556 142.315C36.3217 142.239 36.4023 142.176 36.4927 142.131C36.6008 142.075 36.7206 142.047 36.8421 142.048C37.0605 140.888 37.6529 139.832 38.5285 139.041C38.3869 138.491 38.3338 137.922 38.3711 137.355L41.2029 136.879L38.4512 136.705C38.5011 136.446 38.57 136.192 38.6574 135.943C38.5493 135.871 38.4615 135.773 38.4026 135.657C38.3337 135.519 38.3077 135.364 38.3278 135.211C38.3479 135.058 38.4132 134.915 38.5154 134.799C38.6176 134.684 38.752 134.601 38.9013 134.563C39.0505 134.524 39.2079 134.531 39.3532 134.583C39.8589 133.864 40.5346 133.28 41.3202 132.885C42.2456 132.416 43.2867 132.223 44.3188 132.33C45.3509 132.437 46.3302 132.84 47.1393 133.49C47.9483 134.14 48.5528 135.009 48.8802 135.994C49.2076 136.978 49.2441 138.036 48.9853 139.041C49.1199 139.099 49.2352 139.194 49.3178 139.315C49.4004 139.436 49.4468 139.578 49.4516 139.724C49.4564 139.87 49.4194 140.015 49.3449 140.141C49.2705 140.267 49.1616 140.369 49.0311 140.436C48.9332 140.485 48.8259 140.513 48.7163 140.518C48.6067 140.523 48.4974 140.505 48.3954 140.464C48.1191 140.928 47.7745 141.346 47.3732 141.707C47.6667 142.849 47.5792 144.055 47.1241 145.143L43.336 144.147L46.7233 145.93C46.2147 146.742 45.4995 147.404 44.6509 147.848C43.8024 148.292 42.851 148.502 41.8943 148.457C40.9377 148.412 40.0101 148.114 39.2069 147.592C38.4036 147.071 37.7534 146.345 37.3231 145.489C37.0235 144.894 36.8352 144.249 36.7676 143.585C36.6376 143.574 36.5128 143.529 36.405 143.455C36.2973 143.381 36.2102 143.281 36.152 143.164Z" fill="#6C63FF"/>
<path opacity="0.1" d="M36.152 143.164C36.1062 143.074 36.0787 142.976 36.071 142.875C36.0634 142.774 36.0758 142.673 36.1074 142.577C36.1391 142.481 36.1894 142.392 36.2556 142.315C36.3217 142.239 36.4023 142.176 36.4927 142.131C36.6008 142.075 36.7206 142.047 36.8421 142.048C37.0605 140.888 37.6529 139.832 38.5285 139.041C38.5056 138.952 38.4856 138.861 38.4684 138.772C38.5711 138.845 38.667 138.928 38.7547 139.018C39.2673 139.591 39.5307 140.333 40.0346 140.9C40.6661 141.551 41.515 141.947 42.4198 142.013C43.316 142.075 44.2164 142.003 45.0912 141.799C45.8127 141.613 46.557 141.531 47.3017 141.555L47.5135 141.584L47.3818 141.707C47.6753 142.849 47.5878 144.055 47.1327 145.143L43.336 144.146L46.7233 145.93C46.2147 146.742 45.4995 147.404 44.6509 147.848C43.8024 148.292 42.851 148.502 41.8943 148.457C40.9377 148.412 40.0101 148.114 39.2069 147.592C38.4036 147.071 37.7534 146.345 37.3231 145.489C37.0235 144.894 36.8352 144.249 36.7676 143.585C36.6376 143.574 36.5128 143.529 36.405 143.455C36.2973 143.381 36.2102 143.281 36.152 143.164Z" fill="black"/>
</g>
<path opacity="0.1" d="M99.17 14.8633C98.038 14.6484 96.8676 14.776 95.8085 15.2298C95.1732 15.5129 94.4854 15.6592 93.7899 15.6592C93.0943 15.6592 92.4066 15.5129 91.7712 15.2298C91.0203 14.9006 90.2069 14.7386 89.3872 14.7549C88.5675 14.7712 87.7611 14.9655 87.0239 15.3243C86.6029 15.5466 86.1342 15.6636 85.6581 15.665C83.734 15.665 82.1334 13.7266 81.8013 11.1696C82.1849 10.8884 82.5114 10.5366 82.7633 10.1331C83.8915 8.31495 85.6266 7.14673 87.5994 7.14673C89.5722 7.14673 91.2902 8.29204 92.4183 10.0988C92.7554 10.6414 93.2264 11.0881 93.786 11.396C94.3456 11.7039 94.9751 11.8626 95.6138 11.8568H95.6653C97.1829 11.8482 98.5086 13.0766 99.17 14.8633Z" fill="#6C63FF"/>
<path opacity="0.1" d="M105.017 6.84612L101.908 8.81893L103.794 5.38298C103.259 4.9566 102.597 4.72082 101.913 4.71297H101.865C101.649 4.71561 101.433 4.69932 101.22 4.66429L100.164 5.33431L100.616 4.51254C99.8716 4.25344 99.2269 3.76785 98.7722 3.12385L96.8796 4.30638L98.0707 2.13888C96.9683 0.813173 95.4794 0 93.8445 0C91.8831 0 90.1222 1.16822 89.0055 2.98641C88.6714 3.52949 88.1995 3.97449 87.6378 4.27622C87.0761 4.57795 86.4445 4.72567 85.8072 4.70438H85.7127C83.5481 4.70438 81.79 7.15822 81.79 10.1904C81.79 13.2227 83.5481 15.6736 85.7127 15.6736C86.1889 15.6722 86.6575 15.5553 87.0785 15.3329C87.8157 14.9738 88.6223 14.7796 89.4421 14.7638C90.2619 14.748 91.0754 14.9109 91.8259 15.2413C92.4614 15.5235 93.1491 15.6694 93.8445 15.6694C94.5399 15.6694 95.2276 15.5235 95.8631 15.2413C96.6079 14.9179 97.4135 14.7588 98.2253 14.7746C99.037 14.7904 99.8359 14.9808 100.567 15.3329C100.985 15.5493 101.448 15.6632 101.919 15.665C104.086 15.665 105.842 13.2112 105.842 10.1819C105.849 9.01857 105.566 7.87187 105.017 6.84612Z" fill="#6C63FF"/>
<path opacity="0.1" d="M34.4597 54.5313C32.8429 54.2254 31.1716 54.4068 29.658 55.0524C28.7497 55.4551 27.7667 55.6619 26.7731 55.6595C25.7796 55.657 24.7977 55.4453 23.8913 55.0381C22.8189 54.5679 21.6571 54.3364 20.4864 54.3597C19.3157 54.3829 18.164 54.6603 17.1111 55.1727C16.5089 55.4899 15.8389 55.6569 15.1583 55.6595C12.4096 55.6595 10.1218 52.8907 9.64648 49.2371C10.1958 48.8369 10.6624 48.3342 11.0209 47.7568C12.6329 45.1598 15.1297 43.4905 17.9328 43.4905C20.736 43.4905 23.2013 45.1397 24.8047 47.7081C25.2866 48.4865 25.9618 49.1269 26.7647 49.567C27.5675 50.007 28.4706 50.2317 29.386 50.2192H29.4576C31.6279 50.2163 33.5234 51.9715 34.4597 54.5313Z" fill="#6C63FF"/>
<path opacity="0.1" d="M42.8204 43.0639L38.3765 45.8814L41.0738 40.9766C40.3093 40.3664 39.3631 40.0288 38.3851 40.0174H38.3135C38.0048 40.0219 37.6962 39.9989 37.3916 39.9486L35.8912 40.9193L36.5383 39.7453C35.4706 39.3722 34.5484 38.6706 33.9041 37.741L31.2069 39.459L32.9048 36.338C31.3271 34.4454 29.2026 33.2858 26.8661 33.2858C24.063 33.2858 21.5662 34.9522 19.9541 37.5492C19.4767 38.3285 18.8011 38.9672 17.9963 39.4003C17.1915 39.8334 16.2863 40.0453 15.3729 40.0145H15.2211C12.1259 40.0145 9.61768 43.522 9.61768 47.8513C9.61768 52.1806 12.1259 55.6881 15.2211 55.6881C15.9022 55.6863 16.5725 55.5182 17.1739 55.1985C18.227 54.6866 19.3788 54.4097 20.5495 54.3869C21.7203 54.3642 22.882 54.5962 23.9542 55.0668C24.8605 55.474 25.8424 55.6857 26.836 55.6881C27.8295 55.6906 28.8125 55.4838 29.7208 55.0811C30.7851 54.6192 31.9363 54.3916 33.0963 54.4138C34.2564 54.4361 35.398 54.7076 36.4438 55.21C37.0395 55.5217 37.7014 55.6857 38.3737 55.6881C41.4689 55.6881 43.9771 52.1777 43.9771 47.8513C43.9987 46.1838 43.6009 44.5376 42.8204 43.0639Z" fill="#6C63FF"/>
<path opacity="0.1" d="M214.166 26.0302C215.298 25.8155 216.468 25.9431 217.527 26.3967C218.162 26.6799 218.849 26.8263 219.544 26.8263C220.239 26.8263 220.927 26.6799 221.561 26.3967C222.312 26.0675 223.126 25.9055 223.945 25.9218C224.765 25.9381 225.572 26.1324 226.309 26.4912C226.73 26.7132 227.198 26.8301 227.675 26.8319C229.599 26.8319 231.202 24.8935 231.534 22.3366C231.15 22.0561 230.823 21.7042 230.572 21.3C229.45 19.4761 227.695 18.2993 225.727 18.2993C223.76 18.2993 222.04 19.4446 220.911 21.2514C220.575 21.7964 220.104 22.2453 219.543 22.5548C218.982 22.8643 218.351 23.0238 217.71 23.018H217.662C216.138 23.0151 214.81 24.2435 214.166 26.0302Z" fill="#6C63FF"/>
<path opacity="0.1" d="M208.301 18.013L211.411 19.98L209.521 16.5441C210.056 16.1181 210.718 15.8824 211.402 15.8741H211.454C211.669 15.8766 211.885 15.8603 212.098 15.8254L213.152 16.4954L212.699 15.6737C213.449 15.4189 214.1 14.9351 214.56 14.2907L216.447 15.4875L215.253 13.32C216.358 11.9943 217.83 11.1812 219.482 11.1812C221.444 11.1812 223.205 12.3494 224.321 14.1676C224.655 14.7108 225.127 15.156 225.689 15.4578C226.251 15.7595 226.882 15.9071 227.52 15.8855H227.623C229.79 15.8855 231.545 18.3394 231.545 21.3716C231.545 24.4038 229.79 26.8548 227.623 26.8548C227.147 26.8527 226.678 26.7358 226.257 26.5141C225.52 26.155 224.713 25.9608 223.893 25.945C223.073 25.9292 222.26 26.0921 221.51 26.4224C220.874 26.7046 220.187 26.8504 219.492 26.8504C218.797 26.8504 218.11 26.7046 217.475 26.4224C216.73 26.099 215.924 25.9398 215.112 25.9556C214.299 25.9715 213.5 26.1619 212.768 26.5141C212.35 26.7308 211.887 26.8447 211.416 26.8462C209.252 26.8462 207.494 24.3924 207.494 21.363C207.478 20.1964 207.756 19.0445 208.301 18.013Z" fill="#6C63FF"/>
<path d="M159.039 189.515L108.018 188.86L108.169 187.551L110.635 165.965H155.442L158.738 187.551L158.99 189.189L159.039 189.515Z" fill="#D0D2D5"/>
<path opacity="0.1" d="M158.99 189.189H133.529L108.018 188.86L108.169 187.551H158.738L158.99 189.189Z" fill="black"/>
<path d="M167.216 187.88H99.5137V189.515H167.216V187.88Z" fill="#D0D2D5"/>
<path d="M231.809 36.3151C231.813 35.1869 231.369 34.1033 230.574 33.3023C229.78 32.5013 228.7 32.0484 227.571 32.0431H38.5028C37.9437 32.0457 37.3906 32.1584 36.875 32.3748C36.3594 32.5912 35.8916 32.9071 35.4981 33.3043C35.1045 33.7015 34.7931 34.1724 34.5816 34.69C34.3701 35.2075 34.2625 35.7617 34.2652 36.3208V150.924H231.809V36.3151Z" fill="#3F3D56"/>
<path d="M34.2651 149.779V163.202C34.2651 164.326 34.7116 165.403 35.5063 166.198C36.301 166.993 37.3789 167.439 38.5028 167.439H227.571C228.695 167.439 229.773 166.993 230.568 166.198C231.363 165.403 231.809 164.326 231.809 163.202V149.779H34.2651Z" fill="#D0D2D5"/>
<path d="M224.613 39.2299H42.4424V142.254H224.613V39.2299Z" fill="white"/>
<path d="M134.019 162.346C134.688 162.346 135.348 162.195 135.95 161.903C136.552 161.61 137.079 161.185 137.492 160.659C137.618 160.499 137.732 160.331 137.836 160.155L135.41 159.746L138.03 159.763C138.282 159.216 138.418 158.625 138.433 158.023C138.447 157.422 138.338 156.824 138.113 156.267L134.6 158.088L137.841 155.706C137.537 155.182 137.128 154.727 136.641 154.369C136.153 154.01 135.597 153.756 135.006 153.621C134.416 153.487 133.805 153.475 133.21 153.587C132.615 153.698 132.049 153.931 131.548 154.271C131.047 154.61 130.621 155.049 130.297 155.561C129.973 156.072 129.757 156.644 129.663 157.242C129.569 157.84 129.6 158.451 129.752 159.037C129.904 159.623 130.175 160.171 130.549 160.648C130.96 161.175 131.487 161.603 132.088 161.897C132.689 162.191 133.35 162.344 134.019 162.346Z" fill="#9D9D9D"/>
<path opacity="0.1" d="M138.434 167.437L158.789 187.88L155.665 167.437H138.434Z" fill="black"/>
<path opacity="0.1" d="M224.668 39.2413H42.2993V45.26H224.668V39.2413Z" fill="#444053"/>
<path opacity="0.3" d="M160.399 40.2893H105.784C105.693 40.2893 105.618 40.3637 105.618 40.4554V43.7854C105.618 43.8771 105.693 43.9514 105.784 43.9514H160.399C160.49 43.9514 160.565 43.8771 160.565 43.7854V40.4554C160.565 40.3637 160.49 40.2893 160.399 40.2893Z" fill="#6C63FF"/>
<path d="M158.932 42.4998H158.798L158.749 42.4569C158.916 42.2566 159.007 42.0044 159.007 41.7439C159.005 41.5301 158.94 41.3216 158.82 41.1447C158.7 40.9677 158.53 40.8304 158.332 40.7498C158.134 40.6693 157.917 40.6493 157.707 40.6922C157.498 40.7352 157.306 40.8392 157.155 40.9912C157.005 41.1432 156.903 41.3363 156.862 41.5462C156.821 41.7561 156.844 41.9734 156.926 42.1706C157.009 42.3678 157.148 42.5362 157.326 42.6544C157.504 42.7726 157.714 42.8354 157.927 42.8348C158.188 42.8339 158.44 42.7417 158.64 42.5742L158.689 42.6172V42.7518L159.528 43.5907L159.777 43.3387L158.932 42.4998ZM157.927 42.4998C157.778 42.5004 157.631 42.4565 157.507 42.3738C157.382 42.2911 157.285 42.1732 157.227 42.0352C157.169 41.8971 157.154 41.745 157.183 41.5982C157.212 41.4514 157.283 41.3164 157.389 41.2104C157.495 41.1044 157.629 41.0321 157.776 41.0027C157.923 40.9733 158.075 40.9881 158.213 41.0453C158.351 41.1024 158.47 41.1993 158.553 41.3236C158.636 41.448 158.68 41.5943 158.68 41.7439C158.681 41.8431 158.662 41.9415 158.625 42.0334C158.587 42.1253 158.532 42.2088 158.462 42.2791C158.392 42.3494 158.308 42.4051 158.217 42.443C158.125 42.4809 158.027 42.5002 157.927 42.4998Z" fill="#3F3D56"/>
<path opacity="0.8" d="M45.5779 43.353C46.1868 43.353 46.6803 42.8595 46.6803 42.2507C46.6803 41.6419 46.1868 41.1483 45.5779 41.1483C44.9691 41.1483 44.4756 41.6419 44.4756 42.2507C44.4756 42.8595 44.9691 43.353 45.5779 43.353Z" fill="#FA5959"/>
<path opacity="0.8" d="M48.6102 43.353C49.219 43.353 49.7125 42.8595 49.7125 42.2507C49.7125 41.6419 49.219 41.1483 48.6102 41.1483C48.0014 41.1483 47.5078 41.6419 47.5078 42.2507C47.5078 42.8595 48.0014 43.353 48.6102 43.353Z" fill="#FED253"/>
<path opacity="0.8" d="M51.6453 43.353C52.2542 43.353 52.7477 42.8595 52.7477 42.2507C52.7477 41.6419 52.2542 41.1483 51.6453 41.1483C51.0365 41.1483 50.543 41.6419 50.543 42.2507C50.543 42.8595 51.0365 43.353 51.6453 43.353Z" fill="#8CCF4D"/>
<path d="M177.818 71.6243H149.196C147.046 71.6243 145.304 73.1949 145.304 75.1323V75.1323C145.304 77.0697 147.046 78.6403 149.196 78.6403H177.818C179.968 78.6403 181.711 77.0697 181.711 75.1323C181.711 73.1949 179.968 71.6243 177.818 71.6243Z" fill="#E5E4F3"/>
<path d="M148.902 82.7747H209.55C211.538 82.7747 213.149 84.3205 213.149 86.2273C213.149 88.1342 211.538 89.68 209.55 89.68H148.902C146.915 89.68 145.304 88.1342 145.304 86.2273C145.304 84.3205 146.915 82.7747 148.902 82.7747Z" fill="#E5E4F3"/>
<path d="M148.902 93.8142H209.55C211.538 93.8142 213.149 95.36 213.149 97.2669C213.149 99.1738 211.538 100.72 209.55 100.72H148.902C146.915 100.72 145.304 99.1738 145.304 97.2669C145.304 95.36 146.915 93.8142 148.902 93.8142Z" fill="#E5E4F3"/>
<path d="M148.902 104.437H209.55C211.538 104.437 213.149 105.983 213.149 107.89C213.149 109.797 211.538 111.343 209.55 111.343H148.902C146.915 111.343 145.304 109.797 145.304 107.89C145.304 105.983 146.915 104.437 148.902 104.437Z" fill="#E5E4F3"/>
<ellipse cx="187.61" cy="75.3406" rx="4.05201" ry="3.71632" fill="#E5E4F3"/>
<path d="M81.293 213.226L85.0632 213.226L86.8571 198.682L81.292 198.682L81.293 213.226Z" fill="#FBBEBE"/>
<path d="M81.1603 217.159L92.755 217.159V217.012C92.7549 214.52 90.7344 212.499 88.2421 212.499L86.1239 210.893L82.1723 212.5L81.1602 212.5L81.1603 217.159Z" fill="#2F2E41"/>
<path d="M109.228 217.421L33.1001 217.455C32.9158 217.454 32.767 217.396 32.7676 217.323C32.7682 217.251 32.9167 217.193 33.1001 217.193L109.228 217.159C109.412 217.159 109.561 217.218 109.561 217.29C109.56 217.362 109.412 217.421 109.228 217.421Z" fill="#CACACA"/>
<path d="M51.0767 202.783L54.0924 205.045L64.2554 194.488L59.8038 191.149L51.0767 202.783Z" fill="#FBBEBE"/>
<path d="M48.6099 205.849L57.8847 212.807L57.9727 212.69C59.4683 210.696 59.0647 207.868 57.0711 206.372L56.341 203.815L52.2158 202.729L51.4061 202.122L48.6099 205.849Z" fill="#2F2E41"/>
<path d="M63.6102 144.977C63.6102 144.977 63.8183 150.654 64.0809 155.207C64.1239 155.954 62.3745 156.765 62.4198 157.578C62.4498 158.117 62.7787 158.641 62.8092 159.203C62.8415 159.796 62.3874 160.321 62.4198 160.934C62.4514 161.533 62.9693 162.221 63.0006 162.834C63.3368 169.435 64.5556 177.337 63.3351 179.546C62.7337 180.635 55.0669 195.718 55.0669 195.718C55.0669 195.718 59.3386 202.125 60.559 199.989C62.171 197.168 74.5945 183.971 74.5945 181.45C74.5945 178.933 77.4686 160.068 77.4686 160.068L79.4728 171.232L80.3917 173.444L80.103 174.743L80.6968 176.495L80.7289 178.23L81.3071 181.45C81.3071 181.45 79.5679 206.543 80.5473 207.242C81.5298 207.944 86.2866 209.204 86.848 207.944C87.4064 206.684 91.0408 181.755 91.0408 181.755C91.0408 181.755 91.6266 170.332 92.2613 159.714C92.2979 159.097 92.7312 158.353 92.7647 157.746C92.8044 157.041 92.5298 156.125 92.5664 155.442C92.6061 154.658 92.9539 154.106 92.9875 153.355C93.2468 147.555 91.7909 140.491 91.3272 139.796C89.9266 137.697 88.6665 136.018 88.6665 136.018C88.6665 136.018 69.8034 129.821 64.7628 136.118L63.6102 144.977Z" fill="#2F2E41"/>
<path d="M82.4237 86.5921L74.946 85.0966L71.4563 89.8325C64.945 96.2349 64.8469 101.886 66.0093 110.943V123.655L65.168 132.177C65.168 132.177 62.1897 138.407 65.2615 139.857C68.3333 141.307 88.5102 141.184 90.4366 140.605C92.363 140.026 90.6932 139.315 90.1873 136.617C89.2371 131.548 89.8727 133.993 89.9381 132.379C90.8757 109.23 88.6918 99.7264 88.47 97.2284L84.6671 90.331L82.4237 86.5921Z" fill="#3F3D56"/>
<path d="M121.836 105.257C121.056 106.734 119.227 107.299 117.751 106.52C117.593 106.437 117.444 106.34 117.303 106.23L101.154 116.484L101.201 110.901L116.888 101.798C118.006 100.545 119.927 100.435 121.18 101.552C122.228 102.487 122.499 104.019 121.836 105.257Z" fill="#FBBEBE"/>
<path d="M76.5195 93.0574L74.681 92.8626C72.9822 92.6864 71.3155 93.4139 70.2897 94.7794C69.8968 95.2973 69.6146 95.8904 69.4606 96.5219L69.4595 96.527C68.9983 98.4279 69.7217 100.42 71.295 101.582L77.645 106.264C82.1013 112.285 90.4762 116.28 100.3 119.525L115.57 110.042L110.169 103.501L99.6954 109.114L84.1267 97.0621L84.1177 97.0548L78.1922 93.2372L76.5195 93.0574Z" fill="#3F3D56"/>
<path d="M79.8969 82.9202C84.7129 82.9202 88.617 79.0161 88.617 74.2001C88.617 69.3841 84.7129 65.48 79.8969 65.48C75.0809 65.48 71.1768 69.3841 71.1768 74.2001C71.1768 79.0161 75.0809 82.9202 79.8969 82.9202Z" fill="#FBBEBE"/>
<path d="M88.7282 65.8531C88.3693 66.9676 88.0489 65.5538 86.8682 65.8081C85.4478 66.114 83.7949 66.009 82.6317 65.1383C80.8986 63.8667 78.6526 63.5244 76.6193 64.2219C74.629 64.9261 71.2945 65.4226 70.7759 67.4691C70.5956 68.1804 70.524 68.9525 70.0871 69.542C69.705 70.0575 69.1021 70.3514 68.5978 70.7481C66.8953 72.0877 68.1966 75.8936 69.0024 77.9045C69.8082 79.9155 71.6567 81.3805 73.6889 82.1309C75.6553 82.8569 77.7895 82.9849 79.8871 82.9279C80.2519 81.9817 80.0943 80.8887 79.7933 79.9078C79.4674 78.8459 78.9848 77.821 78.8487 76.7186C78.7125 75.6161 79.0115 74.3639 79.9359 73.7479C80.7855 73.1817 82.1682 73.5266 82.4914 74.442C82.3028 73.2976 83.4621 72.1901 84.6575 71.9953C85.9409 71.7862 87.2243 72.2496 88.5041 72.4802C89.7838 72.7109 89.3296 67.3232 88.7282 65.8531Z" fill="#2F2E41"/>
<path d="M112.194 69.9581C112.457 69.214 112.944 68.5698 113.589 68.1143C114.234 67.6588 115.004 67.4144 115.793 67.4148H123.423C124.212 67.4144 124.982 67.6588 125.627 68.1143C126.271 68.5698 126.759 69.214 127.022 69.9581H128.51C129.521 69.9581 130.492 70.3601 131.207 71.0755C131.923 71.791 132.325 72.7614 132.325 73.7732V79.1142C129.171 77.4982 125.521 77.1395 122.113 78.1104C118.705 79.0814 115.792 81.3096 113.964 84.345C112.135 87.3804 111.527 90.9968 112.261 94.4635C112.996 97.9302 115.019 100.989 117.922 103.022H110.706C109.694 103.022 108.724 102.62 108.009 101.904C107.293 101.189 106.891 100.218 106.891 99.2066V73.7732C106.891 72.7614 107.293 71.791 108.009 71.0755C108.724 70.3601 109.694 69.9581 110.706 69.9581H112.194ZM115.793 69.9581C115.456 69.9581 115.132 70.0921 114.894 70.3306C114.655 70.5691 114.521 70.8925 114.521 71.2298C114.521 71.5671 114.655 71.8905 114.894 72.129C115.132 72.3675 115.456 72.5015 115.793 72.5015H123.423C123.76 72.5015 124.084 72.3675 124.322 72.129C124.561 71.8905 124.695 71.5671 124.695 71.2298C124.695 70.8925 124.561 70.5691 124.322 70.3306C124.084 70.0921 123.76 69.9581 123.423 69.9581H115.793ZM137.411 91.5766C137.411 93.0796 137.115 94.5678 136.54 95.9564C135.965 97.345 135.122 98.6067 134.059 99.6695C132.996 100.732 131.735 101.575 130.346 102.15C128.957 102.726 127.469 103.022 125.966 103.022C124.463 103.022 122.975 102.726 121.586 102.15C120.198 101.575 118.936 100.732 117.873 99.6695C116.811 98.6067 115.968 97.345 115.392 95.9564C114.817 94.5678 114.521 93.0796 114.521 91.5766C114.521 88.5412 115.727 85.6301 117.873 83.4837C120.02 81.3373 122.931 80.1315 125.966 80.1315C129.002 80.1315 131.913 81.3373 134.059 83.4837C136.205 85.6301 137.411 88.5412 137.411 91.5766ZM125.966 85.2182C125.629 85.2182 125.305 85.3522 125.067 85.5907C124.829 85.8292 124.695 86.1526 124.695 86.4899V91.5766C124.695 91.9139 124.829 92.2373 125.067 92.4758C125.305 92.7143 125.629 92.8483 125.966 92.8483C126.303 92.8483 126.627 92.7143 126.865 92.4758C127.104 92.2373 127.238 91.9139 127.238 91.5766V86.4899C127.238 86.1526 127.104 85.8292 126.865 85.5907C126.627 85.3522 126.303 85.2182 125.966 85.2182ZM125.966 98.2529C126.388 98.2529 126.792 98.0854 127.09 97.7873C127.388 97.4892 127.556 97.0849 127.556 96.6633C127.556 96.2417 127.388 95.8374 127.09 95.5393C126.792 95.2412 126.388 95.0737 125.966 95.0737C125.545 95.0737 125.14 95.2412 124.842 95.5393C124.544 95.8374 124.377 96.2417 124.377 96.6633C124.377 97.0849 124.544 97.4892 124.842 97.7873C125.14 98.0854 125.545 98.2529 125.966 98.2529Z" fill="#839FAF"/>
<path d="M112.681 72.154C113.207 73.7386 112.349 75.4497 110.764 75.9757C110.595 76.0318 110.422 76.0729 110.245 76.0984L106.465 94.8503L102.468 90.9517L106.759 73.3291C106.629 71.6554 107.88 70.1929 109.554 70.0625C110.954 69.9533 112.247 70.818 112.681 72.154Z" fill="#FBBEBE"/>
<path d="M72.5051 96.409L71.0917 97.6008C69.7885 98.7046 69.1596 100.411 69.4347 102.097C69.5364 102.739 69.7691 103.353 70.1182 103.901L70.1211 103.906C71.1735 105.554 73.1118 106.411 75.0396 106.081L82.8141 104.74C90.2442 105.693 98.925 102.415 108.068 97.5727L111.796 79.9882L103.337 79.3571L100.136 90.8011L80.6614 93.692L80.6499 93.6935L73.7928 95.3264L72.5051 96.409Z" fill="#3F3D56"/>
<path d="M186.958 116.733C187.318 112.383 184.084 108.566 179.735 108.206C175.386 107.846 171.568 111.08 171.208 115.429C170.848 119.778 174.082 123.596 178.431 123.956C182.781 124.316 186.598 121.082 186.958 116.733Z" fill="#BFBDDA"/>
<path d="M181.159 112.788L179.083 114.864L177.008 112.788C176.672 112.452 176.127 112.452 175.791 112.788C175.455 113.124 175.455 113.669 175.791 114.005L177.867 116.081L175.791 118.157C175.455 118.493 175.456 119.038 175.792 119.373C176.128 119.709 176.672 119.709 177.008 119.373L179.083 117.298L181.159 119.373C181.495 119.709 182.04 119.708 182.376 119.372C182.711 119.036 182.711 118.492 182.376 118.157L180.3 116.081L182.376 114.005C182.712 113.669 182.712 113.124 182.376 112.788C182.04 112.452 181.495 112.452 181.159 112.788Z" fill="white"/>
</g>
<defs>
<clipPath id="clip0_3466_1380">
<rect width="292.828" height="225" fill="white"/>
</clipPath>
</defs>
</svg>
