<svg width="19" height="16" viewBox="0 0 19 16" fill="none" xmlns="http://www.w3.org/2000/svg">
<path d="M16.4985 15.2897C16.4164 15.2898 16.335 15.2737 16.2591 15.2422C16.1832 15.2107 16.1143 15.1646 16.0564 15.1063L2.29601 1.34595C2.18366 1.2277 2.12196 1.07024 2.12404 0.907137C2.12613 0.744038 2.19185 0.588207 2.30719 0.472869C2.42253 0.357531 2.57836 0.291812 2.74146 0.289724C2.90456 0.287636 3.06202 0.349344 3.18027 0.461691L16.9407 14.2221C17.0281 14.3095 17.0876 14.421 17.1117 14.5423C17.1358 14.6635 17.1234 14.7893 17.0761 14.9035C17.0288 15.0178 16.9487 15.1154 16.8459 15.1842C16.7431 15.2529 16.6222 15.2896 16.4985 15.2897ZM9.60504 12.7878C7.98311 12.7878 6.41904 12.3077 4.95622 11.3609C3.62436 10.5009 2.4254 9.26912 1.48876 7.80356V7.80043C2.26825 6.68357 3.12202 5.73911 4.03912 4.9776C4.04742 4.97066 4.05419 4.96208 4.059 4.9524C4.06381 4.94271 4.06656 4.93213 4.06707 4.92133C4.06758 4.91053 4.06585 4.89974 4.06198 4.88964C4.05812 4.87954 4.05219 4.87036 4.04459 4.86267L3.26588 4.08513C3.25204 4.07118 3.23346 4.06295 3.21383 4.06208C3.1942 4.06121 3.17496 4.06776 3.15994 4.08044C2.18577 4.90137 1.28157 5.90838 0.459469 7.08739C0.318028 7.2904 0.240131 7.53087 0.235676 7.77825C0.231221 8.02563 0.30041 8.26875 0.43445 8.47672C1.46687 10.0924 2.79561 11.4532 4.27641 12.4113C5.94368 13.4914 7.73801 14.0387 9.60504 14.0387C10.6128 14.0356 11.6135 13.8695 12.5682 13.547C12.5808 13.5427 12.5921 13.5353 12.601 13.5254C12.61 13.5156 12.6162 13.5036 12.6192 13.4906C12.6223 13.4777 12.6219 13.4642 12.6183 13.4514C12.6146 13.4386 12.6077 13.4269 12.5983 13.4176L11.7547 12.574C11.7353 12.555 11.7113 12.5414 11.685 12.5346C11.6588 12.5277 11.6312 12.5278 11.605 12.5349C10.9517 12.7031 10.2797 12.7881 9.60504 12.7878ZM18.7987 7.10381C17.7643 5.50417 16.4223 4.14533 14.918 3.17389C13.2539 2.09808 11.4166 1.52929 9.60504 1.52929C8.60795 1.53106 7.61826 1.70061 6.67744 2.03084C6.66491 2.03521 6.65369 2.04269 6.64484 2.05258C6.636 2.06248 6.62982 2.07446 6.62688 2.08741C6.62395 2.10035 6.62436 2.11383 6.62808 2.12657C6.63179 2.13931 6.63869 2.1509 6.64812 2.16024L7.49055 3.00267C7.51017 3.02195 7.53451 3.03571 7.56114 3.04258C7.58777 3.04944 7.61574 3.04916 7.64223 3.04176C8.28215 2.86865 8.94212 2.78072 9.60504 2.78024C11.1957 2.78024 12.7551 3.26615 14.2394 4.22664C15.5963 5.1023 16.8093 6.33292 17.7483 7.78401C17.749 7.7849 17.7494 7.786 17.7494 7.78714C17.7494 7.78827 17.749 7.78937 17.7483 7.79027C17.0667 8.86331 16.2209 9.82271 15.2417 10.6334C15.2333 10.6403 15.2265 10.6489 15.2216 10.6586C15.2167 10.6683 15.2139 10.6789 15.2134 10.6898C15.2128 10.7006 15.2145 10.7115 15.2184 10.7216C15.2223 10.7318 15.2282 10.741 15.2359 10.7487L16.0138 11.5263C16.0275 11.5402 16.046 11.5484 16.0656 11.5494C16.0851 11.5503 16.1043 11.5439 16.1193 11.5314C17.1647 10.6512 18.0695 9.61665 18.8026 8.46343C18.9322 8.26021 19.0007 8.02406 19 7.78305C18.9993 7.54203 18.9294 7.30628 18.7987 7.10381Z" fill="#A5A5A5"/>
<path d="M9.61837 4.03113C9.33727 4.03098 9.05704 4.06245 8.78297 4.12495C8.76913 4.12782 8.75632 4.1344 8.74592 4.14397C8.73552 4.15355 8.72791 4.16576 8.7239 4.17932C8.71988 4.19288 8.71963 4.20727 8.72314 4.22096C8.72666 4.23465 8.73383 4.24714 8.74388 4.25708L13.1452 8.65727C13.1552 8.66732 13.1677 8.67449 13.1814 8.67801C13.1951 8.68153 13.2094 8.68127 13.223 8.67726C13.2366 8.67325 13.2488 8.66564 13.2584 8.65523C13.2679 8.64483 13.2745 8.63202 13.2774 8.61818C13.4027 8.06856 13.4026 7.49778 13.277 6.94821C13.1515 6.39865 12.9038 5.88442 12.5522 5.44373C12.2007 5.00304 11.7544 4.64721 11.2465 4.40266C10.7386 4.1581 10.1821 4.03112 9.61837 4.03113ZM6.09149 6.91064C6.08155 6.90059 6.06906 6.89343 6.05537 6.88991C6.04168 6.88639 6.02729 6.88665 6.01373 6.89066C6.00017 6.89467 5.98795 6.90228 5.97838 6.91269C5.96881 6.92309 5.96223 6.93589 5.95936 6.94974C5.81759 7.56909 5.83539 8.2143 6.01109 8.82489C6.1868 9.43548 6.51465 9.99147 6.96392 10.4407C7.4132 10.89 7.96919 11.2179 8.57978 11.3936C9.19038 11.5693 9.83558 11.5871 10.4549 11.4453C10.4688 11.4424 10.4816 11.4359 10.492 11.4263C10.5024 11.4167 10.51 11.4045 10.514 11.3909C10.518 11.3774 10.5183 11.363 10.5148 11.3493C10.5112 11.3356 10.5041 11.3231 10.494 11.3132L6.09149 6.91064Z" fill="#A5A5A5"/>
</svg>
