<svg width="24" height="16" viewBox="0 0 24 16" fill="none" xmlns="http://www.w3.org/2000/svg">
<path d="M23.5595 8.08764C23.5268 8.01264 22.7268 6.2386 20.9403 4.45206C19.2826 2.79629 16.4345 0.821289 12.2634 0.821289C8.09222 0.821289 5.24414 2.79629 3.58645 4.45206C1.79991 6.2386 0.99991 8.00975 0.967218 8.08764C0.934345 8.16148 0.917358 8.24142 0.917358 8.32225C0.917358 8.40308 0.934345 8.48302 0.967218 8.55687C0.99991 8.6309 1.79991 10.4049 3.58645 12.1915C5.24414 13.8473 8.09222 15.8213 12.2634 15.8213C16.4345 15.8213 19.2826 13.8473 20.9403 12.1915C22.7268 10.4049 23.5268 8.63379 23.5595 8.55687C23.5924 8.48302 23.6094 8.40308 23.6094 8.32225C23.6094 8.24142 23.5924 8.16148 23.5595 8.08764ZM12.2634 14.6674C9.24606 14.6674 6.61145 13.5694 4.43164 11.4049C3.51787 10.4968 2.74462 9.4575 2.13741 8.32129C2.74445 7.18526 3.51772 6.14624 4.43164 5.2386C6.61145 3.07321 9.24606 1.97514 12.2634 1.97514C15.2807 1.97514 17.9153 3.07321 20.0951 5.2386C21.009 6.14624 21.7823 7.18526 22.3893 8.32129C21.7768 9.49533 18.7057 14.6674 12.2634 14.6674ZM12.2634 3.89821C11.3886 3.89821 10.5334 4.15762 9.80604 4.64363C9.07867 5.12965 8.51175 5.82044 8.17698 6.62865C7.84221 7.43686 7.75462 8.3262 7.92528 9.18419C8.09595 10.0422 8.51721 10.8303 9.13578 11.4489C9.75436 12.0675 10.5425 12.4887 11.4005 12.6594C12.2585 12.83 13.1478 12.7425 13.956 12.4077C14.7642 12.0729 15.455 11.506 15.941 10.7786C16.427 10.0512 16.6864 9.19609 16.6864 8.32129C16.6849 7.14868 16.2184 6.02454 15.3893 5.19539C14.5601 4.36623 13.436 3.89974 12.2634 3.89821ZM12.2634 11.5905C11.6168 11.5905 10.9847 11.3988 10.4471 11.0396C9.90946 10.6803 9.49044 10.1697 9.243 9.57237C8.99556 8.975 8.93081 8.31766 9.05696 7.68349C9.1831 7.04933 9.49447 6.4668 9.95168 6.00959C10.4089 5.55238 10.9914 5.24102 11.6256 5.11488C12.2597 4.98873 12.9171 5.05347 13.5145 5.30091C14.1118 5.54835 14.6224 5.96738 14.9816 6.505C15.3409 7.04262 15.5326 7.6747 15.5326 8.32129C15.5326 9.18834 15.1882 10.0199 14.5751 10.633C13.962 11.2461 13.1304 11.5905 12.2634 11.5905Z" fill="#A5A5A5"/>
</svg>
