<svg width="20" height="20" viewBox="0 0 20 20" fill="none" xmlns="http://www.w3.org/2000/svg">
<g id="Group 2120">
<g id="Group 2100">
<g id="Group 2098">
<g id="Group 2097">
<path id="Polygon 1" d="M15.4241 19.3349C15.2277 19.6442 14.7763 19.6442 14.5799 19.3349L11.1597 13.9495C10.9483 13.6166 11.1874 13.1815 11.5818 13.1815H18.4222C18.8166 13.1815 19.0557 13.6166 18.8443 13.9495L15.4241 19.3349Z" fill="#5E6A72"/>
<rect id="Rectangle 1658" x="16.877" y="14.5449" width="3.74997" height="14.5452" rx="0.5" transform="rotate(-180 16.877 14.5449)" fill="#5E6A72"/>
</g>
</g>
<g id="Group 2099">
<g id="Group 2097_2">
<path id="Polygon 1_2" d="M4.57789 0.664584C4.7743 0.355326 5.22563 0.355326 5.42204 0.664584L8.84227 6.04998C9.05368 6.38287 8.81454 6.81804 8.4202 6.81804L1.57973 6.81804C1.18539 6.81804 0.946244 6.38287 1.15766 6.04998L4.57789 0.664584Z" fill="#36454F"/>
<rect id="Rectangle 1658_2" x="3.125" y="5.45435" width="3.74997" height="14.5452" rx="0.5" fill="#36454F"/>
</g>
</g>
</g>
</g>
</svg>
