<svg width="20" height="20" viewBox="0 0 20 20" fill="none" xmlns="http://www.w3.org/2000/svg">
<g clip-path="url(#clip0_57_8092)">
<mask id="mask0_57_8092" style="mask-type:luminance" maskUnits="userSpaceOnUse" x="6" y="16" width="4" height="4">
<path d="M6.34766 16.7993C6.34766 16.5232 6.57151 16.2993 6.84766 16.2993H9.2373C9.51344 16.2993 9.7373 16.5232 9.7373 16.7993V19.4789C9.7373 19.7551 9.51344 19.9789 9.2373 19.9789H6.84766C6.57151 19.9789 6.34766 19.7551 6.34766 19.4789V16.7993Z" fill="white"/>
</mask>
<g mask="url(#mask0_57_8092)">
<path d="M6.63009 18.5758C6.49567 18.823 6.59107 19.1337 6.84841 19.2474C7.58609 19.5733 8.36955 19.8032 9.18646 19.9203C9.47555 19.9617 9.72511 19.7306 9.72511 19.4385V17.3052C9.72511 17.0518 9.53502 16.8405 9.2855 16.7961C8.93856 16.7343 8.60037 16.6474 8.27492 16.53C8.02633 16.4403 7.74179 16.5318 7.61552 16.764L6.63009 18.5758Z" fill="#AEB4B8"/>
</g>
<mask id="mask1_57_8092" style="mask-type:luminance" maskUnits="userSpaceOnUse" x="0" y="0" width="20" height="12">
<path d="M0.304688 0H19.8432V11.7533H0.304688V0Z" fill="white"/>
</mask>
<g mask="url(#mask1_57_8092)">
<path d="M16.8386 8.79118C16.8809 9.04346 17.0936 9.23727 17.3494 9.23727H19.2981C19.5884 9.23727 19.8187 8.99037 19.7832 8.70224C19.1791 3.79692 15.2278 -0.00476074 10.4498 -0.00476074C7.68709 -0.00476074 5.08183 1.29838 3.3108 3.48115C3.14711 3.68289 2.85948 3.74016 2.6381 3.60421L1.08127 2.64818C0.748236 2.44367 0.319856 2.68314 0.319622 3.07396L0.314988 10.8111C0.314754 11.2019 0.742893 11.4419 1.07617 11.2377L7.38449 7.37337C7.70262 7.17849 7.70299 6.71645 7.38517 6.52106L6.07742 5.71709C5.81723 5.55714 5.75926 5.20211 5.97471 4.98563C7.17017 3.78444 8.76454 3.07584 10.4498 3.07584C13.6536 3.07584 16.2954 5.55061 16.8386 8.79118Z" fill="#36454F"/>
</g>
<path d="M5.50073 14.4842C5.33509 14.2777 5.04211 14.2148 4.81639 14.3532L3.11816 15.3944C2.87878 15.5412 2.80618 15.8571 2.97044 16.0848C3.46336 16.7682 4.03728 17.382 4.67632 17.9112C4.90957 18.1043 5.25634 18.0261 5.40085 17.76L6.39026 15.9379C6.50652 15.7238 6.4501 15.4585 6.26859 15.296C5.99196 15.0482 5.73534 14.7768 5.50073 14.4842Z" fill="#C2C7CA"/>
<mask id="mask2_57_8092" style="mask-type:luminance" maskUnits="userSpaceOnUse" x="11" y="16" width="4" height="4">
<path d="M11.1465 16.7993C11.1465 16.5232 11.3703 16.2993 11.6465 16.2993H14.0361C14.3123 16.2993 14.5361 16.5232 14.5361 16.7993V19.4789C14.5361 19.7551 14.3123 19.9789 14.0361 19.9789H11.6465C11.3703 19.9789 11.1465 19.7551 11.1465 19.4789V16.7993Z" fill="white"/>
</mask>
<g mask="url(#mask2_57_8092)">
<path d="M11.6153 16.796C11.3658 16.8405 11.1758 17.0518 11.1758 17.3052V19.4386C11.1758 19.7306 11.4253 19.9618 11.7144 19.9203C12.5318 19.8032 13.3152 19.5733 14.0522 19.2474C14.3094 19.1336 14.4047 18.8232 14.2704 18.5762L13.2859 16.7639C13.1598 16.5318 12.8754 16.4401 12.6269 16.5296C12.3008 16.6472 11.9623 16.7342 11.6153 16.796Z" fill="#9AA2A7"/>
</g>
<path d="M14.6323 15.296C14.4504 15.4585 14.3938 15.724 14.5101 15.9384L15.4995 17.7603C15.6439 18.0263 15.9905 18.1047 16.2237 17.9118C16.8637 17.3825 17.438 16.7685 17.9312 16.0849C18.0955 15.8571 18.0229 15.5412 17.7835 15.3944L16.0852 14.3531C15.8594 14.2148 15.5665 14.2777 15.4008 14.4842C15.1662 14.7768 14.9094 15.0482 14.6323 15.296Z" fill="#868F95"/>
<mask id="mask3_57_8092" style="mask-type:luminance" maskUnits="userSpaceOnUse" x="16" y="10" width="4" height="5">
<path d="M16.4121 11.2554C16.4121 10.9792 16.636 10.7554 16.9121 10.7554H19.3435C19.6197 10.7554 19.8435 10.9792 19.8435 11.2554V13.859C19.8435 14.1351 19.6197 14.359 19.3435 14.359H16.9121C16.636 14.359 16.4121 14.1351 16.4121 13.859V11.2554Z" fill="white"/>
</mask>
<g mask="url(#mask3_57_8092)">
<path d="M16.5694 12.3806C16.4925 12.6136 16.5756 12.8742 16.7847 13.0026L18.4555 14.0281C18.712 14.1856 19.0495 14.0826 19.1584 13.802C19.4633 13.0168 19.6771 12.1827 19.7844 11.3122C19.8198 11.0242 19.5895 10.7777 19.2993 10.7777H17.3506C17.0947 10.7777 16.8818 10.9713 16.8426 11.2242C16.7808 11.622 16.6918 12.0093 16.5694 12.3806Z" fill="#5E6A72"/>
</g>
</g>
<defs>
<clipPath id="clip0_57_8092">
<rect x="0.298828" width="19.5556" height="20" rx="0.5" fill="white"/>
</clipPath>
</defs>
</svg>
