<svg width="20" height="21" viewBox="0 0 20 21" fill="none" xmlns="http://www.w3.org/2000/svg">
<g clip-path="url(#clip0_126_247)">
<path d="M10 19.25C7.67936 19.25 5.45376 18.3281 3.81282 16.6872C2.17187 15.0462 1.25 12.8206 1.25 10.5C1.25 8.17936 2.17187 5.95376 3.81282 4.31282C5.45376 2.67187 7.67936 1.75 10 1.75C12.3206 1.75 14.5462 2.67187 16.1872 4.31282C17.8281 5.95376 18.75 8.17936 18.75 10.5C18.75 12.8206 17.8281 15.0462 16.1872 16.6872C14.5462 18.3281 12.3206 19.25 10 19.25ZM10 20.5C12.6522 20.5 15.1957 19.4464 17.0711 17.5711C18.9464 15.6957 20 13.1522 20 10.5C20 7.84784 18.9464 5.3043 17.0711 3.42893C15.1957 1.55357 12.6522 0.5 10 0.5C7.34784 0.5 4.8043 1.55357 2.92893 3.42893C1.05357 5.3043 0 7.84784 0 10.5C0 13.1522 1.05357 15.6957 2.92893 17.5711C4.8043 19.4464 7.34784 20.5 10 20.5Z" fill="#8E54E9"/>
<path d="M8.75 14.875C8.75 14.7092 8.81585 14.5503 8.93306 14.4331C9.05027 14.3158 9.20924 14.25 9.375 14.25H10.625C10.7908 14.25 10.9497 14.3158 11.0669 14.4331C11.1842 14.5503 11.25 14.7092 11.25 14.875C11.25 15.0408 11.1842 15.1997 11.0669 15.3169C10.9497 15.4342 10.7908 15.5 10.625 15.5H9.375C9.20924 15.5 9.05027 15.4342 8.93306 15.3169C8.81585 15.1997 8.75 15.0408 8.75 14.875ZM6.25 11.125C6.25 10.9592 6.31585 10.8003 6.43306 10.6831C6.55027 10.5658 6.70924 10.5 6.875 10.5H13.125C13.2908 10.5 13.4497 10.5658 13.5669 10.6831C13.6842 10.8003 13.75 10.9592 13.75 11.125C13.75 11.2908 13.6842 11.4497 13.5669 11.5669C13.4497 11.6842 13.2908 11.75 13.125 11.75H6.875C6.70924 11.75 6.55027 11.6842 6.43306 11.5669C6.31585 11.4497 6.25 11.2908 6.25 11.125ZM3.75 7.375C3.75 7.20924 3.81585 7.05027 3.93306 6.93306C4.05027 6.81585 4.20924 6.75 4.375 6.75H15.625C15.7908 6.75 15.9497 6.81585 16.0669 6.93306C16.1842 7.05027 16.25 7.20924 16.25 7.375C16.25 7.54076 16.1842 7.69973 16.0669 7.81694C15.9497 7.93415 15.7908 8 15.625 8H4.375C4.20924 8 4.05027 7.93415 3.93306 7.81694C3.81585 7.69973 3.75 7.54076 3.75 7.375Z" fill="#8E54E9"/>
</g>
<defs>
<clipPath id="clip0_126_247">
<rect width="20" height="20" fill="white" transform="translate(0 0.5)"/>
</clipPath>
</defs>
</svg>
