<svg width="94" height="94" viewBox="0 0 94 94" fill="none" xmlns="http://www.w3.org/2000/svg">
<path d="M46.875 0C51.2044 0 55.3548 0.553385 59.3262 1.66016C63.2975 2.76693 67.041 4.32943 70.5566 6.34766C74.0723 8.36589 77.2298 10.8073 80.0293 13.6719C82.8288 16.5365 85.2702 19.7103 87.3535 23.1934C89.4368 26.6764 91.0156 30.4036 92.0898 34.375C93.1641 38.3464 93.7174 42.513 93.75 46.875C93.75 51.2044 93.1966 55.3548 92.0898 59.3262C90.9831 63.2975 89.4206 67.041 87.4023 70.5566C85.3841 74.0723 82.9427 77.2298 80.0781 80.0293C77.2135 82.8288 74.0397 85.2702 70.5566 87.3535C67.0736 89.4368 63.3464 91.0156 59.375 92.0898C55.4036 93.1641 51.237 93.7174 46.875 93.75C42.5456 93.75 38.3952 93.1966 34.4238 92.0898C30.4525 90.9831 26.709 89.4206 23.1934 87.4023C19.6777 85.3841 16.5202 82.9427 13.7207 80.0781C10.9212 77.2135 8.47982 74.0397 6.39648 70.5566C4.31315 67.0736 2.73438 63.3464 1.66016 59.375C0.585938 55.4036 0.0325521 51.237 0 46.875C0 42.5456 0.553385 38.3952 1.66016 34.4238C2.76693 30.4525 4.32943 26.709 6.34766 23.1934C8.36589 19.6777 10.8073 16.5202 13.6719 13.7207C16.5365 10.9212 19.7103 8.47982 23.1934 6.39648C26.6764 4.31315 30.4036 2.73438 34.375 1.66016C38.3464 0.585938 42.513 0.0325521 46.875 0ZM46.875 87.5C50.5859 87.5 54.1667 87.0117 57.6172 86.0352C61.0677 85.0586 64.3066 83.6914 67.334 81.9336C70.3613 80.1758 73.112 78.0599 75.5859 75.5859C78.0599 73.112 80.1758 70.3776 81.9336 67.3828C83.6914 64.388 85.0586 61.1491 86.0352 57.666C87.0117 54.1829 87.5 50.5859 87.5 46.875C87.5 43.1641 87.0117 39.5833 86.0352 36.1328C85.0586 32.6823 83.6914 29.4434 81.9336 26.416C80.1758 23.3887 78.0599 20.638 75.5859 18.1641C73.112 15.6901 70.3776 13.5742 67.3828 11.8164C64.388 10.0586 61.1491 8.69141 57.666 7.71484C54.1829 6.73828 50.5859 6.25 46.875 6.25C43.1315 6.25 39.5345 6.73828 36.084 7.71484C32.6335 8.69141 29.4108 10.0586 26.416 11.8164C23.4212 13.5742 20.6706 15.6901 18.1641 18.1641C15.6576 20.638 13.5417 23.3724 11.8164 26.3672C10.0911 29.362 8.72396 32.6009 7.71484 36.084C6.70573 39.5671 6.21745 43.1641 6.25 46.875C6.25 50.5859 6.73828 54.1667 7.71484 57.6172C8.69141 61.0677 10.0586 64.3066 11.8164 67.334C13.5742 70.3613 15.6901 73.112 18.1641 75.5859C20.638 78.0599 23.3724 80.1758 26.3672 81.9336C29.362 83.6914 32.6009 85.0586 36.084 86.0352C39.5671 87.0117 43.1641 87.5 46.875 87.5ZM43.75 25H50V56.25H43.75V25ZM43.75 62.5H50V68.75H43.75V62.5Z" fill="#AAAAAA"/>
</svg>
