<svg width="15" height="15" viewBox="0 0 15 15" fill="none" xmlns="http://www.w3.org/2000/svg">
<mask id="mask0_904_147" style="mask-type:alpha" maskUnits="userSpaceOnUse" x="1" y="0" width="13" height="15">
<path d="M12.8652 0.261597H2.86523C2.31295 0.261597 1.86523 0.704183 1.86523 1.25014V13.1127C1.86523 13.6586 2.31295 14.1012 2.86523 14.1012H12.8652C13.4175 14.1012 13.8652 13.6586 13.8652 13.1127V1.25014C13.8652 0.704183 13.4175 0.261597 12.8652 0.261597Z" fill="white"/>
</mask>
<g mask="url(#mask0_904_147)">
<path fill-rule="evenodd" clip-rule="evenodd" d="M3.11523 1.49724V12.8655H12.6152V1.49724H3.11523ZM0.615234 1.2501C0.615234 0.0216987 1.62259 -0.974121 2.86523 -0.974121H12.8652C14.1079 -0.974121 15.1152 0.0216987 15.1152 1.2501V13.1126C15.1152 14.341 14.1079 15.3369 12.8652 15.3369H2.86523C1.62259 15.3369 0.615234 14.341 0.615234 13.1126V1.2501Z" fill="#9D9D9D"/>
<path d="M9.23926 3.53613H6.48926C6.31667 3.53613 6.17676 3.67444 6.17676 3.84505C6.17676 4.01567 6.31667 4.15397 6.48926 4.15397H9.23926C9.41185 4.15397 9.55176 4.01567 9.55176 3.84505C9.55176 3.67444 9.41185 3.53613 9.23926 3.53613Z" fill="white"/>
<path fill-rule="evenodd" clip-rule="evenodd" d="M5.86426 3.84501C5.86426 3.50379 6.14408 3.22717 6.48926 3.22717H9.23926C9.58444 3.22717 9.86426 3.50379 9.86426 3.84501C9.86426 4.18624 9.58444 4.46285 9.23926 4.46285H6.48926C6.14408 4.46285 5.86426 4.18624 5.86426 3.84501Z" fill="#9D9D9D"/>
<path d="M10.7402 6.00745H4.99023C4.81765 6.00745 4.67773 6.14575 4.67773 6.31637C4.67773 6.48698 4.81765 6.62529 4.99023 6.62529H10.7402C10.9128 6.62529 11.0527 6.48698 11.0527 6.31637C11.0527 6.14575 10.9128 6.00745 10.7402 6.00745Z" fill="white"/>
<path fill-rule="evenodd" clip-rule="evenodd" d="M4.36523 6.31645C4.36523 5.97522 4.64506 5.69861 4.99023 5.69861H10.7402C11.0854 5.69861 11.3652 5.97522 11.3652 6.31645C11.3652 6.65767 11.0854 6.93429 10.7402 6.93429H4.99023C4.64506 6.93429 4.36523 6.65767 4.36523 6.31645Z" fill="#9D9D9D"/>
<path d="M10.7402 7.98462H4.99023C4.81765 7.98462 4.67773 8.12293 4.67773 8.29354C4.67773 8.46415 4.81765 8.60246 4.99023 8.60246H10.7402C10.9128 8.60246 11.0527 8.46415 11.0527 8.29354C11.0527 8.12293 10.9128 7.98462 10.7402 7.98462Z" fill="white"/>
<path fill-rule="evenodd" clip-rule="evenodd" d="M4.36523 8.2935C4.36523 7.95228 4.64506 7.67566 4.99023 7.67566H10.7402C11.0854 7.67566 11.3652 7.95228 11.3652 8.2935C11.3652 8.63472 11.0854 8.91134 10.7402 8.91134H4.99023C4.64506 8.91134 4.36523 8.63472 4.36523 8.2935Z" fill="#9D9D9D"/>
<path d="M10.7402 9.96167H4.99023C4.81765 9.96167 4.67773 10.1 4.67773 10.2706C4.67773 10.4412 4.81765 10.5795 4.99023 10.5795H10.7402C10.9128 10.5795 11.0527 10.4412 11.0527 10.2706C11.0527 10.1 10.9128 9.96167 10.7402 9.96167Z" fill="white"/>
<path fill-rule="evenodd" clip-rule="evenodd" d="M4.36523 10.2706C4.36523 9.92933 4.64506 9.65271 4.99023 9.65271H10.7402C11.0854 9.65271 11.3652 9.92933 11.3652 10.2706C11.3652 10.6118 11.0854 10.8884 10.7402 10.8884H4.99023C4.64506 10.8884 4.36523 10.6118 4.36523 10.2706Z" fill="#9D9D9D"/>
</g>
</svg>
