<svg width="166" height="166" viewBox="0 0 166 166" fill="none" xmlns="http://www.w3.org/2000/svg">
<g clip-path="url(#clip0_57_7819)">
<mask id="mask0_57_7819" style="mask-type:luminance" maskUnits="userSpaceOnUse" x="0" y="0" width="166" height="166">
<path d="M83 0C128.84 0 166 37.1598 166 83C166 128.84 128.84 166 83 166C37.1598 166 0 128.84 0 83C0 37.1598 37.1598 0 83 0V33.2C55.4959 33.2 33.2 55.4959 33.2 83C33.2 110.504 55.4959 132.8 83 132.8C110.504 132.8 132.8 110.504 132.8 83C132.8 55.4959 110.504 33.2 83 33.2V0Z" fill="white"/>
</mask>
<g mask="url(#mask0_57_7819)">
<path d="M182.6 -16.6H-16.5996V182.6H182.6V-16.6Z" fill="#6DAC9D"/>
</g>
<mask id="mask1_57_7819" style="mask-type:luminance" maskUnits="userSpaceOnUse" x="82" y="1" width="84" height="159">
<path d="M82.7793 1.77067H166.001V159.803H82.7793V1.77067Z" fill="white"/>
</mask>
<g mask="url(#mask1_57_7819)">
<mask id="mask2_57_7819" style="mask-type:luminance" maskUnits="userSpaceOnUse" x="82" y="2" width="85" height="158">
<path d="M103.75 2.63525C137.599 11.3745 162.341 40.3864 165.632 75.1894C168.922 109.992 150.052 143.125 118.441 158.053C113.079 160.586 106.773 160.064 101.898 156.687C97.0237 153.308 94.3211 147.586 94.8104 141.676C95.298 135.766 98.9016 130.564 104.265 128.031C123.231 119.076 134.554 99.1954 132.579 78.314C130.606 57.4308 115.759 40.025 95.4502 34.7822C86.5727 32.4893 81.2347 23.4354 83.5276 14.5579C85.8187 5.68205 94.8727 0.344109 103.75 2.63525Z" fill="white"/>
</mask>
<g mask="url(#mask2_57_7819)">
<path d="M182.6 -16.6H-16.5996V182.6H182.6V-16.6Z" fill="#0E6651"/>
</g>
</g>
<path d="M59.8491 86.3218V84.1911L67.3917 72.2764H69.0707V75.4127H68.0054L62.6105 83.9525V84.0889H72.9486V86.3218H59.8491ZM68.1247 89.7309V85.6741L68.1417 84.7025V72.2764H70.6389V89.7309H68.1247ZM76.5068 89.7309L84.1261 74.6627V74.5349H75.3136V72.2764H86.8534V74.6116L79.2596 89.7309H76.5068ZM98.928 86.4582V85.5377C98.928 84.8786 99.0643 84.2764 99.3371 83.7309C99.6155 83.1798 100.019 82.7394 100.547 82.4099C101.081 82.0746 101.726 81.907 102.482 81.907C103.255 81.907 103.902 82.0718 104.425 82.4014C104.948 82.7309 105.343 83.1712 105.61 83.7224C105.883 84.2735 106.019 84.8786 106.019 85.5377V86.4582C106.019 87.1173 105.883 87.7224 105.61 88.2735C105.337 88.819 104.936 89.2593 104.408 89.5945C103.885 89.9241 103.243 90.0889 102.482 90.0889C101.715 90.0889 101.067 89.9241 100.539 89.5945C100.01 89.2593 99.6098 88.819 99.3371 88.2735C99.0643 87.7224 98.928 87.1173 98.928 86.4582ZM100.914 85.5377V86.4582C100.914 86.9468 101.03 87.39 101.263 87.7877C101.496 88.1854 101.902 88.3843 102.482 88.3843C103.056 88.3843 103.456 88.1854 103.684 87.7877C103.911 87.39 104.025 86.9468 104.025 86.4582V85.5377C104.025 85.0491 103.914 84.6059 103.692 84.2082C103.476 83.8104 103.073 83.6116 102.482 83.6116C101.914 83.6116 101.51 83.8104 101.272 84.2082C101.033 84.6059 100.914 85.0491 100.914 85.5377ZM90.1496 76.4695V75.5491C90.1496 74.89 90.2859 74.2849 90.5586 73.7337C90.8371 73.1826 91.2405 72.7423 91.7689 72.4127C92.303 72.0832 92.9479 71.9184 93.7035 71.9184C94.4763 71.9184 95.124 72.0832 95.6467 72.4127C96.1694 72.7423 96.5643 73.1826 96.8314 73.7337C97.0984 74.2849 97.2319 74.89 97.2319 75.5491V76.4695C97.2319 77.1286 97.0956 77.7337 96.8229 78.2849C96.5558 78.8303 96.1581 79.2707 95.6297 79.6059C95.1069 79.9354 94.4649 80.1002 93.7035 80.1002C92.9308 80.1002 92.2802 79.9354 91.7518 79.6059C91.2291 79.2707 90.8314 78.8303 90.5586 78.2849C90.2859 77.7337 90.1496 77.1286 90.1496 76.4695ZM92.1439 75.5491V76.4695C92.1439 76.9582 92.2575 77.4014 92.4848 77.7991C92.7177 78.1968 93.124 78.3957 93.7035 78.3957C94.2717 78.3957 94.6694 78.1968 94.8967 77.7991C95.1297 77.4014 95.2461 76.9582 95.2461 76.4695V75.5491C95.2461 75.0604 95.1354 74.6173 94.9138 74.2195C94.6922 73.8218 94.2888 73.6229 93.7035 73.6229C93.1354 73.6229 92.7319 73.8218 92.4933 74.2195C92.2604 74.6173 92.1439 75.0604 92.1439 75.5491ZM90.9592 89.7309L102.959 72.2764H104.996L92.9961 89.7309H90.9592Z" fill="#0E6651"/>
</g>
<defs>
<clipPath id="clip0_57_7819">
<rect width="166" height="166" fill="white"/>
</clipPath>
</defs>
</svg>
