<svg width="9" height="10" viewBox="0 0 9 10" fill="none" xmlns="http://www.w3.org/2000/svg">
<path d="M4.98828 7.5V7.07812C4.98828 6.76823 5.05339 6.48307 5.18359 6.22266C5.31641 5.96224 5.50911 5.7526 5.76172 5.59375C6.01432 5.4349 6.32031 5.35547 6.67969 5.35547C7.04948 5.35547 7.35938 5.4349 7.60938 5.59375C7.85938 5.75 8.04818 5.95833 8.17578 6.21875C8.30599 6.47917 8.37109 6.76562 8.37109 7.07812V7.5C8.37109 7.8099 8.30599 8.09505 8.17578 8.35547C8.04557 8.61589 7.85417 8.82552 7.60156 8.98437C7.35156 9.14323 7.04427 9.22266 6.67969 9.22266C6.3151 9.22266 6.00651 9.14323 5.75391 8.98437C5.5013 8.82552 5.3099 8.61589 5.17969 8.35547C5.05208 8.09505 4.98828 7.8099 4.98828 7.5ZM6.00781 7.07812V7.5C6.00781 7.70573 6.05729 7.89453 6.15625 8.06641C6.25521 8.23828 6.42969 8.32422 6.67969 8.32422C6.93229 8.32422 7.10547 8.23958 7.19922 8.07031C7.29557 7.89844 7.34375 7.70833 7.34375 7.5V7.07812C7.34375 6.86979 7.29818 6.67969 7.20703 6.50781C7.11589 6.33333 6.9401 6.24609 6.67969 6.24609C6.4349 6.24609 6.26172 6.33333 6.16016 6.50781C6.05859 6.67969 6.00781 6.86979 6.00781 7.07812ZM0.921875 2.92188V2.5C0.921875 2.1875 0.988281 1.90104 1.12109 1.64062C1.25391 1.38021 1.44661 1.17187 1.69922 1.01562C1.95182 0.85677 2.25781 0.777343 2.61719 0.777343C2.98437 0.777343 3.29297 0.85677 3.54297 1.01562C3.79557 1.17187 3.98568 1.38021 4.11328 1.64062C4.24089 1.90104 4.30469 2.1875 4.30469 2.5V2.92188C4.30469 3.23437 4.23958 3.52083 4.10938 3.78125C3.98177 4.03906 3.79167 4.24609 3.53906 4.40234C3.28646 4.55859 2.97917 4.63672 2.61719 4.63672C2.25 4.63672 1.9401 4.55859 1.6875 4.40234C1.4375 4.24609 1.2474 4.03776 1.11719 3.77734C0.986979 3.51693 0.921875 3.23177 0.921875 2.92188ZM1.94922 2.5V2.92188C1.94922 3.13021 1.9974 3.32031 2.09375 3.49219C2.19271 3.66146 2.36719 3.74609 2.61719 3.74609C2.86719 3.74609 3.03906 3.66146 3.13281 3.49219C3.22917 3.32031 3.27734 3.13021 3.27734 2.92188V2.5C3.27734 2.29167 3.23177 2.10156 3.14063 1.92969C3.04948 1.75521 2.875 1.66797 2.61719 1.66797C2.36979 1.66797 2.19661 1.75521 2.09766 1.92969C1.9987 2.10417 1.94922 2.29427 1.94922 2.5ZM1.36719 9L6.86719 1H7.84375L2.34375 9H1.36719Z" fill="#B1B1B1"/>
</svg>
