<svg width="13" height="13" viewBox="0 0 13 13" fill="none" xmlns="http://www.w3.org/2000/svg">
<path d="M10.9167 4.9492H7.11168V1.1407C7.11168 1.1052 7.10993 1.0697 7.10643 1.0342C7.10306 0.998824 7.09781 0.963699 7.09081 0.928824C7.08393 0.893824 7.0753 0.859449 7.06493 0.825324C7.05468 0.791324 7.04268 0.757824 7.02906 0.724949C7.01543 0.692074 7.0003 0.659949 6.98355 0.628574C6.9668 0.597199 6.94855 0.566699 6.9288 0.537074C6.90905 0.507449 6.8878 0.478949 6.8653 0.451449C6.8428 0.423949 6.81893 0.397574 6.79381 0.372449C6.76868 0.347199 6.74231 0.323324 6.71481 0.300824C6.68731 0.278199 6.6588 0.257074 6.6293 0.237324C6.59968 0.217574 6.56931 0.199199 6.53793 0.182449C6.50656 0.165699 6.47443 0.150449 6.44156 0.136824C6.40881 0.123199 6.3753 0.111324 6.3413 0.100949C6.3073 0.0905742 6.2728 0.0819492 6.23793 0.0750742C6.20305 0.0680742 6.16793 0.0628242 6.13256 0.0594492C6.09718 0.0559492 6.0618 0.0541992 6.02618 0.0541992C5.99068 0.0541992 5.95518 0.0559492 5.91981 0.0594492C5.88443 0.0628242 5.8493 0.0680742 5.81443 0.0750742C5.77955 0.0819492 5.74518 0.0905742 5.71105 0.100949C5.67705 0.111324 5.64368 0.123199 5.61081 0.136824C5.57793 0.150449 5.5458 0.165699 5.51455 0.182449C5.48318 0.199199 5.45268 0.217574 5.42318 0.237324C5.39356 0.257074 5.36505 0.278199 5.33755 0.300824C5.31005 0.323324 5.2838 0.347199 5.25868 0.372449C5.23355 0.397574 5.20968 0.423949 5.18706 0.451449C5.16456 0.478949 5.14343 0.507449 5.12368 0.537074C5.10393 0.566699 5.08568 0.597199 5.06893 0.628574C5.05206 0.659949 5.03693 0.692074 5.0233 0.724949C5.00968 0.757824 4.99781 0.791324 4.98743 0.825324C4.97718 0.859449 4.96843 0.893824 4.96156 0.928824C4.95468 0.963699 4.94943 0.998824 4.94593 1.0342C4.94243 1.0697 4.94068 1.1052 4.94068 1.1407V4.94958H1.1363C1.1008 4.94958 1.0653 4.9512 1.02993 4.9547C0.99443 4.9582 0.959305 4.96333 0.92443 4.97033C0.889555 4.9772 0.855055 4.98583 0.821055 4.99608C0.78693 5.00645 0.753555 5.01833 0.72068 5.03195C0.687805 5.04558 0.65568 5.06082 0.62418 5.07757C0.592805 5.09432 0.56243 5.11258 0.532805 5.13233C0.50318 5.15208 0.47468 5.17333 0.44718 5.19583C0.419555 5.21845 0.393305 5.24232 0.368055 5.26745C0.34293 5.29257 0.319055 5.31895 0.29643 5.34645C0.27393 5.37395 0.25268 5.40258 0.23293 5.4322C0.21318 5.4617 0.19493 5.4922 0.17818 5.5237C0.161305 5.55507 0.14618 5.5872 0.132555 5.62007C0.11893 5.65295 0.10693 5.68645 0.0965547 5.72058C0.0863047 5.75458 0.0776797 5.78907 0.0706797 5.82407C0.0636797 5.85895 0.0585547 5.8942 0.0550547 5.92958C0.0515547 5.96508 0.0498047 6.00058 0.0498047 6.0362C0.0498047 6.07183 0.0515547 6.10733 0.0550547 6.1427C0.0585547 6.1782 0.0636797 6.21333 0.0706797 6.24833C0.0776797 6.2832 0.0863047 6.3177 0.0965547 6.35183C0.10693 6.38583 0.11893 6.41933 0.132555 6.4522C0.14618 6.48508 0.161305 6.51733 0.17818 6.5487C0.19493 6.58008 0.21318 6.61058 0.23293 6.6402C0.25268 6.66983 0.27393 6.69833 0.29643 6.72583C0.319055 6.75333 0.34293 6.7797 0.368055 6.80483C0.393305 6.83008 0.419555 6.85395 0.44718 6.87645C0.47468 6.89908 0.50318 6.9202 0.532805 6.93995C0.56243 6.9597 0.592805 6.97808 0.62418 6.99483C0.65568 7.01158 0.687805 7.0267 0.72068 7.04033C0.753555 7.05395 0.78693 7.06595 0.821055 7.0762C0.855055 7.08658 0.889555 7.09508 0.92443 7.10208C0.959305 7.10895 0.99443 7.1142 1.02993 7.11758C1.0653 7.12108 1.1008 7.12283 1.1363 7.1227H4.94093V10.9306C4.94093 10.9662 4.94255 11.0017 4.94605 11.0371C4.94955 11.0726 4.9548 11.1077 4.96168 11.1426C4.96868 11.1775 4.97731 11.212 4.98756 11.2461C4.99793 11.2801 5.00993 11.3136 5.02355 11.3465C5.03705 11.3793 5.05231 11.4115 5.06906 11.4428C5.08581 11.4742 5.10406 11.5047 5.12381 11.5343C5.14356 11.5638 5.16468 11.5925 5.1873 11.62C5.2098 11.6475 5.23368 11.6738 5.2588 11.699C5.28393 11.7241 5.3103 11.748 5.33768 11.7706C5.36518 11.7932 5.39368 11.8143 5.42331 11.8341C5.45281 11.8538 5.4833 11.8721 5.51468 11.889C5.54605 11.9057 5.57818 11.9208 5.61093 11.9345C5.6438 11.9481 5.67731 11.9601 5.71131 11.9705C5.74531 11.9807 5.77968 11.9893 5.81456 11.9963C5.84943 12.0033 5.88455 12.0085 5.91993 12.012C5.9553 12.0155 5.99081 12.0172 6.02643 12.0172C6.06193 12.0172 6.09743 12.0155 6.1328 12.012C6.16818 12.0085 6.20331 12.0033 6.23818 11.9963C6.27306 11.9895 6.30743 11.9807 6.34143 11.9705C6.37556 11.9601 6.40893 11.9481 6.4418 11.9345C6.47468 11.9208 6.50668 11.9057 6.53805 11.889C6.56943 11.8721 6.59993 11.8538 6.62943 11.8341C6.65905 11.8143 6.68755 11.7932 6.71505 11.7706C6.74255 11.748 6.76881 11.7241 6.79393 11.699C6.81906 11.6738 6.84293 11.6475 6.86543 11.62C6.88805 11.5925 6.90918 11.5638 6.92893 11.5343C6.94868 11.5047 6.96693 11.4742 6.98368 11.4428C7.00043 11.4115 7.01568 11.3793 7.0293 11.3465C7.0428 11.3136 7.0548 11.2801 7.06518 11.2461C7.07543 11.212 7.08405 11.1775 7.09105 11.1426C7.09793 11.1077 7.10318 11.0726 7.10668 11.0371C7.11018 11.0017 7.11193 10.9662 7.11193 10.9306V7.12233H10.9169C10.9524 7.12233 10.9879 7.12058 11.0233 7.11708C11.0587 7.11358 11.0938 7.10833 11.1287 7.10145C11.1636 7.09445 11.1979 7.08583 11.2321 7.07558C11.2661 7.0652 11.2994 7.0532 11.3323 7.03958C11.3652 7.02595 11.3973 7.01083 11.4286 6.99408C11.4599 6.9772 11.4904 6.95895 11.5199 6.9392C11.5496 6.91945 11.5781 6.8982 11.6056 6.8757C11.6331 6.85308 11.6593 6.8292 11.6844 6.80408C11.7096 6.77895 11.7334 6.75258 11.7561 6.72508C11.7786 6.69758 11.7997 6.66895 11.8194 6.63945C11.8392 6.60983 11.8574 6.57933 11.8742 6.54795C11.8911 6.51658 11.9062 6.48445 11.9198 6.45158C11.9334 6.4187 11.9453 6.3852 11.9557 6.3512C11.9659 6.31708 11.9746 6.28258 11.9816 6.2477C11.9884 6.21283 11.9937 6.1777 11.9972 6.1422C12.0007 6.10683 12.0024 6.07133 12.0024 6.0357C12.0024 6.0002 12.0007 5.9647 11.9972 5.9292C11.9937 5.89383 11.9884 5.8587 11.9816 5.8237C11.9746 5.78883 11.9659 5.75433 11.9557 5.72033C11.9453 5.6862 11.9334 5.65283 11.9198 5.61995C11.9062 5.58707 11.8911 5.55495 11.8742 5.52358C11.8574 5.49208 11.8392 5.4617 11.8194 5.43208C11.7997 5.40245 11.7786 5.37395 11.7561 5.34645C11.7334 5.31895 11.7096 5.29257 11.6844 5.26745C11.6593 5.2422 11.6331 5.21833 11.6056 5.19583C11.5781 5.1732 11.5496 5.15208 11.5199 5.13233C11.4904 5.11245 11.4599 5.0942 11.4286 5.07745C11.3973 5.0607 11.3652 5.04545 11.3323 5.03183C11.2994 5.0182 11.2661 5.0062 11.2321 4.99595C11.1979 4.98557 11.1636 4.97695 11.1287 4.97008C11.0938 4.96308 11.0587 4.95782 11.0233 4.95432C10.9879 4.95082 10.9522 4.9492 10.9167 4.9492Z" fill="#1660A4"/>
</svg>
