<svg width="14" height="14" viewBox="0 0 14 14" fill="none" xmlns="http://www.w3.org/2000/svg">
<path fill-rule="evenodd" clip-rule="evenodd" d="M2.75 4.02161V8.76314H11.25V4.02161H2.75ZM2.5 2.77161C1.94772 2.77161 1.5 3.21932 1.5 3.77161V9.01314C1.5 9.56542 1.94771 10.0131 2.5 10.0131H11.5C12.0523 10.0131 12.5 9.56542 12.5 9.01314V3.77161C12.5 3.21932 12.0523 2.77161 11.5 2.77161H2.5Z" fill="#9D9D9D"/>
<path d="M6.37109 9.63812C6.37109 9.29294 6.65092 9.01312 6.99609 9.01312V9.01312C7.34127 9.01312 7.62109 9.29294 7.62109 9.63812V12.3881C7.62109 12.7333 7.34127 13.0131 6.99609 13.0131V13.0131C6.65092 13.0131 6.37109 12.7333 6.37109 12.3881V9.63812Z" fill="#0E6651"/>
<path fill-rule="evenodd" clip-rule="evenodd" d="M7.62109 9.63812C7.62109 9.29294 7.34127 9.01312 6.99609 9.01312C6.65092 9.01312 6.37109 9.29294 6.37109 9.63812V12.3881C6.37109 12.7333 6.65092 13.0131 6.99609 13.0131C7.34127 13.0131 7.62109 12.7333 7.62109 12.3881V9.63812Z" fill="#9D9D9D"/>
<path d="M10.9565 12.161C11.2006 12.4051 11.2006 12.8008 10.9565 13.0449V13.0449C10.7124 13.289 10.3167 13.289 10.0726 13.0449L7.42096 10.3933C7.17688 10.1492 7.17688 9.75345 7.42096 9.50937V9.50937C7.66504 9.2653 8.06077 9.2653 8.30485 9.50937L10.9565 12.161Z" fill="#0E6651"/>
<path fill-rule="evenodd" clip-rule="evenodd" d="M10.0726 13.0449C10.3167 13.289 10.7124 13.289 10.9565 13.0449C11.2006 12.8008 11.2006 12.4051 10.9565 12.161L8.30485 9.50937C8.06077 9.2653 7.66504 9.2653 7.42096 9.50937C7.17688 9.75345 7.17688 10.1492 7.42096 10.3933L10.0726 13.0449Z" fill="#9D9D9D"/>
<path d="M3.82475 13.0438C3.58068 13.2879 3.18495 13.2879 2.94087 13.0438V13.0438C2.69679 12.7998 2.69679 12.404 2.94087 12.16L5.59252 9.5083C5.8366 9.26423 6.23233 9.26423 6.4764 9.5083V9.5083C6.72048 9.75238 6.72048 10.1481 6.4764 10.3922L3.82475 13.0438Z" fill="#0E6651"/>
<path fill-rule="evenodd" clip-rule="evenodd" d="M2.94087 12.16C2.69679 12.404 2.69679 12.7998 2.94087 13.0438C3.18495 13.2879 3.58068 13.2879 3.82475 13.0438L6.4764 10.3922C6.72048 10.1481 6.72048 9.75238 6.4764 9.5083C6.23233 9.26423 5.8366 9.26423 5.59252 9.5083L2.94087 12.16Z" fill="#9D9D9D"/>
<path fill-rule="evenodd" clip-rule="evenodd" d="M1.25 1.76312V2.76312H12.75V1.76312H1.25ZM1 0.513123C0.447715 0.513123 0 0.960838 0 1.51312V3.01312C0 3.56541 0.447716 4.01312 1 4.01312H13C13.5523 4.01312 14 3.56541 14 3.01312V1.51312C14 0.960838 13.5523 0.513123 13 0.513123H1Z" fill="#9D9D9D"/>
</svg>
