<svg width="14" height="14" viewBox="0 0 14 14" fill="none" xmlns="http://www.w3.org/2000/svg">
<path d="M13.2957 5.28354C13.5982 4.98107 13.5982 4.49066 13.2957 4.18818C12.9933 3.88571 12.5028 3.88571 12.2004 4.18818L8.91401 7.47454C8.61153 7.77702 8.61153 8.26743 8.91401 8.5699C9.21648 8.87238 9.70689 8.87238 10.0094 8.5699L13.2957 5.28354Z" fill="#9D9D9D"/>
<path d="M12.1997 5.0934C12.5022 5.39587 12.9926 5.39587 13.2951 5.0934C13.5976 4.79092 13.5976 4.30051 13.2951 3.99804L10.0132 0.716189C9.71077 0.413714 9.22036 0.413714 8.91789 0.716189C8.61541 1.01866 8.61541 1.50907 8.91789 1.81155L12.1997 5.0934Z" fill="#9D9D9D"/>
<path fill-rule="evenodd" clip-rule="evenodd" d="M7.20551 3.97937H11.4655C11.8932 3.97937 12.24 4.32614 12.24 4.75391C12.24 5.18167 11.8932 5.52844 11.4655 5.52844H7.20652L7.20551 4.75391C7.2056 5.52844 7.20628 5.52844 7.20652 5.52844L7.19716 5.52853L7.15489 5.52937C7.11593 5.53037 7.05607 5.53243 6.9783 5.53669C6.82253 5.54522 6.59626 5.56249 6.32331 5.59734C5.77338 5.66754 5.05393 5.80661 4.34549 6.07775C3.63432 6.34994 2.97401 6.73998 2.49606 7.28866C2.03145 7.82202 1.7063 8.54126 1.7063 9.55555V13.0569C1.7063 13.4847 1.35953 13.8314 0.931763 13.8314C0.503998 13.8314 0.157227 13.4847 0.157227 13.0569V9.55555C0.157227 8.16939 0.616292 7.0882 1.32801 6.27117C2.02639 5.46945 2.93451 4.95913 3.79178 4.63103C4.65178 4.30187 5.50076 4.1407 6.12715 4.06074C6.44237 4.0205 6.70624 4.0002 6.89357 3.98994C6.98734 3.9848 7.06226 3.98216 7.11521 3.9808C7.14169 3.98013 7.1627 3.97977 7.17786 3.97958L7.19616 3.9794L7.20194 3.97938L7.20397 3.97937L7.20551 3.97937C7.20584 3.97937 7.20541 3.97937 7.20551 4.75391V3.97937Z" fill="#9D9D9D"/>
</svg>
