<svg width="11" height="11" viewBox="0 0 11 11" fill="none" xmlns="http://www.w3.org/2000/svg">
<g clip-path="url(#clip0_1859_833)">
<path d="M10.1859 9.07454L1.66691 0.555584C1.36007 0.248743 0.862585 0.248743 0.555744 0.555584C0.248904 0.862424 0.248904 1.35991 0.555744 1.66675L9.0747 10.1857C9.38154 10.4925 9.87902 10.4925 10.1859 10.1857C10.4927 9.87886 10.4927 9.38138 10.1859 9.07454Z" fill="#7B7B7C"/>
<path d="M1.66765 10.1859L10.1866 1.66691C10.4934 1.36007 10.4934 0.862585 10.1866 0.555744C9.87976 0.248904 9.38228 0.248904 9.07544 0.555744L0.556482 9.0747C0.249641 9.38154 0.249641 9.87903 0.556482 10.1859C0.863322 10.4927 1.36081 10.4927 1.66765 10.1859Z" fill="#7B7B7C"/>
</g>
<defs>
<clipPath id="clip0_1859_833">
<rect width="11" height="11" fill="white"/>
</clipPath>
</defs>
</svg>
