<svg width="18" height="19" viewBox="0 0 18 19" fill="none" xmlns="http://www.w3.org/2000/svg">
<path d="M2.7998 1.90405C2.7998 1.35177 2.35209 0.904053 1.7998 0.904053C1.24752 0.904053 0.799805 1.35177 0.799805 1.90405V17.9041C0.799805 18.4563 1.24752 18.9041 1.7998 18.9041C2.35209 18.9041 2.7998 18.4563 2.7998 17.9041V1.90405Z" fill="black"/>
<path d="M17.7998 1.90405C17.7998 1.35177 17.3521 0.904053 16.7998 0.904053C16.2475 0.904053 15.7998 1.35177 15.7998 1.90405V17.9041C15.7998 18.4563 16.2475 18.9041 16.7998 18.9041C17.3521 18.9041 17.7998 18.4563 17.7998 17.9041V1.90405Z" fill="black"/>
<path d="M16.7998 5.90405C17.3521 5.90405 17.7998 5.45634 17.7998 4.90405C17.7998 4.35177 17.3521 3.90405 16.7998 3.90405L1.7998 3.90405C1.24752 3.90405 0.799805 4.35177 0.799805 4.90405C0.799805 5.45634 1.24752 5.90405 1.7998 5.90405L16.7998 5.90405Z" fill="black"/>
<path d="M16.7998 10.9041C17.3521 10.9041 17.7998 10.4563 17.7998 9.90405C17.7998 9.35177 17.3521 8.90405 16.7998 8.90405L1.7998 8.90405C1.24752 8.90405 0.799805 9.35177 0.799805 9.90405C0.799805 10.4563 1.24752 10.9041 1.7998 10.9041H16.7998Z" fill="black"/>
<path d="M16.7998 15.9041C17.3521 15.9041 17.7998 15.4563 17.7998 14.9041C17.7998 14.3518 17.3521 13.9041 16.7998 13.9041L1.7998 13.9041C1.24752 13.9041 0.799805 14.3518 0.799805 14.9041C0.799805 15.4563 1.24752 15.9041 1.7998 15.9041H16.7998Z" fill="black"/>
<path d="M6.7998 6.90405C7.90437 6.90405 8.7998 6.00862 8.7998 4.90405C8.7998 3.79948 7.90437 2.90405 6.7998 2.90405C5.69524 2.90405 4.7998 3.79948 4.7998 4.90405C4.7998 6.00862 5.69524 6.90405 6.7998 6.90405Z" fill="black"/>
<path d="M6.7998 16.9041C7.90437 16.9041 8.7998 16.0086 8.7998 14.9041C8.7998 13.7995 7.90437 12.9041 6.7998 12.9041C5.69524 12.9041 4.7998 13.7995 4.7998 14.9041C4.7998 16.0086 5.69524 16.9041 6.7998 16.9041Z" fill="black"/>
<path d="M11.7998 11.9041C12.9044 11.9041 13.7998 11.0086 13.7998 9.90405C13.7998 8.79948 12.9044 7.90405 11.7998 7.90405C10.6952 7.90405 9.7998 8.79948 9.7998 9.90405C9.7998 11.0086 10.6952 11.9041 11.7998 11.9041Z" fill="black"/>
</svg>
