<svg width="18" height="18" viewBox="0 0 18 18" fill="none" xmlns="http://www.w3.org/2000/svg">
<path d="M8.99991 12.9683C8.48855 12.9683 8.034 12.8807 7.63627 12.7055C7.24091 12.5303 6.92842 12.2865 6.69877 11.974C6.46913 11.6615 6.34721 11.3004 6.33301 10.8909H7.66824C7.68007 11.0874 7.74518 11.259 7.86355 11.4058C7.98192 11.5502 8.13935 11.6627 8.33585 11.7432C8.53235 11.8236 8.75252 11.8639 8.99636 11.8639C9.25678 11.8639 9.4876 11.8189 9.68883 11.7289C9.89006 11.6366 10.0475 11.5088 10.1611 11.3454C10.2748 11.1821 10.3304 10.9939 10.328 10.7808C10.3304 10.5606 10.2736 10.3665 10.1576 10.1984C10.0416 10.0303 9.87349 9.89893 9.65332 9.80423C9.43552 9.70954 9.17273 9.66219 8.86497 9.66219H8.22221V8.64656H8.86497C9.11828 8.64656 9.33964 8.60276 9.52903 8.51517C9.72079 8.42758 9.87112 8.30447 9.98003 8.14585C10.0889 7.98487 10.1422 7.79902 10.1398 7.58832C10.1422 7.38236 10.096 7.20362 10.0013 7.0521C9.909 6.89822 9.77761 6.77866 9.60716 6.69344C9.43907 6.60821 9.24139 6.5656 9.01412 6.5656C8.79158 6.5656 8.58561 6.60584 8.39622 6.68633C8.20682 6.76683 8.05413 6.88165 7.93812 7.0308C7.82212 7.17758 7.76056 7.35276 7.75346 7.55636H6.48571C6.49518 7.14917 6.61236 6.79169 6.83727 6.48392C7.06454 6.17379 7.36757 5.93231 7.74636 5.75949C8.12515 5.5843 8.5501 5.4967 9.02122 5.4967C9.50654 5.4967 9.92794 5.58785 10.2854 5.77014C10.6453 5.95007 10.9234 6.19273 11.1199 6.49812C11.3164 6.80352 11.4147 7.14088 11.4147 7.5102C11.4171 7.91976 11.2963 8.26304 11.0525 8.54003C10.811 8.81702 10.4938 8.99812 10.1008 9.08335V9.14017C10.6121 9.21119 11.0039 9.40059 11.2762 9.70835C11.5508 10.0137 11.6869 10.3937 11.6846 10.8483C11.6846 11.2555 11.5686 11.62 11.3366 11.942C11.1069 12.2616 10.7897 12.5126 10.3849 12.6949C9.98239 12.8771 9.52074 12.9683 8.99991 12.9683Z" fill="black"/>
<path fill-rule="evenodd" clip-rule="evenodd" d="M9 16C12.866 16 16 12.866 16 9C16 5.13401 12.866 2 9 2C5.13401 2 2 5.13401 2 9C2 12.866 5.13401 16 9 16ZM9 17.5C13.6944 17.5 17.5 13.6944 17.5 9C17.5 4.30558 13.6944 0.5 9 0.5C4.30558 0.5 0.5 4.30558 0.5 9C0.5 13.6944 4.30558 17.5 9 17.5Z" fill="black"/>
</svg>
