<svg width="319" height="150" viewBox="0 0 319 150" fill="none" xmlns="http://www.w3.org/2000/svg">
<path d="M181.008 97.7334L180.456 100.172L181.18 100.336L181.876 100.078L181.008 97.7334ZM316.902 49.3616C317.479 48.1072 316.93 46.6226 315.676 46.0455L295.235 36.6419C293.981 36.0649 292.496 36.6139 291.919 37.8683C291.342 39.1226 291.891 40.6073 293.146 41.1843L311.315 49.5431L302.956 67.7126C302.379 68.9669 302.928 70.4516 304.183 71.0286C305.437 71.6057 306.922 71.0566 307.499 69.8023L316.902 49.3616ZM0.69146 59.4602L180.456 100.172L181.561 95.2951L1.79585 54.5837L0.69146 59.4602ZM181.876 100.078L315.498 50.6615L313.764 45.9719L180.141 95.3886L181.876 100.078Z" fill="#0E6651"/>
<g clip-path="url(#clip0_3078_56)">
<path d="M217.421 118.696H102.578C98.006 118.696 94.2993 114.989 94.2993 110.417V24.4532C94.2993 19.8809 98.006 16.1742 102.578 16.1742H217.422C221.994 16.1742 225.701 19.8809 225.701 24.4532V110.417C225.701 114.989 221.994 118.696 217.421 118.696Z" fill="white"/>
<path d="M176.493 140.949H143.507L150.934 112.337H169.066L176.493 140.949Z" fill="#C5FFBD"/>
<path d="M189.323 147.803H130.677C129.094 147.803 127.812 146.52 127.812 144.937C127.812 138.95 132.665 134.096 138.653 134.096H181.347C187.334 134.096 192.188 138.95 192.188 144.937C192.188 146.52 190.905 147.803 189.323 147.803Z" fill="white"/>
<path d="M181.347 134.096H163.607C168.672 134.096 172.778 138.202 172.778 143.267V147.803H189.323C190.905 147.803 192.188 146.52 192.188 144.937C192.188 138.95 187.334 134.096 181.347 134.096Z" fill="#8CD981"/>
<path d="M217.422 16.1742H198.077C202.65 16.1742 206.356 19.8809 206.356 24.4532V110.417C206.356 114.989 202.65 118.696 198.077 118.696H217.422C221.994 118.696 225.701 114.989 225.701 110.417V24.4532C225.701 19.8809 221.994 16.1742 217.422 16.1742Z" fill="#C5FFBD"/>
<path d="M94.2988 103.042V110.417C94.2988 114.989 98.0055 118.696 102.578 118.696H217.421C221.994 118.696 225.701 114.989 225.701 110.417V103.042H94.2988Z" fill="white"/>
<path d="M206.356 103.042V110.417C206.356 114.989 202.65 118.696 198.077 118.696H217.422C221.994 118.696 225.701 114.989 225.701 110.417V103.042H206.356Z" fill="#8CD981"/>
<path d="M153.627 7.23164C149.366 2.97012 143.339 1.38017 137.861 2.59131C136.392 2.91621 135.872 4.74726 136.935 5.81103L145.164 14.0391C147.583 16.4587 147.583 20.3812 145.164 22.8009C142.744 25.2205 138.822 25.2205 136.402 22.8009L128.174 14.5729C127.11 13.5091 125.279 14.0294 124.954 15.4983C123.743 20.9766 125.333 27.0032 129.595 31.2647C132.669 34.3395 136.629 35.9895 140.654 36.2147C140.816 36.225 140.979 36.2396 141.141 36.2584C145.318 36.7207 149.207 38.6156 152.179 41.5875L188.628 78.0366C191.879 81.2874 197.149 81.2874 200.4 78.0366C203.65 74.7858 203.65 69.5156 200.4 66.2648L163.95 29.8157C160.978 26.8438 159.083 22.9553 158.621 18.7778C158.602 18.6158 158.588 18.4534 158.577 18.2906C158.352 14.2661 156.702 10.3063 153.627 7.23164Z" fill="#C5FFBD"/>
<path d="M193.946 56.9074C192.894 55.9491 191.518 55.5683 190.189 55.7229C189.996 55.7452 189.803 55.6854 189.668 55.5463L189.632 55.5094C189.529 55.4038 189.469 55.2642 189.462 55.117C189.455 54.9698 189.503 54.8253 189.595 54.7107C189.826 54.4271 190.108 54.0595 190.229 53.8251C191.124 52.0881 190.889 49.9028 189.445 48.4559C187.862 46.868 185.656 46.4725 183.844 47.3159C183.775 47.3479 183.621 47.395 183.559 47.32C183.495 47.2421 183.565 47.1059 183.607 47.0473C184.93 45.1945 184.872 42.6047 183.275 40.8979C181.786 39.3062 179.491 38.9508 177.653 39.8514C177.632 39.8616 177.483 39.9357 177.432 39.8742C177.352 39.7761 177.487 39.6422 177.487 39.6422L177.972 39.157C179.807 37.3225 179.977 34.3333 178.231 32.4146C176.367 30.3677 173.188 30.3193 171.253 32.2544L159.538 43.9506C159.448 44.0405 159.355 44.1234 159.259 44.1996L159.2 44.2588C157.937 45.5212 156.075 45.4846 154.813 44.2219L151.826 41.2438C149.095 44.134 147.487 47.973 147.957 51.927L148.454 56.1094C148.604 57.3656 148.466 58.6394 148.052 59.8347C147.638 61.0301 146.958 62.116 146.063 63.0105L133.225 75.8493L153.943 96.5681L169.206 81.3053C169.956 80.5558 170.841 79.9556 171.814 79.5366L178.64 76.6002C182.101 74.899 185.258 72.6397 187.985 69.9129L194.115 63.8789C196.05 61.9435 195.994 58.771 193.946 56.9074Z" fill="#FFDDCE"/>
<path d="M193.947 56.9074C192.894 55.9491 191.519 55.5683 190.189 55.7229C189.996 55.7452 189.803 55.6854 189.668 55.5463L189.632 55.5094C189.529 55.4038 189.469 55.2642 189.462 55.117C189.455 54.9698 189.503 54.8253 189.596 54.7107C189.826 54.4271 190.109 54.0595 190.229 53.8251C191.124 52.0881 190.889 49.9028 189.446 48.4559C187.862 46.868 185.656 46.4725 183.844 47.3159L174.401 56.3294C171.674 59.0562 168.517 61.3155 165.056 63.0167L158.231 65.9531C157.257 66.3719 156.372 66.9721 155.623 67.7218L150.485 72.859C150.485 72.859 154.071 76.444 150.852 79.4927C149.431 80.9136 147.285 81.1679 145.605 80.2556L141.637 84.2625L153.943 96.5684L169.206 81.3056C169.955 80.5561 170.841 79.9559 171.814 79.5369L178.639 76.6005C182.1 74.8993 185.257 72.64 187.984 69.9132L194.115 63.8792C196.05 61.9436 195.994 58.771 193.947 56.9074Z" fill="#FFCBBE"/>
<path d="M149.985 103.041L163.801 89.2266L140.853 66.2786L104.09 103.041H149.985Z" fill="#C5FFBD"/>
<path d="M150.852 79.4921C149.431 80.913 147.285 81.1673 145.605 80.255L123.042 103.041H149.985L163.801 89.2263L152.083 77.509C151.915 78.1679 151.538 78.8423 150.852 79.4921Z" fill="#8CD981"/>
<path d="M136.119 64.7593C134.388 66.4898 134.388 69.2959 136.119 71.0265L158.168 93.0762C159.899 94.8067 162.705 94.8067 164.436 93.0762C166.166 91.3456 166.166 88.5398 164.436 86.809L142.386 64.7593C140.655 63.0287 137.85 63.0287 136.119 64.7593Z" fill="#FFD064"/>
<path d="M150.485 72.8587C150.485 72.8587 154.07 76.4438 150.852 79.4924C149.431 80.9133 147.285 81.1676 145.605 80.2553L145.477 80.3845L158.168 93.0759C159.899 94.8064 162.705 94.8064 164.435 93.0759C166.166 91.3453 166.166 88.5396 164.435 86.8087L150.485 72.8587Z" fill="#FFC250"/>
<path d="M225.678 33.1087C226.268 33.1087 226.834 32.8742 227.251 32.4568C227.669 32.0394 227.903 31.4733 227.903 30.883V24.4682C227.903 18.6773 223.192 13.9664 217.401 13.9664H160.088C159.19 10.834 157.509 7.98183 155.203 5.6789C150.568 1.04326 143.742 -0.963872 137.388 0.440913C136.667 0.60084 136.002 0.951815 135.462 1.45708C134.923 1.96235 134.53 2.60333 134.323 3.31289C134.115 4.0264 134.102 4.78288 134.286 5.50309C134.47 6.2233 134.844 6.88073 135.37 7.40654L141.93 13.9664H130.708L129.758 13.0172C127.795 11.054 124.502 11.5465 123.192 13.9664H102.598C96.8076 13.9664 92.0967 18.6773 92.0967 24.4682V110.402C92.0967 116.193 96.8079 120.904 102.598 120.904H146.41L143.57 131.847H138.661C131.457 131.847 125.597 137.707 125.597 144.91C125.597 147.716 127.881 150 130.687 150H189.312C192.119 150 194.403 147.716 194.403 144.91C194.403 137.707 188.543 131.847 181.339 131.847H176.43L173.59 120.904H217.401C223.192 120.904 227.903 116.193 227.903 110.402V41.3449C227.903 40.1156 226.907 39.1192 225.677 39.1192C224.448 39.1192 223.452 40.1156 223.452 41.3449V100.803H155.362L159.755 96.4104C161.919 96.9228 164.299 96.3498 166.008 94.6406C168.185 92.463 168.535 89.1393 167.058 86.5928L170.776 82.8741C171.326 82.324 171.975 81.8837 172.69 81.5769C180.235 78.3293 179.531 78.6352 179.615 78.5941C181.023 77.9022 182.386 77.1224 183.696 76.2592L187.043 79.6069C191.165 83.7284 197.836 83.729 201.958 79.6066C206.08 75.4854 206.081 68.8137 201.958 64.6916L197.738 60.4711C197.737 58.5108 196.941 56.6385 195.432 55.2653C194.639 54.5449 193.689 54.0195 192.657 53.7308C193.412 51.3272 192.811 48.6958 191.01 46.8902C189.795 45.6721 188.29 44.9344 186.732 44.7234C186.884 42.8007 186.261 40.8507 184.892 39.3867C183.935 38.3637 182.741 37.6764 181.464 37.3535C182.018 35.1325 181.496 32.7155 179.869 30.9281C177.114 27.9012 172.469 27.8979 169.676 30.6914L168.817 31.5498L165.522 28.2554C162.901 25.6339 161.236 22.1874 160.834 18.5499C160.829 18.5036 160.824 18.4594 160.82 18.4178H217.401C220.737 18.4178 223.452 21.1321 223.452 24.4682V30.883C223.452 31.4733 223.686 32.0394 224.104 32.4568C224.521 32.8742 225.087 33.1087 225.678 33.1087ZM144.755 18.4178C144.759 18.942 144.658 19.4617 144.459 19.9466C144.26 20.4315 143.966 20.8721 143.595 21.2426C142.041 22.7965 139.532 22.7903 137.984 21.2426L135.159 18.4178H144.755ZM181.339 136.298C186.088 136.298 189.951 140.162 189.951 144.91C189.951 145.079 189.884 145.241 189.764 145.361C189.644 145.481 189.482 145.548 189.312 145.549H130.687C130.518 145.548 130.355 145.481 130.236 145.361C130.116 145.241 130.048 145.079 130.048 144.91C130.048 140.161 133.912 136.298 138.66 136.298H181.339ZM148.168 131.847L151.008 120.904H168.991L171.832 131.847H148.168ZM223.452 105.255V110.402C223.452 113.738 220.737 116.452 217.401 116.452H102.598C99.2618 116.452 96.5475 113.738 96.5475 110.402V105.255H223.452ZM149.067 100.803H109.483L120.452 89.8342C120.864 89.4158 121.095 88.8513 121.093 88.2638C121.09 87.6763 120.856 87.1134 120.441 86.698C120.025 86.2825 119.463 86.0482 118.875 86.046C118.288 86.0439 117.723 86.2741 117.305 86.6865L103.188 100.804H96.5478V24.4682C96.5478 21.1321 99.2621 18.4178 102.598 18.4178H122.365C122.176 23.7228 124.211 29.0309 128.032 32.8512C131.369 36.1925 135.822 38.1853 140.537 38.4477C142.942 38.5825 146.096 39.6284 148.707 41.54C146.383 44.7559 145.317 48.535 145.752 52.1953L146.249 56.3763C146.361 57.2979 146.261 58.2329 145.957 59.1102C145.653 59.9874 145.153 60.7836 144.495 61.4382L143.318 62.6156C140.728 60.6161 136.965 60.7758 134.554 63.1863C132.465 65.2749 132.098 68.3364 133.244 70.7476L124.675 79.3172C124.262 79.7356 124.032 80.3001 124.034 80.8876C124.036 81.4751 124.271 82.0379 124.686 82.4534C125.101 82.8688 125.664 83.1032 126.252 83.1053C126.839 83.1075 127.404 82.8772 127.822 82.4648L136.121 74.1659L155.913 93.9577L149.067 100.803ZM162.86 91.493C162.655 91.6977 162.412 91.8601 162.145 91.9709C161.878 92.0817 161.591 92.1388 161.301 92.1387C161.012 92.1387 160.725 92.0816 160.458 91.9708C160.19 91.8599 159.947 91.6975 159.743 91.4927L137.701 69.4509C137.496 69.2463 137.334 69.0033 137.223 68.7359C137.112 68.4685 137.055 68.1818 137.055 67.8923C137.055 67.6028 137.112 67.3162 137.223 67.0487C137.334 66.7813 137.496 66.5383 137.701 66.3337L137.701 66.3334C137.906 66.1285 138.149 65.966 138.416 65.8552C138.684 65.7443 138.97 65.6872 139.26 65.6873C139.549 65.6873 139.836 65.7444 140.103 65.8553C140.371 65.9662 140.614 66.1288 140.818 66.3337C143.043 68.5582 161.273 86.7896 162.86 88.3752C163.72 89.2351 163.72 90.6334 162.86 91.493ZM196.037 65.0645L198.811 67.839C201.188 70.2152 201.188 74.0824 198.811 76.4587C196.435 78.8347 192.568 78.835 190.191 76.459L187.295 73.5627C189.008 72.109 195.85 65.2828 196.037 65.0645ZM172.823 33.8399C173.851 32.8125 175.563 32.8087 176.578 33.9246C177.493 34.9295 177.409 36.5751 176.392 37.5926L175.917 38.0681C173.986 39.9759 176.094 43.0936 178.626 41.8594C179.645 41.3599 180.857 41.5884 181.641 42.4274C182.472 43.3148 182.533 44.7167 181.786 45.762C180.293 47.8567 182.429 50.4366 184.775 49.34C185.768 48.8789 186.978 49.1505 187.859 50.0335C188.568 50.7445 188.724 51.8496 188.25 52.79C188.227 52.8264 188.125 52.9825 187.857 53.3124C186.244 55.2999 187.914 58.231 190.435 57.9375C191.191 57.8496 191.901 58.0696 192.436 58.5571C193.57 59.589 193.537 61.2981 192.542 62.2936C186.568 68.0792 183.901 71.5137 177.701 74.5746L170.931 77.4873C169.698 78.0166 168.577 78.7764 167.629 79.7259L164.068 83.2875L146.504 65.7234L147.642 64.5852C149.951 62.2761 151.054 59.0924 150.669 55.8498L150.172 51.6688C149.888 49.2835 150.551 46.7892 152.014 44.5799L153.241 45.8024C155.307 47.8696 158.562 48.0349 160.754 45.8599C161.103 45.5672 160.466 46.1675 172.823 33.8399ZM162.375 31.4027L165.667 34.6945C150.879 49.4039 161.879 38.4627 157.626 42.6929C157.224 43.0954 156.77 43.0368 156.386 42.6533L153.4 39.6762C153.374 39.6497 153.346 39.6239 153.318 39.5988C149.727 36.2095 144.923 34.2334 140.785 34.0031C137.162 33.8013 133.742 32.2702 131.179 29.7032C127.756 26.2802 126.192 21.3123 127.019 16.6052L127.024 16.5776L134.836 24.3902C138.126 27.6806 143.452 27.6809 146.742 24.3902C148.333 22.8 149.208 20.6856 149.208 18.4371C149.208 16.1883 148.333 14.0739 146.742 12.4837L138.93 4.67138C143.645 3.83261 148.626 5.39677 152.056 8.82656C155.8 12.5713 156.118 16.4133 156.409 19.0397C156.923 23.678 159.042 28.0685 162.375 31.4027Z" fill="#0E6651"/>
</g>
<defs>
<clipPath id="clip0_3078_56">
<rect width="150" height="150" fill="white" transform="translate(85)"/>
</clipPath>
</defs>
</svg>
