<svg width="20" height="20" viewBox="0 0 20 20" fill="none" xmlns="http://www.w3.org/2000/svg">
<g clip-path="url(#clip0_2371_1028)">
<mask id="mask0_2371_1028" style="mask-type:luminance" maskUnits="userSpaceOnUse" x="0" y="8" width="20" height="11">
<path d="M0 8.88892H20V18.125H0V8.88892Z" fill="white"/>
</mask>
<g mask="url(#mask0_2371_1028)">
<path d="M19.0449 9.10815C18.9245 9.10815 18.8095 9.13094 18.6988 9.17651C18.5881 9.22209 18.4905 9.28719 18.4047 9.37183C18.3201 9.45646 18.255 9.55412 18.2094 9.66479C18.1628 9.77439 18.14 9.8894 18.14 10.0098V16.3217H1.85959V10.0098C1.85959 9.8894 1.83681 9.77439 1.79015 9.66479C1.74457 9.55412 1.67947 9.45646 1.59484 9.37183C1.50911 9.28719 1.41146 9.22209 1.30078 9.17651C1.1901 9.13094 1.07509 9.10815 0.954644 9.10815C0.835286 9.10815 0.719184 9.13094 0.608507 9.17651C0.49783 9.22209 0.400173 9.28719 0.315538 9.37183C0.230903 9.45646 0.164713 9.55412 0.119141 9.66479C0.0735676 9.77439 0.0507812 9.8894 0.0507812 10.0098V17.2234C0.0507812 17.3427 0.0735676 17.4578 0.119141 17.5684C0.164713 17.6791 0.230903 17.7768 0.315538 17.8614C0.400173 17.946 0.49783 18.0111 0.608507 18.0567C0.719184 18.1023 0.835286 18.1251 0.954644 18.1251H19.0449C19.1643 18.1251 19.2804 18.1023 19.3911 18.0567C19.5017 18.0111 19.5994 17.946 19.684 17.8614C19.7687 17.7768 19.8349 17.6791 19.8804 17.5684C19.926 17.4578 19.9488 17.3427 19.9488 17.2234V10.0098C19.9488 9.8894 19.926 9.77439 19.8804 9.66479C19.8349 9.55412 19.7687 9.45646 19.684 9.37183C19.5994 9.28719 19.5017 9.22209 19.3911 9.17651C19.2804 9.13094 19.1643 9.10815 19.0449 9.10815Z" fill="white"/>
</g>
<path d="M9.99977 14.5183C10.1202 14.5183 10.2352 14.4955 10.3459 14.4499C10.4566 14.4032 10.5542 14.3381 10.6389 14.2535C10.7246 14.1689 10.7897 14.0723 10.8353 13.9616C10.8808 13.8509 10.9047 13.7359 10.9047 13.6166V3.16843L12.9783 5.23657C13.064 5.31904 13.1617 5.38197 13.2713 5.42537C13.3819 5.46878 13.4959 5.49048 13.6141 5.48939C13.7335 5.48831 13.8474 5.46552 13.9559 5.41995C14.0655 5.37329 14.1621 5.30927 14.2467 5.22572C14.3303 5.14217 14.3954 5.0456 14.441 4.93601C14.4865 4.8275 14.5104 4.71357 14.5115 4.5953C14.5126 4.47702 14.4909 4.36309 14.4464 4.2535C14.403 4.14391 14.34 4.04625 14.2576 3.96162L10.6389 0.354845C10.5542 0.270209 10.4566 0.205105 10.3459 0.159532C10.2352 0.112874 10.1202 0.0900879 9.99977 0.0900879C9.87932 0.0900879 9.76431 0.112874 9.65363 0.159532C9.54295 0.205105 9.4453 0.270209 9.36066 0.354845L5.74195 3.96162C5.65515 4.04517 5.58787 4.14282 5.54013 4.25458C5.4913 4.36526 5.46743 4.48136 5.46635 4.60181C5.46526 4.72333 5.48805 4.83944 5.53362 4.9512C5.57919 5.06296 5.64538 5.1617 5.7311 5.24742C5.81682 5.33314 5.91556 5.39933 6.02841 5.44491C6.14017 5.49048 6.25736 5.51327 6.37889 5.51218C6.49933 5.5111 6.61652 5.48614 6.7272 5.4384C6.83896 5.39065 6.93661 5.32338 7.02125 5.23657L9.09482 3.16843V13.6166C9.09482 13.7359 9.11869 13.8509 9.16426 13.9616C9.20984 14.0723 9.27494 14.1689 9.36066 14.2535C9.4453 14.3381 9.54295 14.4032 9.65363 14.4499C9.76431 14.4955 9.87932 14.5183 9.99977 14.5183Z" fill="white"/>
</g>
<defs>
<clipPath id="clip0_2371_1028">
<rect width="20" height="20" fill="white"/>
</clipPath>
</defs>
</svg>
