<svg width="14" height="14" viewBox="0 0 14 14" fill="none" xmlns="http://www.w3.org/2000/svg">
<circle cx="7" cy="7" r="6.625" fill="#E6E6E6" stroke="black" stroke-width="0.75"/>
<path d="M1 10C1 10 3.8 11 7 11C10.2 11 13 10 13 10" stroke="black" stroke-width="0.75"/>
<path d="M4 1C4 1 3 3.8 3 7C3 10.2 4 13 4 13" stroke="black" stroke-width="0.75"/>
<path d="M13 4C13 4 10.2 3 7 3C3.8 3 1 4 1 4" stroke="black" stroke-width="0.75"/>
<path d="M10 13C10 13 11 10.2 11 7C11 3.8 10 1 10 1" stroke="black" stroke-width="0.75"/>
<rect x="6.66992" y="0.5" width="0.75" height="13" fill="black"/>
<rect x="13.5" y="6.66992" width="0.75" height="13" transform="rotate(90 13.5 6.66992)" fill="black"/>
</svg>
