<svg width="9" height="10" viewBox="0 0 9 10" fill="none" xmlns="http://www.w3.org/2000/svg">
<path d="M4.57422 7.5V7.07812C4.57422 6.75781 4.64193 6.46354 4.77734 6.19531C4.91536 5.92448 5.11458 5.70833 5.375 5.54687C5.63802 5.38281 5.95833 5.30078 6.33594 5.30078C6.71875 5.30078 7.04036 5.38151 7.30078 5.54297C7.5638 5.70443 7.76172 5.92057 7.89453 6.19141C8.02995 6.45964 8.09766 6.75521 8.09766 7.07812V7.5C8.09766 7.82031 8.02995 8.11589 7.89453 8.38672C7.75911 8.65495 7.5599 8.86979 7.29688 9.03125C7.03385 9.19531 6.71354 9.27734 6.33594 9.27734C5.95313 9.27734 5.63151 9.19531 5.37109 9.03125C5.11068 8.86979 4.91276 8.65495 4.77734 8.38672C4.64193 8.11589 4.57422 7.82031 4.57422 7.5ZM5.71094 7.07812V7.5C5.71094 7.6849 5.75521 7.85937 5.84375 8.02344C5.9349 8.1875 6.09896 8.26953 6.33594 8.26953C6.57292 8.26953 6.73438 8.1888 6.82031 8.02734C6.90885 7.86589 6.95313 7.6901 6.95313 7.5V7.07812C6.95313 6.88802 6.91146 6.71094 6.82812 6.54687C6.74479 6.38281 6.58073 6.30078 6.33594 6.30078C6.10156 6.30078 5.9388 6.38281 5.84766 6.54687C5.75651 6.71094 5.71094 6.88802 5.71094 7.07812ZM0.46875 2.92188V2.5C0.46875 2.17708 0.53776 1.88151 0.675781 1.61328C0.813802 1.34245 1.01302 1.1263 1.27344 0.964844C1.53646 0.803385 1.85417 0.722656 2.22656 0.722656C2.61198 0.722656 2.9349 0.803385 3.19531 0.964844C3.45573 1.1263 3.65365 1.34245 3.78906 1.61328C3.92448 1.88151 3.99219 2.17708 3.99219 2.5V2.92188C3.99219 3.24479 3.92318 3.54036 3.78516 3.80859C3.64974 4.07682 3.45052 4.29167 3.1875 4.45312C2.92708 4.61198 2.60677 4.69141 2.22656 4.69141C1.84635 4.69141 1.52474 4.61068 1.26172 4.44922C1.0013 4.28516 0.803385 4.07031 0.667969 3.80469C0.535156 3.53646 0.46875 3.24219 0.46875 2.92188ZM1.61328 2.5V2.92188C1.61328 3.11198 1.65755 3.28776 1.74609 3.44922C1.83724 3.61068 1.9974 3.69141 2.22656 3.69141C2.46615 3.69141 2.62891 3.61068 2.71484 3.44922C2.80339 3.28776 2.84766 3.11198 2.84766 2.92188V2.5C2.84766 2.3099 2.80599 2.13281 2.72266 1.96875C2.63932 1.80469 2.47396 1.72266 2.22656 1.72266C1.99479 1.72266 1.83464 1.80599 1.74609 1.97266C1.65755 2.13932 1.61328 2.3151 1.61328 2.5ZM0.984375 9L6.48437 1H7.50781L2.00781 9H0.984375Z" fill="#6D6D6D"/>
</svg>
