<svg width="42" height="41" viewBox="0 0 42 41" fill="none" xmlns="http://www.w3.org/2000/svg">
<rect x="0.625" y="0.625" width="33.75" height="32.75" rx="1.375" stroke="#BFBFBF" stroke-width="1.25"/>
<rect x="0.625" y="13.625" width="33.75" height="4.75" stroke="#BFBFBF" stroke-width="1.25"/>
<rect x="0.625" y="23.625" width="33.75" height="4.75" stroke="#BFBFBF" stroke-width="1.25"/>
<path d="M2 0.625H33C33.7594 0.625 34.375 1.24061 34.375 2V8.375H0.625V2C0.625 1.24061 1.24061 0.625 2 0.625Z" stroke="#BFBFBF" stroke-width="1.25"/>
<rect x="12.4375" y="8.3125" width="25.375" height="0.625" transform="rotate(90 12.4375 8.3125)" fill="white" stroke="#BFBFBF" stroke-width="0.625"/>
<rect x="23.9375" y="8.3125" width="25.375" height="0.625" transform="rotate(90 23.9375 8.3125)" fill="white" stroke="#BFBFBF" stroke-width="0.625"/>
<path d="M30.7716 27.3411L33.3659 38.0559C33.4325 38.3309 33.8078 38.3693 33.9287 38.1135L35.9007 33.9426C35.9355 33.869 35.9987 33.8127 36.0758 33.7866L40.4081 32.3211C40.659 32.2362 40.6848 31.8916 40.4494 31.7702L31.2007 27.0038C30.9722 26.8861 30.7112 27.0913 30.7716 27.3411Z" fill="#BFBFBF" stroke="#BFBFBF"/>
</svg>
