<svg width="32" height="32" viewBox="0 0 32 32" fill="none" xmlns="http://www.w3.org/2000/svg">
<path d="M25.3213 2.66699H12.0133C10.532 2.66699 9.33329 3.86566 9.33329 5.34699V12.863L3.06396 19.0523C2.87611 19.2381 2.74769 19.4755 2.695 19.7344C2.64231 19.9933 2.66772 20.262 2.768 20.5064C2.86829 20.7509 3.03893 20.96 3.25827 21.1073C3.47761 21.2546 3.73576 21.3333 3.99996 21.3337V28.0003C3.99996 28.354 4.14043 28.6931 4.39048 28.9431C4.64053 29.1932 4.97967 29.3337 5.33329 29.3337H26.6666C27.0202 29.3337 27.3594 29.1932 27.6094 28.9431C27.8595 28.6931 28 28.354 28 28.0003V5.34566C28 3.86566 26.8026 2.66699 25.3213 2.66699ZM14.5626 20.1483V26.667H6.66662V19.243L10.6493 15.311L14.5626 19.315V20.1483ZM17.3333 12.0003H14.6666V9.33366H17.3333V12.0003ZM22.6666 22.667H20V20.0003H22.6666V22.667ZM22.6666 17.3337H20V14.667H22.6666V17.3337ZM22.6666 12.0003H20V9.33366H22.6666V12.0003Z" fill="#0E6651"/>
<path d="M9.33334 20H12V22.6667H9.33334V20Z" fill="#0E6651"/>
</svg>
