<svg width="42" height="33" viewBox="0 0 42 33" fill="none" xmlns="http://www.w3.org/2000/svg">
<path d="M0 28.1667V4.33333C0 1.95 1.95 0 4.33333 0H36.8333C39.2167 0 41.1667 1.95 41.1667 4.33333V28.1667C41.1667 30.55 39.2167 32.5 36.8333 32.5H4.33333C1.95 32.5 0 30.55 0 28.1667Z" fill="#FF9800"/>
<path d="M41.1667 13.0007V10.834H28.1667C26.975 10.834 26 9.85898 26 8.66732C26 7.47565 26.975 6.50065 28.1667 6.50065H29.25V4.33398H28.1667C25.7833 4.33398 23.8333 6.28398 23.8333 8.66732C23.8333 11.0507 25.7833 13.0007 28.1667 13.0007H31.4167V19.5007H28.1667C25.1333 19.5007 22.75 21.884 22.75 24.9173C22.75 27.9507 25.1333 30.334 28.1667 30.334H30.3333V28.1673H28.1667C26.325 28.1673 24.9167 26.759 24.9167 24.9173C24.9167 23.0757 26.325 21.6673 28.1667 21.6673H41.1667V19.5007H33.5833V13.0007H41.1667ZM13 19.5007H9.75V13.0007H13C15.3833 13.0007 17.3333 11.0507 17.3333 8.66732C17.3333 6.28398 15.3833 4.33398 13 4.33398H9.75V6.50065H13C14.1917 6.50065 15.1667 7.47565 15.1667 8.66732C15.1667 9.85898 14.1917 10.834 13 10.834H0V13.0007H7.58333V19.5007H0V21.6673H13C14.8417 21.6673 16.25 23.0757 16.25 24.9173C16.25 26.759 14.8417 28.1673 13 28.1673H10.8333V30.334H13C16.0333 30.334 18.4167 27.9507 18.4167 24.9173C18.4167 21.884 16.0333 19.5007 13 19.5007Z" fill="#FFD54F"/>
</svg>
