<svg width="14" height="14" viewBox="0 0 14 14" fill="none" xmlns="http://www.w3.org/2000/svg">
<g clip-path="url(#clip0_1580_502)">
<path d="M9.1875 0.875C8.57264 0.874859 7.96629 1.01875 7.41704 1.29514C6.8678 1.57152 6.39094 1.97272 6.02466 2.46659C5.65839 2.96045 5.4129 3.53325 5.30785 4.13907C5.2028 4.7449 5.24113 5.3669 5.41975 5.95525L0.875 10.5V13.125H3.5L8.04475 8.58025C8.58633 8.74464 9.15699 8.79035 9.71783 8.71425C10.2787 8.63815 10.8165 8.44203 11.2947 8.13927C11.7729 7.8365 12.1802 7.43421 12.4889 6.9598C12.7975 6.48538 13.0003 5.95 13.0833 5.39014C13.1663 4.83029 13.1277 4.25911 12.97 3.71553C12.8123 3.17196 12.5393 2.66876 12.1696 2.24025C11.7998 1.81173 11.3421 1.46795 10.8275 1.23235C10.3128 0.996756 9.75348 0.874869 9.1875 0.875ZM9.1875 7.875C8.88629 7.87484 8.58674 7.83032 8.2985 7.74288L7.79669 7.59063L7.42613 7.96119L6.03444 9.35287L5.43112 8.75L4.8125 9.36862L5.41581 9.97194L4.72194 10.6658L4.11862 10.0625L3.5 10.6811L4.10331 11.2844L3.13775 12.25H1.75V10.8622L6.03837 6.57387L6.40937 6.20331L6.25712 5.7015C6.07013 5.08506 6.08228 4.42535 6.29184 3.81621C6.5014 3.20707 6.89771 2.67952 7.42439 2.30861C7.95107 1.9377 8.5813 1.74231 9.22543 1.75023C9.86956 1.75816 10.4948 1.96899 11.0122 2.35275C11.5296 2.73651 11.9128 3.27365 12.1073 3.88776C12.3018 4.50187 12.2977 5.16168 12.0956 5.77333C11.8935 6.38498 11.5037 6.91733 10.9816 7.29466C10.4595 7.67198 9.83168 7.87505 9.1875 7.875Z" fill="#0E6651"/>
<path d="M9.625 5.25C10.1082 5.25 10.5 4.85825 10.5 4.375C10.5 3.89175 10.1082 3.5 9.625 3.5C9.14175 3.5 8.75 3.89175 8.75 4.375C8.75 4.85825 9.14175 5.25 9.625 5.25Z" fill="#0E6651"/>
</g>
<defs>
<clipPath id="clip0_1580_502">
<rect width="14" height="14" fill="white"/>
</clipPath>
</defs>
</svg>
