<svg width="65" height="66" viewBox="0 0 65 66" fill="none" xmlns="http://www.w3.org/2000/svg">
<path d="M6.77075 48.0462V18.2546C6.77075 15.2754 9.20825 12.8379 12.1874 12.8379H52.8124C55.7916 12.8379 58.2291 15.2754 58.2291 18.2546V48.0462C58.2291 51.0254 55.7916 53.4629 52.8124 53.4629H12.1874C9.20825 53.4629 6.77075 51.0254 6.77075 48.0462Z" fill="#333333"/>
<path d="M58.2291 29.0882V26.3799H41.9791C40.4895 26.3799 39.2708 25.1611 39.2708 23.6715C39.2708 22.182 40.4895 20.9632 41.9791 20.9632H43.3333V18.2549H41.9791C38.9999 18.2549 36.5624 20.6924 36.5624 23.6715C36.5624 26.6507 38.9999 29.0882 41.9791 29.0882H46.0416V37.2132H41.9791C38.1874 37.2132 35.2083 40.1924 35.2083 43.984C35.2083 47.7757 38.1874 50.7549 41.9791 50.7549H44.6874V48.0465H41.9791C39.677 48.0465 37.9166 46.2861 37.9166 43.984C37.9166 41.682 39.677 39.9215 41.9791 39.9215H58.2291V37.2132H48.7499V29.0882H58.2291ZM23.0208 37.2132H18.9583V29.0882H23.0208C25.9999 29.0882 28.4374 26.6507 28.4374 23.6715C28.4374 20.6924 25.9999 18.2549 23.0208 18.2549H18.9583V20.9632H23.0208C24.5103 20.9632 25.7291 22.182 25.7291 23.6715C25.7291 25.1611 24.5103 26.3799 23.0208 26.3799H6.77075V29.0882H16.2499V37.2132H6.77075V39.9215H23.0208C25.3228 39.9215 27.0833 41.682 27.0833 43.984C27.0833 46.2861 25.3228 48.0465 23.0208 48.0465H20.3124V50.7549H23.0208C26.8124 50.7549 29.7916 47.7757 29.7916 43.984C29.7916 40.1924 26.8124 37.2132 23.0208 37.2132Z" fill="#9A9A9A"/>
</svg>
