<svg width="34" height="33" viewBox="0 0 34 33" fill="none" xmlns="http://www.w3.org/2000/svg">
<g clip-path="url(#clip0_2598_4)">
<path d="M11.5144 3.43945C10.3499 3.44408 9.23435 3.90874 8.41091 4.73218C7.58746 5.55563 7.12281 6.67113 7.11818 7.83564C7.11818 10.2498 9.10023 12.2318 11.5144 12.2318C13.9285 12.2318 15.9106 10.2498 15.9106 7.83564C15.9106 5.42151 13.9285 3.43945 11.5144 3.43945ZM22.8189 3.43945C21.6543 3.44408 20.5388 3.90874 19.7154 4.73218C18.892 5.55563 18.4273 6.67113 18.4227 7.83564C18.4227 10.2498 20.4047 12.2318 22.8189 12.2318C25.233 12.2318 27.2151 10.2498 27.2151 7.83564C27.2151 5.42151 25.233 3.43945 22.8189 3.43945ZM11.5144 5.95156C12.5695 5.95156 13.3985 6.78056 13.3985 7.83564C13.3985 8.89073 12.5695 9.71973 11.5144 9.71973C10.4593 9.71973 9.63029 8.89073 9.63029 7.83564C9.63029 6.78056 10.4593 5.95156 11.5144 5.95156ZM22.8189 5.95156C23.8739 5.95156 24.7029 6.78056 24.7029 7.83564C24.7029 8.89073 23.8739 9.71973 22.8189 9.71973C21.7638 9.71973 20.9348 8.89073 20.9348 7.83564C20.9348 6.78056 21.7638 5.95156 22.8189 5.95156ZM5.86212 10.9758C3.0988 10.9758 0.837903 13.2367 0.837903 16C0.837903 17.398 1.43704 18.6591 2.36903 19.5722C1.51407 20.1492 0.813152 20.9264 0.327357 21.8363C-0.158438 22.7461 -0.414374 23.761 -0.418152 24.7924H2.09396C2.09396 22.6973 3.76702 21.0242 5.86212 21.0242C7.95722 21.0242 9.63029 22.6973 9.63029 24.7924H12.1424C12.1386 23.761 11.8827 22.7461 11.3969 21.8363C10.9111 20.9264 10.2102 20.1492 9.35521 19.5722C10.2872 18.6591 10.8863 17.3992 10.8863 16C10.8863 13.2367 8.62544 10.9758 5.86212 10.9758ZM12.1424 24.7924C11.3574 25.8424 10.8863 27.1626 10.8863 28.5605H13.3985C13.3985 26.4654 15.0715 24.7924 17.1666 24.7924C19.2617 24.7924 20.9348 26.4654 20.9348 28.5605H23.4469C23.4447 27.202 23.0042 25.8805 22.1908 24.7924C21.7638 24.2234 21.2488 23.7373 20.6597 23.3404C21.5917 22.4272 22.1908 21.1674 22.1908 19.7682C22.1908 17.0048 19.9299 14.7439 17.1666 14.7439C14.4033 14.7439 12.1424 17.0048 12.1424 19.7682C12.1424 21.1662 12.7415 22.4272 13.6735 23.3404C13.0855 23.7354 12.568 24.2262 12.1424 24.7924ZM22.1908 24.7924H24.7029C24.7029 22.6973 26.376 21.0242 28.4711 21.0242C30.5662 21.0242 32.2393 22.6973 32.2393 24.7924H34.7514C34.7476 23.761 34.4917 22.7461 34.0059 21.8363C33.5201 20.9264 32.8192 20.1492 31.9642 19.5722C32.8962 18.6591 33.4953 17.3992 33.4953 16C33.4953 13.2367 31.2344 10.9758 28.4711 10.9758C25.7078 10.9758 23.4469 13.2367 23.4469 16C23.4469 17.398 24.046 18.6591 24.978 19.5722C24.1231 20.1492 23.4221 20.9264 22.9363 21.8363C22.4505 22.7461 22.1946 23.761 22.1908 24.7924ZM5.86212 13.4879C7.26514 13.4879 8.37423 14.597 8.37423 16C8.37423 17.403 7.26514 18.5121 5.86212 18.5121C4.45911 18.5121 3.35001 17.403 3.35001 16C3.35001 14.597 4.45911 13.4879 5.86212 13.4879ZM28.4711 13.4879C29.8741 13.4879 30.9832 14.597 30.9832 16C30.9832 17.403 29.8741 18.5121 28.4711 18.5121C27.0681 18.5121 25.959 17.403 25.959 16C25.959 14.597 27.0681 13.4879 28.4711 13.4879ZM17.1666 17.2561C18.5696 17.2561 19.6787 18.3652 19.6787 19.7682C19.6787 21.1712 18.5696 22.2803 17.1666 22.2803C15.7636 22.2803 14.6545 21.1712 14.6545 19.7682C14.6545 18.3652 15.7636 17.2561 17.1666 17.2561Z" fill="#3C3C3C"/>
</g>
<defs>
<clipPath id="clip0_2598_4">
<rect width="34" height="33" fill="white"/>
</clipPath>
</defs>
</svg>
