<svg width="14" height="14" viewBox="0 0 14 14" fill="none" xmlns="http://www.w3.org/2000/svg">
<g clip-path="url(#clip0_1580_490)">
<path d="M9.7921 4.79102L7.49377 7.05046C7.24584 6.93104 6.96368 6.90309 6.69714 6.97158C6.43061 7.04006 6.19686 7.20055 6.03721 7.4247C5.87756 7.64885 5.80228 7.92221 5.82467 8.19649C5.84707 8.47077 5.9657 8.7283 6.1596 8.92358C6.3535 9.11886 6.61019 9.2393 6.8843 9.26364C7.15842 9.28797 7.43231 9.21463 7.65758 9.05656C7.88285 8.8985 8.04499 8.66589 8.11536 8.39985C8.18572 8.1338 8.15977 7.85145 8.0421 7.60268L10.3443 5.34324L9.7921 4.79102Z" fill="#0E6651"/>
<path d="M6.99996 1.65235C5.77602 1.65095 4.57724 1.99983 3.5452 2.65781C2.51316 3.31578 1.69097 4.25536 1.17573 5.36557C0.660494 6.47578 0.473733 7.71026 0.637505 8.92319C0.801277 10.1361 1.30874 11.2769 2.09996 12.2107L2.21663 12.3468H11.7833L11.9 12.2107C12.6912 11.2769 13.1986 10.1361 13.3624 8.92319C13.5262 7.71026 13.3394 6.47578 12.8242 5.36557C12.309 4.25536 11.4868 3.31578 10.4547 2.65781C9.42268 1.99983 8.2239 1.65095 6.99996 1.65235ZM11.41 11.569H2.58996C1.89217 10.6958 1.47103 9.63419 1.38052 8.52012H2.72218V7.74235H1.38052C1.44564 6.50752 1.91736 5.3289 2.72218 4.39013L3.67496 5.3429L4.22329 4.79457L3.2783 3.8379C4.20512 3.01872 5.37694 2.52921 6.61107 2.44568V3.80679H7.38885V2.44957C8.75209 2.54843 10.0327 3.14009 10.9917 4.11406C11.9506 5.08803 12.5223 6.37773 12.6 7.74235H11.2466V8.52012H12.6194C12.5289 9.63419 12.1077 10.6958 11.41 11.569Z" fill="#0E6651"/>
</g>
<defs>
<clipPath id="clip0_1580_490">
<rect width="14" height="14" fill="white"/>
</clipPath>
</defs>
</svg>
