<svg width="28" height="28" viewBox="0 0 28 28" fill="none" xmlns="http://www.w3.org/2000/svg">
<path d="M13.9998 19.833L18.6665 15.1663L17.0332 13.533L15.1665 15.3413V10.4997H12.8332V15.3413L10.9665 13.533L9.33317 15.1663L13.9998 19.833ZM6.99984 25.6663C6.35817 25.6663 5.80906 25.4381 5.3525 24.9815C4.89517 24.5242 4.6665 23.9747 4.6665 23.333V9.33301L11.6665 2.33301H20.9998C21.6415 2.33301 22.191 2.56129 22.6483 3.01784C23.1049 3.47517 23.3332 4.02467 23.3332 4.66634V23.333C23.3332 23.9747 23.1049 24.5242 22.6483 24.9815C22.191 25.4381 21.6415 25.6663 20.9998 25.6663H6.99984Z" fill="#1660A4"/>
</svg>
