<svg width="17" height="17" viewBox="0 0 17 17" fill="none" xmlns="http://www.w3.org/2000/svg">
<path d="M15.3068 4.17352C15.5766 4.44324 15.5745 4.88241 15.3013 5.15559L6.11271 14.3442L3.69211 15.0358L1.27151 15.7274L2.65471 10.8862L11.8433 1.69759C11.9072 1.6324 11.9834 1.58052 12.0675 1.54493C12.1516 1.50935 12.2419 1.49076 12.3332 1.49025C12.4245 1.48973 12.515 1.5073 12.5995 1.54194C12.6839 1.57657 12.7607 1.6276 12.8254 1.69206L15.3068 4.17352ZM1.96311 13.6526L3.34631 15.0358L1.96311 13.6526ZM4.72951 12.2694L10.2623 6.73658L4.72951 12.2694Z" fill="white"/>
<path d="M9.57071 3.27859L13.7203 7.42818M1.96311 13.6526L3.34631 15.0358M4.72951 12.2694L10.2623 6.73658M15.3068 4.17352C15.5766 4.44324 15.5745 4.88241 15.3013 5.15559L6.11271 14.3442L3.69211 15.0358L1.27151 15.7274L2.65471 10.8862L11.8433 1.69759C11.9072 1.6324 11.9834 1.58052 12.0675 1.54493C12.1516 1.50935 12.2419 1.49076 12.3332 1.49025C12.4245 1.48973 12.515 1.5073 12.5995 1.54194C12.6839 1.57657 12.7607 1.6276 12.8254 1.69206L15.3068 4.17352Z" stroke="#0E6651"/>
</svg>
