<svg width="32" height="32" viewBox="0 0 32 32" fill="none" xmlns="http://www.w3.org/2000/svg">
<path d="M16 29C16.748 29 19.672 26.864 22.002 24.214C25.108 20.684 27 16.744 27 13C27 7.074 22.13 3 16 3C9.87 3 5 7.074 5 13C5 16.76 6.892 20.7 9.998 24.226C12.326 26.87 15.25 29 16 29ZM16 15.4C16.5304 15.4 17.0391 15.1893 17.4142 14.8142C17.7893 14.4391 18 13.9304 18 13.4C18 12.8696 17.7893 12.3609 17.4142 11.9858C17.0391 11.6107 16.5304 11.4 16 11.4C15.4696 11.4 14.9609 11.6107 14.5858 11.9858C14.2107 12.3609 14 12.8696 14 13.4C14 13.9304 14.2107 14.4391 14.5858 14.8142C14.9609 15.1893 15.4696 15.4 16 15.4ZM16 19.8C14.3026 19.8 12.6747 19.1257 11.4745 17.9255C10.2743 16.7253 9.6 15.0974 9.6 13.4C9.6 11.7026 10.2743 10.0747 11.4745 8.87452C12.6747 7.67428 14.3026 7 16 7C17.6974 7 19.3253 7.67428 20.5255 8.87452C21.7257 10.0747 22.4 11.7026 22.4 13.4C22.4 15.0974 21.7257 16.7253 20.5255 17.9255C19.3253 19.1257 17.6974 19.8 16 19.8Z" fill="#0E6651"/>
</svg>
