<svg width="82" height="76" viewBox="0 0 82 76" fill="none" xmlns="http://www.w3.org/2000/svg">
<g clip-path="url(#clip0_2069_16)">
<mask id="mask0_2069_16" style="mask-type:luminance" maskUnits="userSpaceOnUse" x="0" y="0" width="82" height="76">
<path d="M82 0H0V76H82V0Z" fill="white"/>
</mask>
<g mask="url(#mask0_2069_16)">
<path d="M76.886 37.6152H58.685C56.467 37.6152 54.5 38.9892 53.82 41.0212C52.017 46.3962 46.863 50.0042 41.001 50.0042C35.137 50.0042 29.985 46.3962 28.183 41.0212C27.501 38.9892 25.536 37.6152 23.316 37.6152H5.11598C2.29098 37.6152 0.000976562 39.8152 0.000976562 42.5342V70.5882C0.000976562 73.3022 2.29098 75.5052 5.11598 75.5052H76.887C79.714 75.5052 82.001 73.3022 82.001 70.5882V42.5342C82 39.8152 79.712 37.6152 76.886 37.6152Z" fill="white"/>
<path d="M26.81 22.2761H33.463V39.4641C33.463 40.1991 34.08 40.7901 34.839 40.7901H47.156C47.918 40.7901 48.532 40.1991 48.532 39.4641V22.2761H55.19C55.704 22.2761 56.176 21.9971 56.411 21.5601C56.5273 21.3454 56.5795 21.1017 56.5614 20.8582C56.5433 20.6146 56.4557 20.3814 56.309 20.1861L42.072 1.04813C41.9411 0.875561 41.7718 0.735779 41.5776 0.63981C41.3835 0.543841 41.1696 0.494311 40.953 0.495127H40.95C40.505 0.495127 40.091 0.702128 39.831 1.05313L25.686 20.1871C25.541 20.3832 25.4546 20.6164 25.4369 20.8596C25.4192 21.1029 25.4709 21.3461 25.586 21.5611C25.821 22.0021 26.296 22.2761 26.81 22.2761Z" fill="white"/>
</g>
</g>
<defs>
<clipPath id="clip0_2069_16">
<rect width="82" height="76" fill="white"/>
</clipPath>
</defs>
</svg>
