<svg width="32" height="32" viewBox="0 0 32 32" fill="none" xmlns="http://www.w3.org/2000/svg">
<path d="M3.42859 11.5699L15.6046 17.9024C15.7267 17.9659 15.8624 17.9991 16 17.9991C16.1377 17.9991 16.2733 17.9659 16.3954 17.9024L28.5714 11.571V22.571C28.5715 23.5197 28.2085 24.4325 27.557 25.1221C26.9054 25.8117 26.0147 26.2259 25.0674 26.2796L24.8572 26.2853H7.14288C6.19415 26.2854 5.28136 25.9224 4.59175 25.2708C3.90215 24.6192 3.48802 23.7285 3.4343 22.7813L3.42859 22.571V11.5699ZM7.14288 5.71387H24.8572C25.8059 5.71381 26.7187 6.07679 27.4083 6.72835C28.0979 7.37991 28.512 8.27066 28.5657 9.21787L28.5714 9.42815V9.63844L16 16.1756L3.42859 9.63844V9.42815C3.42853 8.47942 3.79151 7.56663 4.44307 6.87703C5.09463 6.18743 5.98538 5.77329 6.93259 5.71958L7.14288 5.71387H24.8572H7.14288Z" fill="#0E6651"/>
</svg>
