<svg width="24" height="25" viewBox="0 0 24 25" fill="none" xmlns="http://www.w3.org/2000/svg">
<path opacity="0.5" d="M15.2729 19.3789C13.9423 19.3791 12.6414 18.9847 11.5349 18.2455C10.4284 17.5064 9.56588 16.4558 9.05647 15.2265C8.54706 13.9972 8.41362 12.6444 8.67303 11.3393C8.93244 10.0341 9.57304 8.83521 10.5138 7.89415C11.4546 6.95308 12.6533 6.31212 13.9584 6.05233C15.2635 5.79253 16.6163 5.92557 17.8457 6.43461C19.0752 6.94365 20.1261 7.80584 20.8655 8.91215C21.605 10.0185 21.9998 11.3192 21.9999 12.6499V12.6509C21.9981 14.4345 21.2888 16.1446 20.0277 17.4059C18.7665 18.6672 17.0566 19.3767 15.2729 19.3789Z" fill="#F79E1B"/>
<path d="M8.72703 19.3789C7.39635 19.3789 6.09556 18.9843 4.98915 18.245C3.88274 17.5057 3.02039 16.4549 2.51116 15.2255C2.00194 13.9962 1.8687 12.6434 2.1283 11.3383C2.3879 10.0332 3.02868 8.83437 3.96961 7.89344C4.91054 6.95251 6.10935 6.31173 7.41446 6.05213C8.71956 5.79253 10.0723 5.92577 11.3017 6.43499C12.5311 6.94422 13.5819 7.80656 14.3212 8.91298C15.0604 10.0194 15.455 11.3202 15.455 12.6509C15.4532 14.4347 14.7437 16.1449 13.4824 17.4062C12.2211 18.6676 10.5108 19.377 8.72703 19.3789Z" fill="#EB001B"/>
</svg>
