<svg width="14" height="14" viewBox="0 0 14 14" fill="none" xmlns="http://www.w3.org/2000/svg">
<path d="M3.35664 12.8366C3.00854 12.8366 2.6747 12.6983 2.42856 12.4522C2.18242 12.206 2.04414 11.8722 2.04414 11.5241L2.04297 3.35449C2.04297 3.0064 2.18125 2.67256 2.42739 2.42641C2.67353 2.18027 3.00737 2.04199 3.35547 2.04199L3.79122 2.04141L3.7918 1.60449C3.79181 1.49877 3.83009 1.39663 3.89958 1.31695C3.96907 1.23727 4.06506 1.18545 4.1698 1.17108L4.2293 1.16699C4.33502 1.167 4.43717 1.20528 4.51684 1.27477C4.59652 1.34426 4.64834 1.44025 4.66272 1.54499L4.6668 1.60449V2.04141H6.4168V1.60449C6.41684 1.4986 6.4553 1.39631 6.52502 1.31661C6.59475 1.2369 6.69102 1.1852 6.79597 1.17108L6.8543 1.16699C6.96012 1.16686 7.06241 1.20508 7.14221 1.27458C7.22201 1.34408 7.27391 1.44015 7.2883 1.54499L7.29238 1.60449V2.04141H9.04063L9.04122 1.60449C9.04122 1.49877 9.07951 1.39663 9.149 1.31695C9.21849 1.23727 9.31448 1.18545 9.41922 1.17108L9.4793 1.16699C9.58502 1.167 9.68717 1.20528 9.76684 1.27477C9.84652 1.34426 9.89834 1.44025 9.91272 1.54499L9.9168 1.60449V2.04141H10.3537C10.7018 2.04141 11.0357 2.17969 11.2818 2.42583C11.5279 2.67197 11.6662 3.00581 11.6662 3.35391L11.6668 9.77058C11.6668 9.80558 11.6627 9.84057 11.6551 9.87324L11.6376 9.92807L11.6114 9.98407L11.5997 10.0027C11.5826 10.031 11.562 10.0571 11.5385 10.0803L8.91113 12.7082C8.89571 12.7237 8.87913 12.7379 8.86155 12.7508L8.91113 12.7082C8.89231 12.727 8.87181 12.744 8.84988 12.759L8.79855 12.7893L8.73088 12.8167L8.66438 12.8319L8.63347 12.8354L8.60138 12.8366H3.35664ZM10.3531 2.91699H3.34964C3.23462 2.91853 3.12483 2.9653 3.04404 3.04718C2.96325 3.12906 2.91796 3.23946 2.91797 3.35449L2.91914 11.5235C2.91914 11.7656 3.11514 11.961 3.35664 11.961H8.1633L8.16388 10.6462C8.16384 10.3136 8.29006 9.9934 8.51702 9.7503C8.74398 9.50721 9.05476 9.35934 9.38655 9.33657L9.47638 9.33366H10.7918V3.35449C10.7918 3.23846 10.7457 3.12718 10.6637 3.04513C10.5816 2.96309 10.4703 2.91699 10.3543 2.91699H10.3531ZM10.1723 10.2087H9.47638C9.37066 10.2087 9.26852 10.2469 9.18884 10.3164C9.10916 10.3859 9.05735 10.4819 9.04297 10.5867L9.03888 10.6462V11.3427L10.1723 10.2087ZM4.2293 9.33366H6.56147C6.67231 9.33369 6.77902 9.3758 6.86001 9.45148C6.94101 9.52715 6.99026 9.63075 6.99782 9.74134C7.00537 9.85193 6.97067 9.96126 6.90072 10.0472C6.83076 10.1332 6.73078 10.1895 6.62097 10.2046L6.56147 10.2087H4.2293C4.11845 10.2086 4.01175 10.1665 3.93076 10.0908C3.84976 10.0152 3.80051 9.91157 3.79295 9.80098C3.7854 9.69039 3.8201 9.58105 3.89005 9.49507C3.96001 9.40908 4.05999 9.35285 4.1698 9.33774L4.2293 9.33366H6.56147H4.2293ZM4.2293 7.00033H9.47813C9.58898 7.00036 9.69568 7.04247 9.77668 7.11814C9.85768 7.19382 9.90693 7.29742 9.91448 7.40801C9.92204 7.51859 9.88733 7.62793 9.81738 7.71392C9.74743 7.7999 9.64745 7.85613 9.53763 7.87124L9.47813 7.87533H4.2293C4.11845 7.87529 4.01175 7.83318 3.93076 7.75751C3.84976 7.68183 3.80051 7.57823 3.79295 7.46765C3.7854 7.35706 3.8201 7.24772 3.89005 7.16173C3.96001 7.07575 4.05999 7.01952 4.1698 7.00441L4.2293 7.00033H9.47813H4.2293ZM4.2293 4.66699H9.47813C9.58898 4.66703 9.69568 4.70913 9.77668 4.78481C9.85768 4.86048 9.90693 4.96408 9.91448 5.07467C9.92204 5.18526 9.88733 5.2946 9.81738 5.38058C9.74743 5.46657 9.64745 5.5228 9.53763 5.53791L9.47813 5.54199H4.2293C4.11845 5.54196 4.01175 5.49985 3.93076 5.42417C3.84976 5.3485 3.80051 5.2449 3.79295 5.13431C3.7854 5.02372 3.8201 4.91439 3.89005 4.8284C3.96001 4.74241 4.05999 4.68618 4.1698 4.67108L4.2293 4.66699H9.47813H4.2293Z" fill="#0E6651"/>
</svg>
