<svg width="18" height="19" viewBox="0 0 18 19" fill="none" xmlns="http://www.w3.org/2000/svg">
<path d="M11.8125 9.65039C11.8125 10.3963 11.5162 11.1117 10.9887 11.6391C10.4613 12.1666 9.74592 12.4629 9 12.4629C8.25408 12.4629 7.53871 12.1666 7.01126 11.6391C6.48382 11.1117 6.1875 10.3963 6.1875 9.65039C6.1875 8.90447 6.48382 8.1891 7.01126 7.66165C7.53871 7.13421 8.25408 6.83789 9 6.83789C9.74592 6.83789 10.4613 7.13421 10.9887 7.66165C11.5162 8.1891 11.8125 8.90447 11.8125 9.65039V9.65039Z" fill="#0E6651"/>
<path d="M0 9.65039C0 9.65039 3.375 3.46289 9 3.46289C14.625 3.46289 18 9.65039 18 9.65039C18 9.65039 14.625 15.8379 9 15.8379C3.375 15.8379 0 9.65039 0 9.65039ZM9 13.5879C10.0443 13.5879 11.0458 13.173 11.7842 12.4346C12.5227 11.6962 12.9375 10.6947 12.9375 9.65039C12.9375 8.6061 12.5227 7.60458 11.7842 6.86616C11.0458 6.12773 10.0443 5.71289 9 5.71289C7.95571 5.71289 6.95419 6.12773 6.21577 6.86616C5.47734 7.60458 5.0625 8.6061 5.0625 9.65039C5.0625 10.6947 5.47734 11.6962 6.21577 12.4346C6.95419 13.173 7.95571 13.5879 9 13.5879V13.5879Z" fill="#0E6651"/>
</svg>
