<svg width="18" height="19" viewBox="0 0 18 19" fill="none" xmlns="http://www.w3.org/2000/svg">
<path d="M12.1387 15.1764L10.323 13.3595C9.62082 13.6106 8.86179 13.6571 8.13422 13.4936C7.40665 13.3301 6.74047 12.9634 6.21317 12.4361C5.68588 11.9088 5.31916 11.2426 5.15568 10.515C4.99221 9.78747 5.0387 9.02844 5.28975 8.32627L2.97225 6.00877C1.05525 7.71314 0 9.65039 0 9.65039C0 9.65039 3.375 15.8379 9 15.8379C10.0805 15.8341 11.1487 15.609 12.1387 15.1764V15.1764ZM5.86125 4.12439C6.85131 3.69174 7.91954 3.46661 9 3.46289C14.625 3.46289 18 9.65039 18 9.65039C18 9.65039 16.9436 11.5865 15.0289 13.2931L12.7091 10.9734C12.9602 10.2712 13.0067 9.51218 12.8432 8.78461C12.6797 8.05705 12.313 7.39086 11.7857 6.86356C11.2584 6.33627 10.5922 5.96955 9.86465 5.80607C9.13708 5.6426 8.37805 5.68909 7.67587 5.94014L5.86125 4.12552V4.12439Z" fill="#0E6651"/>
<path d="M6.21562 9.25195C6.15374 9.6843 6.1934 10.1251 6.33145 10.5395C6.46951 10.9538 6.70218 11.3304 7.01101 11.6392C7.31984 11.948 7.69635 12.1807 8.11072 12.3187C8.52508 12.4568 8.9659 12.4965 9.39825 12.4346L6.2145 9.25195H6.21562ZM11.7844 10.0485L8.60175 6.8647C9.03409 6.80282 9.47491 6.84248 9.88928 6.98054C10.3036 7.11859 10.6802 7.35126 10.989 7.66009C11.2978 7.96892 11.5305 8.34544 11.6685 8.7598C11.8066 9.17416 11.8463 9.61498 11.7844 10.0473V10.0485ZM15.3517 16.7985L1.85175 3.29845L2.64825 2.50195L16.1482 16.002L15.3517 16.7985Z" fill="#0E6651"/>
</svg>
