<svg width="34" height="33" viewBox="0 0 34 33" fill="none" xmlns="http://www.w3.org/2000/svg">
<path d="M28.3333 5.5H5.66665C4.09415 5.5 2.84748 6.72375 2.84748 8.25L2.83331 24.75C2.83331 26.2763 4.09415 27.5 5.66665 27.5H28.3333C29.9058 27.5 31.1666 26.2763 31.1666 24.75V8.25C31.1666 6.72375 29.9058 5.5 28.3333 5.5ZM15.5833 13.75H11.3333V15.125H15.5833C16.3625 15.125 17 15.7437 17 16.5V20.625C17 21.3813 16.3625 22 15.5833 22H14.1666C14.1666 22.7563 13.5291 23.375 12.75 23.375C11.9708 23.375 11.3333 22.7563 11.3333 22H9.91665C9.13748 22 8.49998 21.3813 8.49998 20.625C8.49998 19.8687 9.13748 19.25 9.91665 19.25H14.1666V17.875H9.91665C9.13748 17.875 8.49998 17.2563 8.49998 16.5V12.375C8.49998 11.6188 9.13748 11 9.91665 11H11.3333C11.3333 10.2438 11.9708 9.625 12.75 9.625C13.5291 9.625 14.1666 10.2438 14.1666 11H15.5833C16.3625 11 17 11.6188 17 12.375C17 13.1312 16.3625 13.75 15.5833 13.75ZM22.1708 21.8625L19.8333 19.5938H25.5L23.1625 21.8625C22.8933 22.1237 22.44 22.1237 22.1708 21.8625ZM19.8333 13.75L22.1708 11.4813C22.4541 11.2063 22.8933 11.2063 23.1766 11.4813L25.5 13.75H19.8333Z" fill="#3C3C3C"/>
</svg>
