<svg width="32" height="32" viewBox="0 0 32 32" fill="none" xmlns="http://www.w3.org/2000/svg">
<path d="M17.3333 10.6667C18.3942 10.6667 19.4116 11.0881 20.1618 11.8382C20.9119 12.5884 21.3333 13.6058 21.3333 14.6667C21.3333 15.0203 21.4738 15.3594 21.7239 15.6095C21.9739 15.8595 22.313 16 22.6667 16C23.0203 16 23.3594 15.8595 23.6095 15.6095C23.8595 15.3594 24 15.0203 24 14.6667C24 12.8986 23.2976 11.2029 22.0474 9.95262C20.7971 8.70238 19.1014 8 17.3333 8C16.9797 8 16.6406 8.14048 16.3905 8.39052C16.1405 8.64057 16 8.97971 16 9.33333C16 9.68696 16.1405 10.0261 16.3905 10.2761C16.6406 10.5262 16.9797 10.6667 17.3333 10.6667Z" fill="#0E6651"/>
<path d="M17.3333 5.33366C19.8086 5.33366 22.1826 6.31699 23.933 8.06733C25.6833 9.81767 26.6666 12.1916 26.6666 14.667C26.6666 15.0206 26.8071 15.3598 27.0571 15.6098C27.3072 15.8598 27.6463 16.0003 28 16.0003C28.3536 16.0003 28.6927 15.8598 28.9428 15.6098C29.1928 15.3598 29.3333 15.0206 29.3333 14.667C29.3333 11.4844 28.069 8.43215 25.8186 6.18171C23.5681 3.93127 20.5159 2.66699 17.3333 2.66699C16.9797 2.66699 16.6405 2.80747 16.3905 3.05752C16.1404 3.30756 16 3.6467 16 4.00033C16 4.35395 16.1404 4.69309 16.3905 4.94313C16.6405 5.19318 16.9797 5.33366 17.3333 5.33366ZM29 21.2137C28.9266 20.9996 28.8 20.8077 28.6321 20.6561C28.4641 20.5045 28.2604 20.3981 28.04 20.347L20.04 18.5203C19.8228 18.4711 19.5968 18.477 19.3825 18.5376C19.1682 18.5981 18.9726 18.7114 18.8133 18.867C18.6266 19.0403 18.6133 19.0537 17.7466 20.707C14.8709 19.3819 12.5666 17.0681 11.2533 14.187C12.9466 13.3337 12.96 13.3337 13.1333 13.1337C13.2889 12.9744 13.4022 12.7787 13.4627 12.5644C13.5233 12.3502 13.5292 12.1241 13.48 11.907L11.6533 4.00033C11.6022 3.77992 11.4958 3.57615 11.3442 3.40821C11.1925 3.24026 11.0007 3.11366 10.7866 3.04033C10.4752 2.92911 10.1537 2.84873 9.82663 2.80033C9.48963 2.72219 9.14574 2.67752 8.79996 2.66699C7.1733 2.66699 5.61326 3.31318 4.46304 4.4634C3.31281 5.61363 2.66663 7.17366 2.66663 8.80032C2.67368 14.2439 4.83927 19.4626 8.68849 23.3118C12.5377 27.161 17.7563 29.3266 23.2 29.3337C24.0054 29.3337 24.803 29.175 25.5471 28.8668C26.2912 28.5586 26.9673 28.1068 27.5369 27.5372C28.1064 26.9677 28.5582 26.2916 28.8664 25.5474C29.1746 24.8033 29.3333 24.0058 29.3333 23.2003C29.3337 22.861 29.307 22.5221 29.2533 22.187C29.1973 21.8558 29.1125 21.5301 29 21.2137Z" fill="#0E6651"/>
</svg>
