<svg width="60" height="60" viewBox="0 0 60 60" fill="none" xmlns="http://www.w3.org/2000/svg">
<path d="M50.625 43.125C50.625 36.5859 46.793 30.9375 41.25 28.3066V18.5918C41.25 17.707 40.9395 16.8516 40.3652 16.1777L31.4355 5.58984C31.0605 5.14453 30.5273 4.92188 30 4.92188C29.4727 4.92188 28.9395 5.14453 28.5645 5.58984L19.6348 16.1777C19.0645 16.8529 18.7511 17.708 18.75 18.5918V28.3066C13.207 30.9375 9.375 36.5859 9.375 43.125H18.5449C18.4102 43.5469 18.3398 44.0039 18.3398 44.5195C18.3398 45.8145 18.7852 47.0801 19.5938 48.082C20.2538 48.9015 21.1279 49.5221 22.1191 49.875C23.4727 53.0391 26.5488 55.0781 30 55.0781C31.7051 55.0781 33.3574 54.5742 34.7695 53.625C36.1523 52.6992 37.2246 51.4043 37.875 49.875C38.8659 49.5243 39.74 48.9057 40.4004 48.0879C41.2101 47.0768 41.6522 45.8207 41.6543 44.5254C41.6543 44.0332 41.5898 43.5645 41.4727 43.1309L50.625 43.125ZM30 20.625C30.736 20.64 31.4368 20.9429 31.9519 21.4688C32.4671 21.9946 32.7557 22.7014 32.7557 23.4375C32.7557 24.1736 32.4671 24.8804 31.9519 25.4062C31.4368 25.9321 30.736 26.235 30 26.25C29.264 26.235 28.5633 25.9321 28.0481 25.4062C27.5329 24.8804 27.2443 24.1736 27.2443 23.4375C27.2443 22.7014 27.5329 21.9946 28.0481 21.4688C28.5633 20.9429 29.264 20.64 30 20.625ZM36.8027 45.9492C36.498 46.125 36.1465 46.1953 35.8008 46.1484L34.6582 46.0078L34.4941 47.1445C34.1777 49.3652 32.2441 51.041 30 51.041C27.7559 51.041 25.8223 49.3652 25.5059 47.1445L25.3418 46.002L24.1992 46.1484C23.8519 46.1898 23.5004 46.1179 23.1973 45.9434C22.6875 45.6504 22.3711 45.1055 22.3711 44.5137C22.3711 43.8926 22.7168 43.377 23.2266 43.1191H36.7793C37.2949 43.3828 37.6348 43.8984 37.6348 44.5137C37.6289 45.1113 37.3125 45.6621 36.8027 45.9492Z" fill="#0E6651"/>
</svg>
