<svg width="60" height="61" viewBox="0 0 60 61" fill="none" xmlns="http://www.w3.org/2000/svg">
<path d="M50.625 43.5884C50.625 37.0493 46.793 31.4009 41.25 28.77V19.0552C41.25 18.1704 40.9395 17.3149 40.3652 16.6411L31.4355 6.05322C31.0605 5.60791 30.5273 5.38525 30 5.38525C29.4727 5.38525 28.9395 5.60791 28.5645 6.05322L19.6348 16.6411C19.0645 17.3163 18.7511 18.1713 18.75 19.0552V28.77C13.207 31.4009 9.375 37.0493 9.375 43.5884H18.5449C18.4102 44.0103 18.3398 44.4673 18.3398 44.9829C18.3398 46.2778 18.7852 47.5435 19.5938 48.5454C20.2538 49.3649 21.1279 49.9855 22.1191 50.3384C23.4727 53.5024 26.5488 55.5415 30 55.5415C31.7051 55.5415 33.3574 55.0376 34.7695 54.0884C36.1523 53.1626 37.2246 51.8677 37.875 50.3384C38.8659 49.9877 39.74 49.369 40.4004 48.5513C41.2101 47.5402 41.6522 46.2841 41.6543 44.9888C41.6543 44.4966 41.5898 44.0278 41.4727 43.5942L50.625 43.5884ZM30 21.0884C30.736 21.1034 31.4368 21.4063 31.9519 21.9321C32.4671 22.4579 32.7557 23.1647 32.7557 23.9009C32.7557 24.637 32.4671 25.3438 31.9519 25.8696C31.4368 26.3954 30.736 26.6984 30 26.7134C29.264 26.6984 28.5633 26.3954 28.0481 25.8696C27.5329 25.3438 27.2443 24.637 27.2443 23.9009C27.2443 23.1647 27.5329 22.4579 28.0481 21.9321C28.5633 21.4063 29.264 21.1034 30 21.0884ZM36.8027 46.4126C36.498 46.5884 36.1465 46.6587 35.8008 46.6118L34.6582 46.4712L34.4941 47.6079C34.1777 49.8286 32.2441 51.5044 30 51.5044C27.7559 51.5044 25.8223 49.8286 25.5059 47.6079L25.3418 46.4653L24.1992 46.6118C23.8519 46.6532 23.5004 46.5813 23.1973 46.4067C22.6875 46.1138 22.3711 45.5688 22.3711 44.9771C22.3711 44.356 22.7168 43.8403 23.2266 43.5825H36.7793C37.2949 43.8462 37.6348 44.3618 37.6348 44.9771C37.6289 45.5747 37.3125 46.1255 36.8027 46.4126Z" fill="white"/>
</svg>
