<svg width="24" height="25" viewBox="0 0 24 25" fill="none" xmlns="http://www.w3.org/2000/svg">
<path d="M2.5 18.1504V7.15039C2.5 6.05039 3.4 5.15039 4.5 5.15039H19.5C20.6 5.15039 21.5 6.05039 21.5 7.15039V18.1504C21.5 19.2504 20.6 20.1504 19.5 20.1504H4.5C3.4 20.1504 2.5 19.2504 2.5 18.1504Z" fill="#333333"/>
<path d="M21.5 11.1504V10.1504H15.5C14.95 10.1504 14.5 9.70039 14.5 9.15039C14.5 8.60039 14.95 8.15039 15.5 8.15039H16V7.15039H15.5C14.4 7.15039 13.5 8.05039 13.5 9.15039C13.5 10.2504 14.4 11.1504 15.5 11.1504H17V14.1504H15.5C14.1 14.1504 13 15.2504 13 16.6504C13 18.0504 14.1 19.1504 15.5 19.1504H16.5V18.1504H15.5C14.65 18.1504 14 17.5004 14 16.6504C14 15.8004 14.65 15.1504 15.5 15.1504H21.5V14.1504H18V11.1504H21.5ZM8.5 14.1504H7V11.1504H8.5C9.6 11.1504 10.5 10.2504 10.5 9.15039C10.5 8.05039 9.6 7.15039 8.5 7.15039H7V8.15039H8.5C9.05 8.15039 9.5 8.60039 9.5 9.15039C9.5 9.70039 9.05 10.1504 8.5 10.1504H2.5V11.1504H6V14.1504H2.5V15.1504H8.5C9.35 15.1504 10 15.8004 10 16.6504C10 17.5004 9.35 18.1504 8.5 18.1504H7.5V19.1504H8.5C9.9 19.1504 11 18.0504 11 16.6504C11 15.2504 9.9 14.1504 8.5 14.1504Z" fill="#9A9A9A"/>
</svg>
