<svg width="150" height="118" viewBox="0 0 150 118" fill="none" xmlns="http://www.w3.org/2000/svg">
<g clip-path="url(#clip0_1589_121)">
<path opacity="0.08" d="M34.7132 109.934C62.8687 128.603 103.441 111.556 128.506 88.9067C152.563 67.1684 164.262 10.7213 120.846 1.48153C102.768 -2.36567 94.5471 1.64655 81.2337 9.28709C70.4857 15.4556 55.7175 12.5358 45.0366 7.0065C29.9337 -0.811663 11.3209 10.5597 3.35229 27.7082C-6.40982 48.7234 5.47587 90.5484 34.7132 109.934Z" fill="white"/>
<path opacity="0.1" d="M34.7132 109.934C62.8687 128.603 103.441 111.556 128.506 88.9067C152.563 67.1684 164.262 10.7213 120.846 1.48153C102.768 -2.36567 94.5471 1.64655 81.2337 9.28709C70.4857 15.4556 55.7175 12.5358 45.0366 7.0065C29.9337 -0.811663 11.3209 10.5597 3.35229 27.7082C-6.40982 48.7234 5.47587 90.5484 34.7132 109.934Z" fill="#1660A4"/>
<path d="M39.7338 18.1986C39.7338 18.1986 39.1186 27.4287 37.0423 30.7762C31.0641 40.4165 29.3322 51.2614 35.3187 56.9276C41.3052 62.5938 79.4893 62.6723 82.3821 49.64C84.8174 38.6686 79.5913 37.4887 78.3195 28.4386C77.7442 24.3433 76.1612 15.7559 76.1612 15.7559" fill="#0A0A0A"/>
<path d="M72.4986 47.7321C72.4327 47.7235 71.7012 59.8599 57.602 58.8018C47.8414 58.0707 44.3612 47.7141 44.1377 47.7141C45.19 47.4903 46.9621 47.1651 47.4294 46.9159C48.9665 46.0899 50.8674 45.2307 51.3637 42.2458C51.6502 40.5268 51.1631 31.7248 51.3138 29.9834L66.2975 33.3278C66.088 37.0036 64.6228 45.5258 69.7585 47.0339C70.6117 47.2835 71.5322 47.5127 72.4986 47.7321Z" fill="#E98862"/>
<path opacity="0.5" d="M66.5062 43.5511C66.2716 42.7948 66.1204 42.0151 66.0556 41.2258C65.891 39.4248 65.9238 37.6111 66.1536 35.8172C63.1088 35.4061 60.2403 34.1493 57.8741 32.1895C57.5959 33.2169 56.0657 37.7064 56.4894 38.6828C57.2891 40.5285 61.0518 43.5511 66.5062 43.5511Z" fill="#0C0C0C"/>
<path d="M64.5689 39.7694C58.6617 40.3424 51.0189 37.9782 49.4357 30.1119L48.0071 23.014C46.4239 15.1477 49.2721 7.93892 56.6785 6.44823C64.0853 4.9584 70.9047 10.2204 72.4879 18.0867L73.1205 21.2299C73.7279 24.2474 75.108 38.7497 64.5689 39.7694Z" fill="#E98862"/>
<path d="M68.7705 30.3623C66.8512 31.3381 64.6615 31.6466 62.5473 31.2393C62.4741 31.2255 62.3985 31.2328 62.3293 31.2604C62.2602 31.288 62.2003 31.3347 62.1567 31.3951C62.1131 31.4555 62.0875 31.527 62.0831 31.6014C62.0787 31.6757 62.0955 31.7498 62.1316 31.8149C62.7619 32.9257 64.2569 34.8232 66.8217 34.0497C68.4777 33.55 69.1037 31.8461 69.3358 30.7924C69.3516 30.7195 69.3462 30.6436 69.3204 30.5737C69.2946 30.5037 69.2494 30.4425 69.19 30.3974C69.1307 30.3522 69.0597 30.325 68.9854 30.3187C68.911 30.3125 68.8365 30.3277 68.7705 30.3623V30.3623Z" fill="white"/>
<path d="M68.8906 21.8265C69.4028 21.8265 69.818 21.4113 69.818 20.8991C69.818 20.3869 69.4028 19.9717 68.8906 19.9717C68.3784 19.9717 67.9631 20.3869 67.9631 20.8991C67.9631 21.4113 68.3784 21.8265 68.8906 21.8265Z" fill="#0C0C0C"/>
<path d="M59.9791 23.3866C60.4913 23.3866 60.9065 22.9714 60.9065 22.4592C60.9065 21.947 60.4913 21.5317 59.9791 21.5317C59.4669 21.5317 59.0516 21.947 59.0516 22.4592C59.0516 22.9714 59.4669 23.3866 59.9791 23.3866Z" fill="#0C0C0C"/>
<path opacity="0.1" d="M60.8143 29.4618C61.7864 29.3459 62.5055 28.6738 62.4204 27.9608C62.3353 27.2478 61.4783 26.7639 60.5062 26.8798C59.5341 26.9958 58.8151 27.6678 58.9001 28.3808C58.9852 29.0939 59.8422 29.5778 60.8143 29.4618Z" fill="#0C0C0C"/>
<path opacity="0.1" d="M71.0858 26.6111C71.1718 27.323 72.0298 27.8064 73.002 27.6918C73.1699 27.6716 73.3354 27.6341 73.4956 27.5797C73.5409 26.7308 73.5435 25.914 73.5188 25.1579C73.2488 25.0905 72.9686 25.0741 72.6925 25.1095C71.7204 25.2244 71.0016 25.8959 71.0858 26.6111Z" fill="#0C0C0C"/>
<path opacity="0.5" d="M66.7904 28.8116L66.8048 28.8093C67.105 28.7468 67.4015 28.6677 67.6929 28.5724C68.1278 28.4269 68.6957 28.1879 68.6178 27.7945C68.5278 27.3462 66.3257 22.7572 66.0759 22.2363C66.0655 22.2131 66.0505 22.1921 66.0318 22.1748C66.0132 22.1574 65.9912 22.1439 65.9673 22.1352C65.9434 22.1264 65.9179 22.1225 65.8925 22.1238C65.867 22.125 65.842 22.1313 65.8191 22.1424C65.7961 22.1534 65.7756 22.169 65.7587 22.1881C65.7418 22.2072 65.729 22.2295 65.7208 22.2537C65.7127 22.2778 65.7096 22.3034 65.7115 22.3288C65.7134 22.3542 65.7204 22.379 65.7321 22.4017C66.671 24.3559 68.1831 27.5688 68.2439 27.8708C68.1963 28.0114 67.4749 28.2862 66.7303 28.4363C66.6804 28.4444 66.6357 28.4719 66.6062 28.5129C66.5766 28.5539 66.5645 28.6049 66.5725 28.6548C66.5806 28.7047 66.6081 28.7493 66.6491 28.7789C66.6901 28.8085 66.7411 28.8206 66.791 28.8125L66.7904 28.8116Z" fill="#0C0C0C"/>
<path d="M42.0975 25.5621L48.7375 24.2651C53.7534 22.1676 55.1765 13.426 55.1765 13.426C55.1765 13.426 61.3667 19.3211 76.1613 15.7562C76.1613 15.7562 72.9475 -4.8966 51.1021 1.37358C44.0583 3.39487 39.0688 10.5744 39.8109 20.0844C40.3309 26.7477 42.0975 25.5621 42.0975 25.5621Z" fill="#0A0A0A"/>
<path d="M50.378 32.4163C48.1272 32.8693 45.818 30.8285 45.3641 28.5771C44.9103 26.3258 46.4861 24.7176 48.7369 24.2646L50.2003 25.5393L52.3127 32.0261L50.378 32.4163Z" fill="#E98862"/>
<path d="M67.6727 18.5767C68.2358 18.1784 68.8944 17.9365 69.5814 17.8757C69.9261 17.8428 70.2738 17.8621 70.6128 17.933C70.9551 18.0028 71.2873 18.1153 71.6015 18.2679L71.6113 18.2725C71.6463 18.2889 71.6864 18.2908 71.7228 18.2776C71.7592 18.2645 71.7889 18.2374 71.8054 18.2024C71.8218 18.1674 71.8237 18.1273 71.8106 18.0909C71.7974 18.0544 71.7704 18.0248 71.7353 18.0083C71.4023 17.8326 71.0484 17.6994 70.6821 17.6121C70.3133 17.5224 69.933 17.4887 69.5542 17.5121C68.7867 17.5543 68.0447 17.8016 67.4054 18.2283C67.3816 18.2445 67.3612 18.2652 67.3455 18.2893C67.3297 18.3133 67.3188 18.3402 67.3134 18.3685C67.3081 18.3967 67.3083 18.4258 67.3141 18.4539C67.32 18.4821 67.3313 18.5088 67.3475 18.5326C67.3637 18.5564 67.3844 18.5768 67.4084 18.5925C67.4325 18.6083 67.4594 18.6192 67.4877 18.6246C67.5159 18.6299 67.5449 18.6297 67.5731 18.6238C67.6013 18.618 67.628 18.6067 67.6518 18.5905L67.6569 18.5868L67.6727 18.5767Z" fill="#0C0C0C"/>
<path d="M61.6059 19.4148C60.8518 19.2651 60.0714 19.3203 59.3459 19.5747C58.9873 19.6982 58.6493 19.8749 58.3431 20.0987C58.0382 20.3197 57.7624 20.5781 57.522 20.868C57.4966 20.8967 57.4835 20.9342 57.4856 20.9724C57.4876 21.0107 57.5046 21.0466 57.5329 21.0724C57.5612 21.0982 57.5985 21.1119 57.6368 21.1104C57.6751 21.1089 57.7112 21.0925 57.7375 21.0645L57.7452 21.0565C57.9771 20.7954 58.2408 20.5643 58.5302 20.3689C58.8167 20.1735 59.131 20.0225 59.4625 19.9211C60.1206 19.7146 60.8217 19.6861 61.4944 19.8383L61.511 19.8423C61.5674 19.856 61.627 19.8467 61.6766 19.8165C61.7261 19.7862 61.7617 19.7376 61.7753 19.6811C61.789 19.6247 61.7797 19.5652 61.7495 19.5156C61.7193 19.466 61.6706 19.4305 61.6142 19.4168L61.6059 19.4148Z" fill="#0C0C0C"/>
<path d="M48.742 24.1561C53.2055 22.4944 54.6867 19.4121 55.1429 17.1184C55.4381 15.5886 55.4105 14.0141 55.0618 12.4956L54.9237 12.5334C55.2671 14.0322 55.2937 15.5861 55.0016 17.0957C54.5512 19.352 53.0912 22.3849 48.6919 24.022L48.742 24.1561Z" fill="#0C0C0C"/>
<path d="M90.0774 55.2197L108.332 103.757L93.1817 99.4716L127.638 73.7721L139.914 90.5579L104.98 115.605C103.767 116.473 102.377 117.061 100.909 117.326C99.4411 117.591 97.9327 117.527 96.4926 117.139C95.0525 116.751 93.7166 116.047 92.5813 115.08C91.446 114.113 90.5396 112.905 89.9275 111.545L89.8298 111.319L68.8605 63.8908L90.0774 55.2197Z" fill="#1660A4"/>
<path d="M57.3389 55.7662C47.5713 55.3058 47.1602 47.0151 47.1602 47.0151C47.1602 47.0151 42.3205 47.328 39.1034 47.7632C33.8362 48.476 30.3615 50.2621 27.5962 53.0272C25.0239 55.5994 23.4579 58.3825 25.115 76.1513C26.3149 89.0171 25.4703 117.316 25.4703 117.316H84.4188C84.4188 117.316 87.9537 80.2237 88.4465 74.4323C89.3868 63.376 93.238 57.1445 87.8552 51.4494C83.9515 47.3191 73.8737 47.0151 69.8173 47.016C69.7514 47.0154 70.6408 56.393 57.3389 55.7662Z" fill="#1660A4"/>
<path d="M114.005 57.6127C110.341 51.4242 102.049 50.681 95.8607 54.3465L95.4685 54.59L95.2055 54.1663C91.4179 48.0526 83.6965 44.8637 77.5828 48.6514C74.647 50.4703 72.5539 53.3809 71.7641 56.743C70.9743 60.1051 71.5523 63.6433 73.3711 66.5792L85.9536 86.456C86.3617 87.1008 87.0071 87.5593 87.7503 87.7324C88.4935 87.9054 89.275 87.7793 89.926 87.3812L109.895 75.168C112.713 73.3374 114.714 70.4884 115.48 67.2167C116.246 63.945 115.718 60.5038 114.005 57.6127V57.6127Z" fill="#1660A4"/>
<path opacity="0.6" d="M114.005 57.6127C110.341 51.4242 102.049 50.681 95.8607 54.3465L95.4685 54.59L95.2055 54.1663C91.4179 48.0526 83.6965 44.8637 77.5828 48.6514C74.647 50.4703 72.5539 53.3809 71.7641 56.743C70.9743 60.1051 71.5523 63.6433 73.3711 66.5792L85.9536 86.456C86.3617 87.1008 87.0071 87.5593 87.7503 87.7324C88.4935 87.9054 89.275 87.7793 89.926 87.3812L109.895 75.168C112.713 73.3374 114.714 70.4884 115.48 67.2167C116.246 63.945 115.718 60.5038 114.005 57.6127V57.6127Z" fill="white"/>
<path d="M92.9089 70.4113C86.4121 66.4957 78.3392 69.9509 74.4235 76.4477L74.1808 76.87L73.7247 76.6079C67.1506 72.8231 58.3849 73.7219 54.6005 80.2961C52.7829 83.453 52.2938 87.2026 53.2409 90.7201C54.1879 94.2376 56.4935 97.2348 59.6504 99.0524L81.2739 111.223C81.9753 111.618 82.804 111.721 83.5808 111.51C84.3577 111.299 85.0204 110.791 85.4259 110.096L97.866 88.77C99.5678 85.6615 100.002 82.0154 99.0784 78.5941C98.1546 75.1727 95.944 72.2408 92.9089 70.4113V70.4113Z" fill="#1660A4"/>
<path opacity="0.5" d="M92.9089 70.4113C86.4121 66.4957 78.3392 69.9509 74.4235 76.4477L74.1808 76.87L73.7247 76.6079C67.1506 72.8231 58.3849 73.7219 54.6005 80.2961C52.7829 83.453 52.2938 87.2026 53.2409 90.7201C54.1879 94.2376 56.4935 97.2348 59.6504 99.0524L81.2739 111.223C81.9753 111.618 82.804 111.721 83.5808 111.51C84.3577 111.299 85.0204 110.791 85.4259 110.096L97.866 88.77C99.5678 85.6615 100.002 82.0154 99.0784 78.5941C98.1546 75.1727 95.944 72.2408 92.9089 70.4113V70.4113Z" fill="white"/>
<path d="M87.244 79.6238C87.2464 79.5858 87.2638 79.5503 87.2924 79.5251C87.3209 79.4999 87.3583 79.4871 87.3963 79.4895C87.4343 79.4919 87.4698 79.5093 87.4949 79.5379C87.5201 79.5664 87.5329 79.6038 87.5305 79.6418L86.3315 98.7873C86.3294 98.8217 86.3149 98.8542 86.2908 98.8789C86.2666 98.9035 86.2344 98.9186 86.2 98.9214C86.1934 98.9214 86.1865 98.9214 86.1796 98.9214C86.1417 98.919 86.1063 98.9017 86.0812 98.8732C86.056 98.8447 86.0432 98.8074 86.0456 98.7695" fill="#0C0C0C"/>
<path d="M131.931 77.9048C131.946 77.6944 132.004 77.4893 132.101 77.302C132.198 77.1146 132.332 76.949 132.495 76.8152C132.658 76.6815 132.847 76.5823 133.049 76.5238C133.252 76.4653 133.465 76.4488 133.674 76.4751C134.077 76.5401 134.441 76.7558 134.691 77.0786C134.941 77.4014 135.06 77.8071 135.022 78.2139L134.873 80.3054L137.943 74.6716C138.32 73.9553 139.241 73.317 140.016 73.7928C140.669 74.1367 141.899 73.9496 142.352 74.8114C142.36 74.8142 144.73 83.206 144.381 83.8718C142.898 86.6916 137.91 88.5705 134.739 88.2554L129.75 87.7554L131.931 77.9048Z" fill="#E98862"/>
<g opacity="0.1">
<path d="M131.931 77.9048C131.946 77.6944 132.004 77.4893 132.101 77.302C132.198 77.1146 132.332 76.949 132.495 76.8152C132.658 76.6815 132.847 76.5823 133.049 76.5238C133.252 76.4653 133.465 76.4488 133.674 76.4751C134.077 76.5401 134.441 76.7558 134.691 77.0786C134.941 77.4014 135.06 77.8071 135.022 78.2139L134.873 80.3054L137.943 74.6716C138.32 73.9553 139.241 73.317 140.016 73.7928C140.669 74.1367 141.899 73.9496 142.352 74.8114C142.36 74.8142 144.73 83.206 144.381 83.8718C142.898 86.6916 137.91 88.5705 134.739 88.2554L129.75 87.7554L131.931 77.9048Z" fill="#0C0C0C"/>
</g>
<path d="M137.395 71.5271C131.665 64.2785 120.979 64.7578 113.73 70.4882L113.272 70.8659L112.864 70.3714C106.991 63.2374 96.6085 60.5067 89.4754 66.3815C87.7792 67.7784 86.3748 69.4957 85.3424 71.4353C84.31 73.375 83.6697 75.499 83.4581 77.6861C83.2465 79.8732 83.4679 82.0806 84.1094 84.1822C84.7509 86.2838 85.8001 88.2384 87.1971 89.9345L106.637 113.08C107.268 113.831 108.169 114.303 109.145 114.396C110.121 114.488 111.094 114.193 111.855 113.574L135.18 94.5868C138.453 91.7714 140.511 87.7998 140.924 83.5023C141.337 79.2049 140.073 74.9142 137.395 71.5271V71.5271Z" fill="#298B74"/>
<path d="M137.654 81.9491C137.653 81.6719 137.743 81.4022 137.91 81.181C138.077 80.9598 138.312 80.7992 138.579 80.7237C138.569 80.7034 138.532 80.6607 138.568 80.6464L137.523 80.4613C137.214 80.4135 136.933 80.2554 136.731 80.0163C136.53 79.7773 136.422 79.4734 136.427 79.1609C136.442 78.8524 136.571 78.5605 136.789 78.3418C137.007 78.1232 137.299 77.9933 137.607 77.9773C137.6 77.9673 137.602 77.9532 137.599 77.9412L137.169 77.865C136.878 77.8187 136.612 77.6733 136.416 77.4535C136.22 77.2336 136.106 76.9528 136.093 76.6585C136.089 76.4738 136.126 76.2905 136.201 76.1217C136.276 75.9529 136.388 75.803 136.528 75.6826C136.668 75.5623 136.833 75.4746 137.011 75.4258C137.19 75.377 137.377 75.3683 137.558 75.4005L138.549 75.5761C138.549 75.5706 138.545 75.5666 138.545 75.5612C138.546 75.5557 138.554 75.5503 138.556 75.544C138.295 75.4346 138.08 75.2399 137.944 74.9917C137.809 74.7436 137.762 74.4569 137.811 74.1785C137.891 73.4519 138.749 73.1815 139.39 73.2949L141.38 73.8106C141.687 73.8901 141.969 74.0441 142.202 74.259C142.435 74.474 142.612 74.7431 142.716 75.0426C143.616 77.6352 145.807 84.4632 143.762 84.1011L138.73 83.2095C138.436 83.1488 138.171 82.9919 137.976 82.7637C137.781 82.5355 137.668 82.2489 137.654 81.9491V81.9491Z" fill="#E98862"/>
<path d="M76.8777 91.623L84.6942 85.6903C84.8659 85.56 85.063 85.4669 85.2727 85.4169C85.4825 85.3669 85.7003 85.3611 85.9124 85.3999C86.1245 85.4387 86.3262 85.5212 86.5047 85.6423C86.6831 85.7633 86.8344 85.9202 86.949 86.1029C87.1499 86.4467 87.2159 86.8529 87.1344 87.2427C87.0528 87.6324 86.8294 87.978 86.5074 88.2124L84.8314 89.4845L91.9384 87.9036C92.7255 87.7142 93.8128 87.9849 93.9672 88.8817C94.0491 89.223 94.013 89.582 93.8647 89.9001C93.7164 90.2182 93.4647 90.4767 93.1507 90.6334C93.1544 90.6403 93.1572 90.6476 93.1593 90.6552C93.1597 90.6612 93.1597 90.6672 93.1593 90.6732L94.3729 90.381C94.5977 90.3269 94.8318 90.3237 95.0581 90.3716C95.2843 90.4195 95.497 90.5172 95.6807 90.6578C95.8643 90.7983 96.0143 90.978 96.1197 91.1838C96.2251 91.3897 96.2833 91.6164 96.2899 91.8476C96.293 92.2118 96.1709 92.5661 95.9441 92.8511C95.7173 93.1361 95.3995 93.3346 95.0439 93.4134L94.5282 93.538C94.525 93.5545 94.5188 93.5704 94.5098 93.5847C94.8782 93.5816 95.2356 93.7096 95.5182 93.9458C95.8008 94.182 95.9903 94.511 96.0527 94.874C96.1091 95.2733 96.0129 95.6793 95.7832 96.0109C95.5536 96.3424 95.2073 96.5751 94.8135 96.6626L93.5308 96.9715C93.552 96.9799 93.5708 96.9933 93.5858 97.0105C93.6007 97.0277 93.6114 97.0482 93.6168 97.0703C93.6222 97.0969 93.6196 97.1245 93.6093 97.1497C93.9382 97.2381 94.229 97.4321 94.4368 97.7018C94.6447 97.9715 94.7583 98.3021 94.76 98.6427C94.7544 99.0004 94.6283 99.3458 94.402 99.6229C94.1757 99.9001 93.8625 100.093 93.5131 100.17L82.6886 102.777C81.1743 103.142 79.5856 103.046 78.1262 102.502C76.6667 101.957 75.403 100.99 74.4971 99.7228V99.7228C73.716 98.6303 73.3916 97.2762 73.5928 95.9484C73.7941 94.6205 74.5052 93.4234 75.575 92.6114L76.8777 91.623Z" fill="#E98862"/>
<g opacity="0.2">
<path d="M86.1235 92.2331C86.1325 92.2694 86.1553 92.3008 86.1871 92.3205C86.2189 92.3402 86.2572 92.3467 86.2937 92.3385L93.0507 90.8264C93.0878 90.818 93.1201 90.7953 93.1404 90.7632C93.1608 90.7311 93.1676 90.6921 93.1592 90.655C93.1509 90.6179 93.1282 90.5856 93.0961 90.5653C93.0639 90.5449 93.025 90.5381 92.9879 90.5464L86.231 92.0586C86.2125 92.0627 86.1951 92.0705 86.1797 92.0814C86.1643 92.0922 86.1511 92.1061 86.1411 92.1221C86.131 92.138 86.1242 92.1558 86.121 92.1745C86.1179 92.1931 86.1184 92.2121 86.1227 92.2305L86.1235 92.2331Z" fill="#0C0C0C"/>
</g>
<g opacity="0.2">
<path d="M86.7083 95.232C86.7174 95.2684 86.7403 95.2997 86.7721 95.3194C86.804 95.339 86.8423 95.3454 86.8788 95.3372L94.4193 93.6497C94.4378 93.6456 94.4552 93.6379 94.4707 93.627C94.4862 93.6161 94.4993 93.6023 94.5094 93.5863C94.5195 93.5703 94.5263 93.5525 94.5295 93.5339C94.5327 93.5153 94.5322 93.4962 94.5279 93.4778C94.5185 93.4412 94.4954 93.4096 94.4635 93.3895C94.4315 93.3694 94.3931 93.3622 94.356 93.3695L86.8152 95.057C86.7968 95.0611 86.7793 95.0688 86.7639 95.0797C86.7485 95.0906 86.7354 95.1044 86.7253 95.1204C86.7152 95.1364 86.7084 95.1542 86.7053 95.1728C86.7021 95.1914 86.7027 95.2105 86.7069 95.2289L86.7083 95.232Z" fill="#0C0C0C"/>
</g>
<g opacity="0.2">
<path d="M87.3228 98.483C87.3319 98.5194 87.3548 98.5507 87.3866 98.5704C87.4185 98.59 87.4568 98.5964 87.4933 98.5882L93.5099 97.2416C93.547 97.2333 93.5793 97.2106 93.5996 97.1785C93.6199 97.1464 93.6267 97.1075 93.6184 97.0704C93.61 97.0333 93.5873 97.0011 93.5552 96.9807C93.5231 96.9604 93.4842 96.9537 93.4472 96.962L87.4305 98.3085C87.4121 98.3127 87.3947 98.3204 87.3793 98.3313C87.3638 98.3422 87.3507 98.356 87.3407 98.372C87.3306 98.388 87.3238 98.4058 87.3206 98.4244C87.3175 98.443 87.318 98.462 87.3222 98.4805L87.3228 98.483Z" fill="#0C0C0C"/>
</g>
<path d="M80.2342 105.817L30.5578 117.11C28.9075 117.289 27.2381 117.084 25.6805 116.51C24.1228 115.936 22.7194 115.009 21.5803 113.802C20.4411 112.594 19.5973 111.139 19.1149 109.551C18.6326 107.962 18.5249 106.284 18.8002 104.647L24.485 58.9205C24.9578 56.1105 26.5274 53.6034 28.8487 51.9508C31.1699 50.2981 34.0527 49.6352 36.8627 50.1079C39.6727 50.5807 42.1798 52.1503 43.8325 54.4716C45.4851 56.7928 46.148 59.6755 45.6753 62.4855L42.9377 95.2145L77.4513 87.4041L80.2342 105.817Z" fill="#1660A4"/>
<path d="M35.9535 96.5006C35.9155 96.5033 35.878 96.4909 35.8492 96.466C35.8203 96.4411 35.8026 96.4058 35.7998 96.3678C35.797 96.3298 35.8095 96.2922 35.8344 96.2634C35.8593 96.2346 35.8946 96.2168 35.9326 96.2141L42.8549 94.7363C42.8735 94.7332 42.8926 94.7339 42.9109 94.7383C42.9293 94.7427 42.9465 94.7508 42.9617 94.762C42.9769 94.7732 42.9897 94.7874 42.9993 94.8036C43.0089 94.8199 43.0151 94.8379 43.0176 94.8566C43.0232 94.8941 43.0137 94.9323 42.9911 94.9629C42.9685 94.9934 42.9348 95.0137 42.8973 95.0193L35.975 96.4974C35.968 96.499 35.9608 96.5001 35.9535 96.5006V96.5006Z" fill="#0C0C0C"/>
<path d="M32.0483 117.317C32.0103 117.319 31.9728 117.306 31.9442 117.281C31.9156 117.256 31.8982 117.221 31.8957 117.183C31.8932 117.145 31.9059 117.107 31.9311 117.079C31.9562 117.05 31.9916 117.033 32.0296 117.03L79.9225 105.75L77.2087 87.6143L42.9011 95.0216C42.8788 95.0245 42.8562 95.0222 42.835 95.0149C42.8139 95.0075 42.7947 94.9952 42.7791 94.9791C42.7635 94.9629 42.752 94.9434 42.7453 94.9219C42.7387 94.9005 42.7372 94.8778 42.7409 94.8557L44.6654 76.1555C44.6682 76.1368 44.6748 76.1189 44.6847 76.1028C44.6946 76.0867 44.7076 76.0727 44.723 76.0618C44.7384 76.0508 44.7558 76.0431 44.7743 76.039C44.7927 76.0349 44.8118 76.0346 44.8304 76.038C44.8679 76.0443 44.9013 76.0652 44.9233 76.0962C44.9454 76.1271 44.9542 76.1656 44.9479 76.203L43.0569 94.7113L77.2755 87.2994C77.2939 87.2943 77.3131 87.293 77.3321 87.2954C77.351 87.2979 77.3693 87.3041 77.3858 87.3137C77.4022 87.3234 77.4166 87.3363 77.4281 87.3516C77.4395 87.3669 77.4478 87.3843 77.4525 87.4028L80.2354 105.817C80.2441 105.854 80.2385 105.892 80.2196 105.924C80.2007 105.956 80.1701 105.979 80.1342 105.989L32.0669 117.315C32.0607 117.316 32.0545 117.317 32.0483 117.317Z" fill="#0C0C0C"/>
<path d="M141.892 33.9035C140.001 30.7087 135.72 30.3251 132.525 32.2166L132.323 32.3424L132.187 32.1235C130.232 28.9673 126.246 27.3213 123.089 29.2765C121.574 30.2154 120.494 31.7179 120.086 33.4533C119.678 35.1887 119.976 37.015 120.915 38.5306L127.411 48.7918C127.621 49.1246 127.955 49.3613 128.338 49.4506C128.722 49.54 129.125 49.4749 129.462 49.2694L139.77 42.9645C141.224 42.0196 142.257 40.5492 142.652 38.8606C143.048 37.172 142.776 35.396 141.892 33.9035V33.9035Z" fill="#0E6651" fill-opacity="0.64"/>
<path opacity="0.2" d="M141.892 33.9035C140.001 30.7087 135.72 30.3251 132.525 32.2166L132.323 32.3424L132.187 32.1235C130.232 28.9673 126.246 27.3213 123.089 29.2765C121.574 30.2154 120.494 31.7179 120.086 33.4533C119.678 35.1887 119.976 37.015 120.915 38.5306L127.411 48.7918C127.621 49.1246 127.955 49.3613 128.338 49.4506C128.722 49.54 129.125 49.4749 129.462 49.2694L139.77 42.9645C141.224 42.0196 142.257 40.5492 142.652 38.8606C143.048 37.172 142.776 35.396 141.892 33.9035Z" fill="white"/>
<path d="M113.661 3.77223C111.943 2.76688 109.837 3.7006 108.832 5.4182L108.77 5.52965L108.649 5.46261C106.912 4.49193 104.615 4.75723 103.645 6.49403C103.414 6.90718 103.266 7.36178 103.211 7.83186C103.156 8.30194 103.194 8.7783 103.323 9.23371C103.452 9.68912 103.669 10.1147 103.963 10.486C104.256 10.8574 104.62 11.1674 105.033 11.3981L110.747 14.5179C110.932 14.6191 111.15 14.6434 111.353 14.5854C111.556 14.5275 111.728 14.392 111.832 14.2082L115.024 8.57148C115.46 7.75025 115.561 6.79231 115.307 5.89791C115.053 5.00351 114.463 4.24188 113.661 3.77223V3.77223Z" fill="#1660A4"/>
<path opacity="0.5" d="M113.661 3.77223C111.943 2.76688 109.837 3.7006 108.832 5.4182L108.77 5.52965L108.649 5.46261C106.912 4.49193 104.615 4.75723 103.645 6.49403C103.414 6.90718 103.266 7.36178 103.211 7.83186C103.156 8.30194 103.194 8.7783 103.323 9.23371C103.452 9.68912 103.669 10.1147 103.963 10.486C104.256 10.8574 104.62 11.1674 105.033 11.3981L110.747 14.5179C110.932 14.6191 111.15 14.6434 111.353 14.5854C111.556 14.5275 111.728 14.392 111.832 14.2082L115.024 8.57148C115.46 7.75025 115.561 6.79231 115.307 5.89791C115.053 5.00351 114.463 4.24188 113.661 3.77223V3.77223Z" fill="white"/>
<path d="M140.858 117.603H14.4525C14.3765 117.603 14.3037 117.573 14.2499 117.519C14.1962 117.465 14.166 117.392 14.166 117.316C14.166 117.24 14.1962 117.167 14.2499 117.114C14.3037 117.06 14.3765 117.03 14.4525 117.03H140.859C140.935 117.03 141.008 117.06 141.061 117.114C141.115 117.167 141.145 117.24 141.145 117.316C141.145 117.392 141.115 117.465 141.061 117.519C141.008 117.573 140.935 117.603 140.859 117.603H140.858Z" fill="#292A2E"/>
</g>
<defs>
<clipPath id="clip0_1589_121">
<rect width="150" height="117.906" fill="white"/>
</clipPath>
</defs>
</svg>
