<svg width="35" height="35" viewBox="0 0 35 35" fill="none" xmlns="http://www.w3.org/2000/svg">
<path d="M21.875 16.042H32.0834V18.9587H21.875V16.042ZM23.3334 21.8753H32.0834V24.792H23.3334V21.8753ZM20.4167 10.2087H32.0834V13.1253H20.4167V10.2087ZM5.83335 27.7087H20.4167V26.2503C20.4167 22.2297 17.1456 18.9587 13.125 18.9587H10.2084C6.18773 18.9587 2.91669 22.2297 2.91669 26.2503V27.7087H5.83335ZM11.6667 17.5003C14.5761 17.5003 16.7709 15.3055 16.7709 12.3962C16.7709 9.48678 14.5761 7.29199 11.6667 7.29199C8.75731 7.29199 6.56252 9.48678 6.56252 12.3962C6.56252 15.3055 8.75731 17.5003 11.6667 17.5003Z" fill="#0E6651"/>
</svg>
