<svg width="64" height="64" viewBox="0 0 64 64" fill="none" xmlns="http://www.w3.org/2000/svg">
<path d="M5.90039 61.9999C2.60039 61.9999 1.10039 59.5999 2.60039 56.6999L29.3004 4.1999C30.8004 1.2999 33.2004 1.2999 34.7004 4.1999L61.4004 56.6999C62.9004 59.5999 61.4004 61.9999 58.1004 61.9999H5.90039Z" fill="#9D2B2B"/>
<path d="M27.7995 23.6002L30.5995 42.1002C30.8995 43.9002 33.1995 43.9002 33.4995 42.1002L36.1995 23.6002C36.6995 16.4002 27.2995 16.4002 27.7995 23.6002" fill="#FEFEFE"/>
<path d="M31.9998 53.8004C34.3194 53.8004 36.1998 51.92 36.1998 49.6004C36.1998 47.2808 34.3194 45.4004 31.9998 45.4004C29.6802 45.4004 27.7998 47.2808 27.7998 49.6004C27.7998 51.92 29.6802 53.8004 31.9998 53.8004Z" fill="#FEFEFE"/>
</svg>
