<svg width="32" height="32" viewBox="0 0 32 32" fill="none" xmlns="http://www.w3.org/2000/svg">
<path d="M21.8133 18.667C21.92 17.787 22 16.907 22 16.0003C22 15.0937 21.92 14.2137 21.8133 13.3337H26.32C26.5333 14.187 26.6666 15.0803 26.6666 16.0003C26.6666 16.9203 26.5333 17.8137 26.32 18.667M19.4533 26.0803C20.2533 24.6003 20.8666 23.0003 21.2933 21.3337H25.2266C23.9349 23.558 21.8854 25.243 19.4533 26.0803ZM19.12 18.667H12.88C12.7466 17.787 12.6666 16.907 12.6666 16.0003C12.6666 15.0937 12.7466 14.2003 12.88 13.3337H19.12C19.24 14.2003 19.3333 15.0937 19.3333 16.0003C19.3333 16.907 19.24 17.787 19.12 18.667ZM16 26.6137C14.8933 25.0137 14 23.2403 13.4533 21.3337H18.5466C18 23.2403 17.1066 25.0137 16 26.6137ZM10.6666 10.667H6.77329C8.05177 8.43661 10.0997 6.74897 12.5333 5.92033C11.7333 7.40033 11.1333 9.00033 10.6666 10.667ZM6.77329 21.3337H10.6666C11.1333 23.0003 11.7333 24.6003 12.5333 26.0803C10.1048 25.2425 8.05975 23.5573 6.77329 21.3337ZM5.67996 18.667C5.46663 17.8137 5.33329 16.9203 5.33329 16.0003C5.33329 15.0803 5.46663 14.187 5.67996 13.3337H10.1866C10.08 14.2137 9.99996 15.0937 9.99996 16.0003C9.99996 16.907 10.08 17.787 10.1866 18.667M16 5.37366C17.1066 6.97366 18 8.76033 18.5466 10.667H13.4533C14 8.76033 14.8933 6.97366 16 5.37366ZM25.2266 10.667H21.2933C20.876 9.0156 20.2581 7.42152 19.4533 5.92033C21.9066 6.76033 23.9466 8.45366 25.2266 10.667ZM16 2.66699C8.62663 2.66699 2.66663 8.66699 2.66663 16.0003C2.66663 19.5365 4.07138 22.9279 6.57187 25.4284C7.80998 26.6665 9.27984 27.6487 10.8975 28.3187C12.5152 28.9888 14.249 29.3337 16 29.3337C19.5362 29.3337 22.9276 27.9289 25.428 25.4284C27.9285 22.9279 29.3333 19.5365 29.3333 16.0003C29.3333 14.2494 28.9884 12.5156 28.3184 10.8979C27.6483 9.2802 26.6662 7.81035 25.428 6.57223C24.1899 5.33412 22.7201 4.35199 21.1024 3.68193C19.4847 3.01187 17.7509 2.66699 16 2.66699Z" fill="#0E6651"/>
</svg>
